<svg width="276" height="284" viewBox="0 0 276 284" fill="none" xmlns="http://www.w3.org/2000/svg">
<mask id="path-1-inside-1_1_942" fill="white">
<path fill-rule="evenodd" clip-rule="evenodd" d="M139.732 1C138.962 -0.333333 137.038 -0.333333 136.268 1L131.072 10H12C5.37258 10 0 15.3726 0 22V272C0 278.627 5.37258 284 12 284H264C270.627 284 276 278.627 276 272V22C276 15.3726 270.627 10 264 10H144.928L139.732 1Z"/>
</mask>
<path fill-rule="evenodd" clip-rule="evenodd" d="M139.732 1C138.962 -0.333333 137.038 -0.333333 136.268 1L131.072 10H12C5.37258 10 0 15.3726 0 22V272C0 278.627 5.37258 284 12 284H264C270.627 284 276 278.627 276 272V22C276 15.3726 270.627 10 264 10H144.928L139.732 1Z" fill="white"/>
<path d="M136.268 1L135.402 0.499997V0.5L136.268 1ZM139.732 1L140.598 0.5V0.499997L139.732 1ZM131.072 10V11H131.649L131.938 10.5L131.072 10ZM144.928 10L144.062 10.5L144.351 11H144.928V10ZM137.134 1.5C137.519 0.833333 138.481 0.833332 138.866 1.5L140.598 0.499997C139.443 -1.5 136.557 -1.5 135.402 0.499997L137.134 1.5ZM131.938 10.5L137.134 1.5L135.402 0.5L130.206 9.50003L131.938 10.5ZM12 11H131.072V9.00003H12V11ZM1 22C1 15.9249 5.92487 11 12 11V9.00003C4.8203 9.00003 -1 14.8203 -1 22H1ZM1 272V22H-1V272H1ZM12 283C5.92487 283 1 278.075 1 272H-1C-1 279.18 4.8203 285 12 285V283ZM264 283H12V285H264V283ZM275 272C275 278.075 270.075 283 264 283V285C271.18 285 277 279.18 277 272H275ZM275 22V272H277V22H275ZM264 11C270.075 11 275 15.9249 275 22H277C277 14.8203 271.18 9.00003 264 9.00003V11ZM144.928 11H264V9.00003H144.928V11ZM138.866 1.5L144.062 10.5L145.794 9.50003L140.598 0.5L138.866 1.5Z" fill="#3470FF" mask="url(#path-1-inside-1_1_942)"/>
<mask id="path-3-inside-2_1_942" fill="white">
<path d="M0 22C0 15.3726 5.37258 10 12 10H264C270.627 10 276 15.3726 276 22V84H0V22Z"/>
</mask>
<path d="M0 10H276H0ZM276 85H0V83H276V85ZM0 84V10V84ZM276 10V84V10Z" fill="#3470FF" mask="url(#path-3-inside-2_1_942)"/>
<path fill-rule="evenodd" clip-rule="evenodd" d="M27.7071 26.2929C28.0976 26.6834 28.0976 27.3166 27.7071 27.7071L21.4142 34L27.7071 40.2929C28.0976 40.6834 28.0976 41.3166 27.7071 41.7071C27.3166 42.0976 26.6834 42.0976 26.2929 41.7071L19.2929 34.7071C18.9024 34.3166 18.9024 33.6834 19.2929 33.2929L26.2929 26.2929C26.6834 25.9024 27.3166 25.9024 27.7071 26.2929Z" fill="#3470FF"/>
<path d="M81.4915 39.5V27.8636H88.946V29.6307H83.5994V32.7898H88.4347V34.5568H83.5994V39.5H81.4915ZM93.9986 39.6705C93.1236 39.6705 92.3679 39.4886 91.7315 39.125C91.099 38.7576 90.6122 38.2386 90.2713 37.5682C89.9304 36.8939 89.7599 36.1004 89.7599 35.1875C89.7599 34.2898 89.9304 33.5019 90.2713 32.8239C90.616 32.142 91.0971 31.6117 91.7145 31.233C92.3319 30.8504 93.0573 30.6591 93.8906 30.6591C94.4285 30.6591 94.9361 30.7462 95.4134 30.9205C95.8944 31.0909 96.3187 31.3561 96.6861 31.7159C97.0573 32.0758 97.349 32.5341 97.5611 33.0909C97.7732 33.6439 97.8793 34.303 97.8793 35.0682V35.6989H90.7259V34.3125H95.9077C95.9039 33.9186 95.8187 33.5682 95.652 33.2614C95.4853 32.9508 95.2524 32.7064 94.9531 32.5284C94.6577 32.3504 94.313 32.2614 93.919 32.2614C93.4986 32.2614 93.1293 32.3636 92.8111 32.5682C92.4929 32.7689 92.2448 33.0341 92.0668 33.3636C91.8925 33.6894 91.8035 34.0473 91.7997 34.4375V35.6477C91.7997 36.1553 91.8925 36.5909 92.0781 36.9545C92.2637 37.3144 92.5232 37.5909 92.8565 37.7841C93.1899 37.9735 93.58 38.0682 94.027 38.0682C94.3262 38.0682 94.5971 38.0265 94.8395 37.9432C95.0819 37.8561 95.2921 37.7292 95.4702 37.5625C95.6482 37.3958 95.7827 37.1894 95.8736 36.9432L97.794 37.1591C97.6728 37.6667 97.4418 38.1098 97.1009 38.4886C96.7637 38.8636 96.3319 39.1553 95.8054 39.3636C95.2789 39.5682 94.6766 39.6705 93.9986 39.6705ZM99.7102 39.5V27.8636H101.767V32.2159H101.852C101.958 32.0038 102.108 31.7784 102.301 31.5398C102.494 31.2973 102.756 31.0909 103.085 30.9205C103.415 30.7462 103.835 30.6591 104.347 30.6591C105.021 30.6591 105.629 30.8314 106.17 31.1761C106.716 31.517 107.148 32.0227 107.466 32.6932C107.788 33.3598 107.949 34.178 107.949 35.1477C107.949 36.1061 107.792 36.9205 107.477 37.5909C107.163 38.2614 106.735 38.7727 106.193 39.125C105.652 39.4773 105.038 39.6534 104.352 39.6534C103.852 39.6534 103.438 39.5701 103.108 39.4034C102.778 39.2367 102.513 39.036 102.312 38.8011C102.116 38.5625 101.962 38.3371 101.852 38.125H101.733V39.5H99.7102ZM101.727 35.1364C101.727 35.7008 101.807 36.1951 101.966 36.6193C102.129 37.0436 102.362 37.375 102.665 37.6136C102.972 37.8485 103.343 37.9659 103.778 37.9659C104.233 37.9659 104.614 37.8447 104.92 37.6023C105.227 37.3561 105.458 37.0208 105.614 36.5966C105.773 36.1686 105.852 35.6818 105.852 35.1364C105.852 34.5947 105.775 34.1136 105.619 33.6932C105.464 33.2727 105.233 32.9432 104.926 32.7045C104.619 32.4659 104.237 32.3466 103.778 32.3466C103.339 32.3466 102.966 32.4621 102.659 32.6932C102.352 32.9242 102.119 33.2481 101.96 33.6648C101.805 34.0814 101.727 34.572 101.727 35.1364ZM109.697 39.5V30.7727H111.692V32.2273H111.783C111.942 31.7235 112.214 31.3352 112.601 31.0625C112.991 30.786 113.436 30.6477 113.936 30.6477C114.05 30.6477 114.177 30.6534 114.317 30.6648C114.461 30.6723 114.58 30.6856 114.675 30.7045V32.5966C114.588 32.5663 114.449 32.5398 114.26 32.517C114.074 32.4905 113.894 32.4773 113.72 32.4773C113.345 32.4773 113.008 32.5587 112.709 32.7216C112.413 32.8807 112.18 33.1023 112.01 33.3864C111.839 33.6705 111.754 33.9981 111.754 34.3693V39.5H109.697ZM121.604 35.8295V30.7727H123.661V39.5H121.666V37.9489H121.575C121.378 38.4375 121.054 38.8371 120.604 39.1477C120.157 39.4583 119.606 39.6136 118.95 39.6136C118.378 39.6136 117.873 39.4867 117.433 39.233C116.998 38.9754 116.657 38.6023 116.411 38.1136C116.164 37.6212 116.041 37.0265 116.041 36.3295V30.7727H118.098V36.0114C118.098 36.5644 118.25 37.0038 118.553 37.3295C118.856 37.6553 119.253 37.8182 119.746 37.8182C120.049 37.8182 120.342 37.7443 120.626 37.5966C120.911 37.4489 121.143 37.2292 121.325 36.9375C121.511 36.642 121.604 36.2727 121.604 35.8295ZM128.287 39.6761C127.734 39.6761 127.236 39.5777 126.793 39.3807C126.353 39.1799 126.005 38.8845 125.747 38.4943C125.493 38.1042 125.366 37.6231 125.366 37.0511C125.366 36.5587 125.457 36.1515 125.639 35.8295C125.821 35.5076 126.069 35.25 126.384 35.0568C126.698 34.8636 127.052 34.7178 127.446 34.6193C127.844 34.517 128.255 34.4432 128.679 34.3977C129.19 34.3447 129.605 34.2973 129.923 34.2557C130.241 34.2102 130.473 34.142 130.616 34.0511C130.764 33.9564 130.838 33.8106 130.838 33.6136V33.5795C130.838 33.1515 130.711 32.8201 130.457 32.5852C130.204 32.3504 129.838 32.233 129.361 32.233C128.857 32.233 128.457 32.3428 128.162 32.5625C127.87 32.7822 127.673 33.0417 127.571 33.3409L125.651 33.0682C125.802 32.5379 126.052 32.0947 126.401 31.7386C126.749 31.3788 127.175 31.1098 127.679 30.9318C128.183 30.75 128.74 30.6591 129.349 30.6591C129.77 30.6591 130.188 30.7083 130.605 30.8068C131.022 30.9053 131.402 31.0682 131.747 31.2955C132.092 31.5189 132.368 31.8239 132.577 32.2102C132.789 32.5966 132.895 33.0795 132.895 33.6591V39.5H130.918V38.3011H130.849C130.724 38.5436 130.548 38.7708 130.321 38.983C130.098 39.1913 129.815 39.3598 129.474 39.4886C129.137 39.6136 128.741 39.6761 128.287 39.6761ZM128.821 38.1648C129.234 38.1648 129.592 38.0833 129.895 37.9205C130.198 37.7538 130.431 37.5341 130.594 37.2614C130.76 36.9886 130.844 36.6913 130.844 36.3693V35.3409C130.779 35.3939 130.67 35.4432 130.514 35.4886C130.363 35.5341 130.192 35.5739 130.003 35.608C129.813 35.642 129.626 35.6723 129.44 35.6989C129.255 35.7254 129.094 35.7481 128.957 35.767C128.651 35.8087 128.376 35.8769 128.134 35.9716C127.891 36.0663 127.7 36.1989 127.56 36.3693C127.42 36.536 127.349 36.7519 127.349 37.017C127.349 37.3958 127.488 37.6818 127.764 37.875C128.041 38.0682 128.393 38.1648 128.821 38.1648ZM134.963 39.5V30.7727H136.957V32.2273H137.048C137.207 31.7235 137.48 31.3352 137.866 31.0625C138.257 30.786 138.702 30.6477 139.202 30.6477C139.315 30.6477 139.442 30.6534 139.582 30.6648C139.726 30.6723 139.846 30.6856 139.94 30.7045V32.5966C139.853 32.5663 139.715 32.5398 139.526 32.517C139.34 32.4905 139.16 32.4773 138.986 32.4773C138.611 32.4773 138.274 32.5587 137.974 32.7216C137.679 32.8807 137.446 33.1023 137.276 33.3864C137.105 33.6705 137.02 33.9981 137.02 34.3693V39.5H134.963ZM142.851 42.7727C142.571 42.7727 142.311 42.75 142.072 42.7045C141.838 42.6629 141.65 42.6136 141.51 42.5568L141.987 40.9545C142.286 41.0417 142.554 41.0833 142.788 41.0795C143.023 41.0758 143.23 41.0019 143.408 40.858C143.589 40.7178 143.743 40.483 143.868 40.1534L144.044 39.6818L140.879 30.7727H143.061L145.072 37.3636H145.163L147.18 30.7727H149.368L145.874 40.5568C145.711 41.0189 145.495 41.4148 145.226 41.7443C144.957 42.0777 144.627 42.3314 144.237 42.5057C143.851 42.6837 143.389 42.7727 142.851 42.7727ZM154.737 39.5V37.9773L158.777 34.017C159.163 33.6269 159.485 33.2803 159.743 32.9773C160 32.6742 160.194 32.3807 160.322 32.0966C160.451 31.8125 160.516 31.5095 160.516 31.1875C160.516 30.8201 160.432 30.5057 160.266 30.2443C160.099 29.9792 159.87 29.7746 159.578 29.6307C159.286 29.4867 158.955 29.4148 158.584 29.4148C158.201 29.4148 157.866 29.4943 157.578 29.6534C157.29 29.8087 157.067 30.0303 156.908 30.3182C156.752 30.6061 156.675 30.9489 156.675 31.3466H154.669C154.669 30.608 154.838 29.9659 155.175 29.4205C155.512 28.875 155.976 28.4527 156.567 28.1534C157.161 27.8542 157.843 27.7045 158.612 27.7045C159.393 27.7045 160.078 27.8504 160.669 28.142C161.26 28.4337 161.718 28.8333 162.044 29.3409C162.374 29.8485 162.538 30.428 162.538 31.0795C162.538 31.5152 162.455 31.9432 162.288 32.3636C162.122 32.7841 161.828 33.25 161.408 33.7614C160.991 34.2727 160.406 34.892 159.652 35.6193L157.646 37.6591V37.7386H162.714V39.5H154.737ZM168.976 39.7216C168.04 39.7216 167.237 39.4848 166.567 39.0114C165.9 38.5341 165.387 37.8466 165.027 36.9489C164.671 36.0473 164.493 34.9621 164.493 33.6932C164.497 32.4242 164.677 31.3447 165.033 30.4545C165.393 29.5606 165.906 28.8788 166.572 28.4091C167.243 27.9394 168.044 27.7045 168.976 27.7045C169.908 27.7045 170.709 27.9394 171.379 28.4091C172.05 28.8788 172.563 29.5606 172.919 30.4545C173.279 31.3485 173.459 32.428 173.459 33.6932C173.459 34.9659 173.279 36.053 172.919 36.9545C172.563 37.8523 172.05 38.5379 171.379 39.0114C170.713 39.4848 169.911 39.7216 168.976 39.7216ZM168.976 37.9432C169.703 37.9432 170.277 37.5852 170.697 36.8693C171.122 36.1496 171.334 35.0909 171.334 33.6932C171.334 32.7689 171.237 31.9924 171.044 31.3636C170.851 30.7348 170.578 30.2614 170.226 29.9432C169.874 29.6212 169.457 29.4602 168.976 29.4602C168.252 29.4602 167.68 29.8201 167.26 30.5398C166.839 31.2557 166.627 32.3068 166.624 33.6932C166.62 34.6212 166.713 35.4015 166.902 36.0341C167.095 36.6667 167.368 37.1439 167.72 37.4659C168.072 37.7841 168.491 37.9432 168.976 37.9432ZM175.347 39.5V37.9773L179.386 34.017C179.773 33.6269 180.095 33.2803 180.352 32.9773C180.61 32.6742 180.803 32.3807 180.932 32.0966C181.061 31.8125 181.125 31.5095 181.125 31.1875C181.125 30.8201 181.042 30.5057 180.875 30.2443C180.708 29.9792 180.479 29.7746 180.188 29.6307C179.896 29.4867 179.564 29.4148 179.193 29.4148C178.811 29.4148 178.475 29.4943 178.188 29.6534C177.9 29.8087 177.676 30.0303 177.517 30.3182C177.362 30.6061 177.284 30.9489 177.284 31.3466H175.278C175.278 30.608 175.447 29.9659 175.784 29.4205C176.121 28.875 176.585 28.4527 177.176 28.1534C177.771 27.8542 178.453 27.7045 179.222 27.7045C180.002 27.7045 180.688 27.8504 181.278 28.142C181.869 28.4337 182.328 28.8333 182.653 29.3409C182.983 29.8485 183.148 30.428 183.148 31.0795C183.148 31.5152 183.064 31.9432 182.898 32.3636C182.731 32.7841 182.438 33.25 182.017 33.7614C181.6 34.2727 181.015 34.892 180.261 35.6193L178.256 37.6591V37.7386H183.324V39.5H175.347ZM184.824 37.3409V35.6648L189.761 27.8636H191.159V30.25H190.307L186.983 35.517V35.608H193.875V37.3409H184.824ZM190.375 39.5V36.8295L190.398 36.0795V27.8636H192.386V39.5H190.375Z" fill="#101828"/>
<path fill-rule="evenodd" clip-rule="evenodd" d="M247.293 41.7071C246.902 41.3166 246.902 40.6834 247.293 40.2929L253.586 34L247.293 27.7071C246.902 27.3166 246.902 26.6834 247.293 26.2929C247.683 25.9024 248.317 25.9024 248.707 26.2929L255.707 33.2929C256.098 33.6834 256.098 34.3166 255.707 34.7071L248.707 41.7071C248.317 42.0976 247.683 42.0976 247.293 41.7071Z" fill="#3470FF"/>
<path d="M16.3295 60.2727H18.2642L20.8551 66.5966H20.9574L23.5483 60.2727H25.483V69H23.9659V63.0043H23.8849L21.473 68.9744H20.3395L17.9276 62.9915H17.8466V69H16.3295V60.2727ZM35.0028 64.6364C35.0028 65.5767 34.8267 66.3821 34.4744 67.0526C34.125 67.7202 33.6477 68.2315 33.0426 68.5866C32.4403 68.9418 31.7571 69.1193 30.9929 69.1193C30.2287 69.1193 29.544 68.9418 28.9389 68.5866C28.3366 68.2287 27.8594 67.7159 27.5071 67.0483C27.1577 66.3778 26.983 65.5739 26.983 64.6364C26.983 63.696 27.1577 62.892 27.5071 62.2244C27.8594 61.554 28.3366 61.0412 28.9389 60.6861C29.544 60.331 30.2287 60.1534 30.9929 60.1534C31.7571 60.1534 32.4403 60.331 33.0426 60.6861C33.6477 61.0412 34.125 61.554 34.4744 62.2244C34.8267 62.892 35.0028 63.696 35.0028 64.6364ZM33.4134 64.6364C33.4134 63.9744 33.3097 63.4162 33.1023 62.9616C32.8977 62.5043 32.6136 62.1591 32.25 61.9261C31.8864 61.6903 31.4673 61.5724 30.9929 61.5724C30.5185 61.5724 30.0994 61.6903 29.7358 61.9261C29.3722 62.1591 29.0866 62.5043 28.8793 62.9616C28.6747 63.4162 28.5724 63.9744 28.5724 64.6364C28.5724 65.2983 28.6747 65.858 28.8793 66.3153C29.0866 66.7699 29.3722 67.1151 29.7358 67.3509C30.0994 67.5838 30.5185 67.7003 30.9929 67.7003C31.4673 67.7003 31.8864 67.5838 32.25 67.3509C32.6136 67.1151 32.8977 66.7699 33.1023 66.3153C33.3097 65.858 33.4134 65.2983 33.4134 64.6364ZM43.6694 60.2727V69H42.2631L38.1509 63.0554H38.0785V69H36.4975V60.2727H37.9123L42.0202 66.2216H42.0969V60.2727H43.6694Z" fill="#8D929A"/>
<path d="M54.4714 61.598V60.2727H61.4345V61.598H58.737V69H57.1689V61.598H54.4714ZM68.2782 60.2727H69.8592V65.9744C69.8592 66.5994 69.7115 67.1491 69.416 67.6236C69.1234 68.098 68.7115 68.4687 68.1802 68.7358C67.649 69 67.0282 69.1321 66.318 69.1321C65.6049 69.1321 64.9828 69 64.4515 68.7358C63.9203 68.4687 63.5083 68.098 63.2157 67.6236C62.9231 67.1491 62.7768 66.5994 62.7768 65.9744V60.2727H64.3578V65.8423C64.3578 66.206 64.4373 66.5298 64.5964 66.8139C64.7583 67.098 64.9856 67.321 65.2782 67.483C65.5708 67.642 65.9174 67.7216 66.318 67.7216C66.7186 67.7216 67.0652 67.642 67.3578 67.483C67.6532 67.321 67.8805 67.098 68.0396 66.8139C68.1987 66.5298 68.2782 66.206 68.2782 65.8423V60.2727ZM71.5776 69V60.2727H77.2537V61.598H73.1586V63.9673H76.9597V65.2926H73.1586V67.6747H77.2878V69H71.5776Z" fill="#8D929A"/>
<path d="M90.6642 69L88.2012 60.2727H89.9015L91.4739 66.6861H91.5549L93.2338 60.2727H94.7807L96.464 66.6903H96.5407L98.1131 60.2727H99.8134L97.3503 69H95.7907L94.0435 62.8764H93.9753L92.2239 69H90.6642ZM100.91 69V60.2727H106.586V61.598H102.491V63.9673H106.292V65.2926H102.491V67.6747H106.62V69H100.91ZM111.156 69H108.199V60.2727H111.216C112.082 60.2727 112.827 60.4474 113.449 60.7969C114.074 61.1435 114.554 61.642 114.889 62.2926C115.224 62.9432 115.392 63.7216 115.392 64.6278C115.392 65.5369 115.223 66.3182 114.885 66.9716C114.55 67.625 114.065 68.1264 113.432 68.4759C112.801 68.8253 112.042 69 111.156 69ZM109.78 67.6321H111.079C111.687 67.6321 112.194 67.5213 112.601 67.2997C113.007 67.0753 113.312 66.7415 113.517 66.2983C113.721 65.8523 113.824 65.2955 113.824 64.6278C113.824 63.9602 113.721 63.4062 113.517 62.9659C113.312 62.5227 113.01 62.1918 112.609 61.973C112.211 61.7514 111.717 61.6406 111.126 61.6406H109.78V67.6321Z" fill="#8D929A"/>
<path d="M125.651 61.598V60.2727H132.614V61.598H129.917V69H128.349V61.598H125.651ZM133.956 69V60.2727H135.537V63.9673H139.581V60.2727H141.167V69H139.581V65.2926H135.537V69H133.956ZM148.388 60.2727H149.969V65.9744C149.969 66.5994 149.821 67.1491 149.525 67.6236C149.233 68.098 148.821 68.4687 148.29 68.7358C147.758 69 147.138 69.1321 146.427 69.1321C145.714 69.1321 145.092 69 144.561 68.7358C144.03 68.4687 143.618 68.098 143.325 67.6236C143.032 67.1491 142.886 66.5994 142.886 65.9744V60.2727H144.467V65.8423C144.467 66.206 144.547 66.5298 144.706 66.8139C144.868 67.098 145.095 67.321 145.388 67.483C145.68 67.642 146.027 67.7216 146.427 67.7216C146.828 67.7216 147.175 67.642 147.467 67.483C147.763 67.321 147.99 67.098 148.149 66.8139C148.308 66.5298 148.388 66.206 148.388 65.8423V60.2727Z" fill="#8D929A"/>
<path d="M165.796 69V60.2727H171.387V61.598H167.377V63.9673H171.004V65.2926H167.377V69H165.796ZM172.828 69V60.2727H176.1C176.771 60.2727 177.333 60.3892 177.788 60.6222C178.245 60.8551 178.59 61.1818 178.823 61.6023C179.059 62.0199 179.177 62.5071 179.177 63.0639C179.177 63.6236 179.058 64.1094 178.819 64.5213C178.583 64.9304 178.235 65.2472 177.775 65.4716C177.315 65.6932 176.749 65.804 176.079 65.804H173.748V64.4915H175.866C176.258 64.4915 176.579 64.4375 176.829 64.3295C177.079 64.2187 177.264 64.0582 177.383 63.848C177.505 63.6349 177.566 63.3736 177.566 63.0639C177.566 62.7543 177.505 62.4901 177.383 62.2713C177.261 62.0497 177.075 61.8821 176.825 61.7685C176.575 61.652 176.252 61.5938 175.857 61.5938H174.409V69H172.828ZM177.336 65.0455L179.497 69H177.732L175.61 65.0455H177.336ZM182.213 60.2727V69H180.632V60.2727H182.213Z" fill="#8D929A"/>
<path d="M204.002 62.6719C203.962 62.2997 203.795 62.0099 203.499 61.8026C203.207 61.5952 202.826 61.4915 202.357 61.4915C202.028 61.4915 201.745 61.5412 201.509 61.6406C201.273 61.7401 201.093 61.875 200.968 62.0455C200.843 62.2159 200.779 62.4105 200.776 62.6293C200.776 62.8111 200.817 62.9687 200.9 63.1023C200.985 63.2358 201.1 63.3494 201.245 63.4432C201.39 63.5341 201.55 63.6108 201.727 63.6733C201.903 63.7358 202.08 63.7884 202.259 63.831L203.077 64.0355C203.407 64.1122 203.724 64.2159 204.028 64.3466C204.335 64.4773 204.609 64.642 204.85 64.8409C205.094 65.0398 205.288 65.2798 205.43 65.5611C205.572 65.8423 205.643 66.1719 205.643 66.5497C205.643 67.0611 205.512 67.5114 205.251 67.9006C204.989 68.2869 204.612 68.5895 204.117 68.8082C203.626 69.0241 203.031 69.1321 202.332 69.1321C201.653 69.1321 201.063 69.027 200.563 68.8168C200.066 68.6065 199.677 68.2997 199.396 67.8963C199.117 67.4929 198.967 67.0014 198.944 66.4219H200.499C200.522 66.7259 200.616 66.9787 200.781 67.1804C200.945 67.3821 201.16 67.5327 201.424 67.6321C201.691 67.7315 201.989 67.7812 202.319 67.7812C202.663 67.7812 202.964 67.7301 203.222 67.6278C203.484 67.5227 203.688 67.3778 203.836 67.1932C203.984 67.0057 204.059 66.7869 204.062 66.5369C204.059 66.3097 203.992 66.1222 203.862 65.9744C203.731 65.8239 203.548 65.6989 203.312 65.5994C203.079 65.4972 202.806 65.4062 202.494 65.3267L201.501 65.071C200.782 64.8864 200.214 64.6065 199.796 64.2315C199.381 63.8537 199.174 63.3523 199.174 62.7273C199.174 62.2131 199.313 61.7628 199.592 61.3764C199.873 60.9901 200.255 60.6903 200.738 60.4773C201.221 60.2614 201.768 60.1534 202.379 60.1534C202.998 60.1534 203.54 60.2614 204.006 60.4773C204.475 60.6903 204.843 60.9872 205.11 61.3679C205.377 61.7457 205.515 62.1804 205.523 62.6719H204.002ZM208.032 69H206.345L209.417 60.2727H211.369L214.446 69H212.758L210.427 62.0625H210.359L208.032 69ZM208.088 65.5781H212.69V66.848H208.088V65.5781ZM214.157 61.598V60.2727H221.12V61.598H218.423V69H216.854V61.598H214.157Z" fill="#8D929A"/>
<path d="M238.86 62.6719C238.82 62.2997 238.652 62.0099 238.357 61.8026C238.064 61.5952 237.683 61.4915 237.215 61.4915C236.885 61.4915 236.602 61.5412 236.367 61.6406C236.131 61.7401 235.95 61.875 235.825 62.0455C235.7 62.2159 235.637 62.4105 235.634 62.6293C235.634 62.8111 235.675 62.9687 235.757 63.1023C235.843 63.2358 235.958 63.3494 236.102 63.4432C236.247 63.5341 236.408 63.6108 236.584 63.6733C236.76 63.7358 236.938 63.7884 237.117 63.831L237.935 64.0355C238.264 64.1122 238.581 64.2159 238.885 64.3466C239.192 64.4773 239.466 64.642 239.708 64.8409C239.952 65.0398 240.145 65.2798 240.287 65.5611C240.429 65.8423 240.5 66.1719 240.5 66.5497C240.5 67.0611 240.369 67.5114 240.108 67.9006C239.847 68.2869 239.469 68.5895 238.975 68.8082C238.483 69.0241 237.888 69.1321 237.189 69.1321C236.51 69.1321 235.921 69.027 235.421 68.8168C234.923 68.6065 234.534 68.2997 234.253 67.8963C233.975 67.4929 233.824 67.0014 233.801 66.4219H235.357C235.379 66.7259 235.473 66.9787 235.638 67.1804C235.803 67.3821 236.017 67.5327 236.281 67.6321C236.548 67.7315 236.847 67.7812 237.176 67.7812C237.52 67.7812 237.821 67.7301 238.08 67.6278C238.341 67.5227 238.546 67.3778 238.693 67.1932C238.841 67.0057 238.916 66.7869 238.919 66.5369C238.916 66.3097 238.85 66.1222 238.719 65.9744C238.588 65.8239 238.405 65.6989 238.169 65.5994C237.936 65.4972 237.664 65.4062 237.351 65.3267L236.358 65.071C235.639 64.8864 235.071 64.6065 234.654 64.2315C234.239 63.8537 234.031 63.3523 234.031 62.7273C234.031 62.2131 234.171 61.7628 234.449 61.3764C234.73 60.9901 235.112 60.6903 235.595 60.4773C236.078 60.2614 236.625 60.1534 237.236 60.1534C237.855 60.1534 238.398 60.2614 238.864 60.4773C239.333 60.6903 239.7 60.9872 239.968 61.3679C240.235 61.7457 240.372 62.1804 240.381 62.6719H238.86ZM247.411 60.2727H248.992V65.9744C248.992 66.5994 248.844 67.1491 248.549 67.6236C248.256 68.098 247.844 68.4687 247.313 68.7358C246.782 69 246.161 69.1321 245.451 69.1321C244.738 69.1321 244.116 69 243.584 68.7358C243.053 68.4687 242.641 68.098 242.349 67.6236C242.056 67.1491 241.91 66.5994 241.91 65.9744V60.2727H243.491V65.8423C243.491 66.206 243.57 66.5298 243.729 66.8139C243.891 67.098 244.118 67.321 244.411 67.483C244.704 67.642 245.05 67.7216 245.451 67.7216C245.851 67.7216 246.198 67.642 246.491 67.483C246.786 67.321 247.013 67.098 247.172 66.8139C247.331 66.5298 247.411 66.206 247.411 65.8423V60.2727ZM257.882 60.2727V69H256.476L252.364 63.0554H252.291V69H250.71V60.2727H252.125L256.233 66.2216H256.31V60.2727H257.882Z" fill="#8D929A"/>
<g clip-path="url(#clip0_1_942)">
<rect width="36" height="32" transform="translate(12 96)" fill="white"/>
<path d="M21.9475 117V116.105L25.3083 112.426C25.7027 111.995 26.0276 111.621 26.2828 111.303C26.538 110.981 26.7269 110.679 26.8495 110.398C26.9755 110.113 27.0384 109.814 27.0384 109.503C27.0384 109.145 26.9523 108.835 26.7799 108.573C26.6109 108.311 26.3789 108.109 26.0839 107.967C25.7889 107.824 25.4575 107.753 25.0896 107.753C24.6985 107.753 24.3571 107.834 24.0654 107.996C23.7771 108.156 23.5534 108.379 23.3943 108.668C23.2385 108.956 23.1606 109.294 23.1606 109.682H21.9873C21.9873 109.085 22.1249 108.562 22.3999 108.111C22.675 107.66 23.0496 107.309 23.5235 107.057C24.0008 106.805 24.5361 106.679 25.1294 106.679C25.7259 106.679 26.2546 106.805 26.7153 107.057C27.176 107.309 27.5373 107.648 27.7991 108.076C28.0609 108.504 28.1919 108.979 28.1919 109.503C28.1919 109.877 28.1239 110.244 27.988 110.602C27.8554 110.956 27.6234 111.352 27.292 111.79C26.9639 112.224 26.5081 112.754 25.9248 113.381L23.6379 115.827V115.906H28.3708V117H21.9475ZM33.6656 106.679C34.0832 106.682 34.5008 106.762 34.9184 106.918C35.336 107.073 35.7172 107.332 36.0619 107.693C36.4066 108.051 36.6833 108.54 36.8921 109.16C37.1009 109.78 37.2053 110.557 37.2053 111.491C37.2053 112.396 37.1192 113.2 36.9468 113.903C36.7778 114.602 36.5325 115.192 36.211 115.673C35.8928 116.153 35.5051 116.518 35.0477 116.766C34.5936 117.015 34.0799 117.139 33.5065 117.139C32.9364 117.139 32.4276 117.027 31.9802 116.801C31.5361 116.572 31.1715 116.256 30.8865 115.852C30.6047 115.444 30.4241 114.972 30.3445 114.435H31.5576C31.667 114.902 31.8841 115.288 32.2089 115.593C32.537 115.895 32.9695 116.045 33.5065 116.045C34.292 116.045 34.9118 115.702 35.3659 115.016C35.8232 114.33 36.0519 113.361 36.0519 112.108H35.9724C35.7868 112.386 35.5664 112.627 35.3112 112.829C35.056 113.031 34.7726 113.187 34.461 113.296C34.1495 113.406 33.818 113.46 33.4667 113.46C32.8834 113.46 32.3481 113.316 31.8609 113.028C31.377 112.736 30.9892 112.337 30.6975 111.83C30.4092 111.319 30.265 110.736 30.265 110.08C30.265 109.456 30.4042 108.886 30.6826 108.369C30.9643 107.849 31.3588 107.435 31.8659 107.126C32.3763 106.818 32.9762 106.669 33.6656 106.679ZM33.6656 107.773C33.248 107.773 32.8718 107.877 32.537 108.086C32.2056 108.291 31.9421 108.57 31.7465 108.921C31.5543 109.269 31.4582 109.655 31.4582 110.08C31.4582 110.504 31.551 110.89 31.7366 111.238C31.9255 111.583 32.1824 111.858 32.5072 112.063C32.8353 112.265 33.2082 112.366 33.6258 112.366C33.9407 112.366 34.234 112.305 34.5058 112.183C34.7776 112.057 35.0145 111.886 35.2167 111.67C35.4222 111.452 35.5829 111.205 35.699 110.93C35.815 110.651 35.873 110.361 35.873 110.06C35.873 109.662 35.7768 109.289 35.5846 108.941C35.3957 108.593 35.1338 108.311 34.7991 108.096C34.4677 107.88 34.0898 107.773 33.6656 107.773Z" fill="#8D929A"/>
</g>
<g clip-path="url(#clip1_1_942)">
<rect width="36" height="32" transform="translate(48 96)" fill="white"/>
<path d="M61.1623 117.139C60.506 117.139 59.921 117.027 59.4073 116.801C58.8969 116.576 58.4909 116.263 58.1893 115.862C57.891 115.457 57.7286 114.988 57.7021 114.455H58.9549C58.9814 114.783 59.0941 115.066 59.293 115.305C59.4918 115.54 59.752 115.722 60.0735 115.852C60.395 115.981 60.7513 116.045 61.1424 116.045C61.5799 116.045 61.9677 115.969 62.3058 115.817C62.6438 115.664 62.909 115.452 63.1012 115.18C63.2934 114.909 63.3896 114.594 63.3896 114.236C63.3896 113.861 63.2968 113.531 63.1112 113.246C62.9255 112.958 62.6538 112.733 62.2958 112.57C61.9379 112.408 61.5004 112.327 60.9833 112.327H60.168V111.233H60.9833C61.3877 111.233 61.7423 111.16 62.0472 111.014C62.3555 110.868 62.5958 110.663 62.7681 110.398C62.9438 110.133 63.0316 109.821 63.0316 109.463C63.0316 109.118 62.9554 108.818 62.8029 108.563C62.6504 108.308 62.435 108.109 62.1566 107.967C61.8815 107.824 61.5567 107.753 61.1822 107.753C60.8308 107.753 60.4994 107.817 60.1879 107.947C59.8796 108.073 59.6277 108.257 59.4322 108.499C59.2366 108.737 59.1306 109.026 59.114 109.364H57.9208C57.9407 108.83 58.1014 108.363 58.4031 107.962C58.7047 107.557 59.0991 107.242 59.5863 107.017C60.0768 106.792 60.6154 106.679 61.2021 106.679C61.8318 106.679 62.372 106.807 62.8228 107.062C63.2736 107.314 63.6199 107.647 63.8619 108.061C64.1038 108.475 64.2248 108.923 64.2248 109.403C64.2248 109.977 64.074 110.466 63.7724 110.87C63.4741 111.274 63.0681 111.554 62.5543 111.71V111.79C63.1973 111.896 63.6995 112.169 64.0607 112.61C64.422 113.048 64.6026 113.589 64.6026 114.236C64.6026 114.789 64.4518 115.286 64.1502 115.727C63.8519 116.165 63.4442 116.509 62.9272 116.761C62.4102 117.013 61.8219 117.139 61.1623 117.139ZM69.957 117.139C69.208 117.139 68.57 116.935 68.043 116.528C67.516 116.117 67.1133 115.522 66.8349 114.743C66.5565 113.961 66.4173 113.016 66.4173 111.909C66.4173 110.809 66.5565 109.869 66.8349 109.09C67.1166 108.308 67.521 107.711 68.0479 107.3C68.5782 106.886 69.2146 106.679 69.957 106.679C70.6995 106.679 71.3342 106.886 71.8612 107.3C72.3915 107.711 72.7958 108.308 73.0742 109.09C73.3559 109.869 73.4968 110.809 73.4968 111.909C73.4968 113.016 73.3576 113.961 73.0792 114.743C72.8008 115.522 72.3981 116.117 71.8711 116.528C71.3441 116.935 70.7061 117.139 69.957 117.139ZM69.957 116.045C70.6995 116.045 71.2762 115.687 71.6871 114.972C72.0981 114.256 72.3036 113.235 72.3036 111.909C72.3036 111.027 72.2092 110.277 72.0202 109.657C71.8346 109.037 71.5662 108.565 71.2148 108.24C70.8668 107.915 70.4476 107.753 69.957 107.753C69.2212 107.753 68.6462 108.116 68.2319 108.842C67.8176 109.564 67.6104 110.587 67.6104 111.909C67.6104 112.791 67.7032 113.54 67.8888 114.156C68.0745 114.773 68.3413 115.242 68.6893 115.563C69.0406 115.885 69.4632 116.045 69.957 116.045Z" fill="#8D929A"/>
</g>
<g clip-path="url(#clip2_1_942)">
<rect width="36" height="32" transform="translate(84 96)" fill="white"/>
<path d="M98.2834 117.139C97.6271 117.139 97.0421 117.027 96.5284 116.801C96.018 116.576 95.612 116.263 95.3104 115.862C95.0121 115.457 94.8497 114.988 94.8232 114.455H96.076C96.1025 114.783 96.2152 115.066 96.4141 115.305C96.6129 115.54 96.8731 115.722 97.1946 115.852C97.5161 115.981 97.8724 116.045 98.2635 116.045C98.701 116.045 99.0888 115.969 99.4268 115.817C99.7649 115.664 100.03 115.452 100.222 115.18C100.415 114.909 100.511 114.594 100.511 114.236C100.511 113.861 100.418 113.531 100.232 113.246C100.047 112.958 99.7749 112.733 99.4169 112.57C99.0589 112.408 98.6214 112.327 98.1044 112.327H97.2891V111.233H98.1044C98.5088 111.233 98.8634 111.16 99.1683 111.014C99.4766 110.868 99.7169 110.663 99.8892 110.398C100.065 110.133 100.153 109.821 100.153 109.463C100.153 109.118 100.076 108.818 99.924 108.563C99.7715 108.308 99.5561 108.109 99.2777 107.967C99.0026 107.824 98.6778 107.753 98.3033 107.753C97.9519 107.753 97.6205 107.817 97.3089 107.947C97.0007 108.073 96.7488 108.257 96.5533 108.499C96.3577 108.737 96.2517 109.026 96.2351 109.364H95.0419C95.0618 108.83 95.2225 108.363 95.5241 107.962C95.8258 107.557 96.2202 107.242 96.7074 107.017C97.1979 106.792 97.7365 106.679 98.3232 106.679C98.9529 106.679 99.4931 106.807 99.9439 107.062C100.395 107.314 100.741 107.647 100.983 108.061C101.225 108.475 101.346 108.923 101.346 109.403C101.346 109.977 101.195 110.466 100.893 110.87C100.595 111.274 100.189 111.554 99.6754 111.71V111.79C100.318 111.896 100.821 112.169 101.182 112.61C101.543 113.048 101.724 113.589 101.724 114.236C101.724 114.789 101.573 115.286 101.271 115.727C100.973 116.165 100.565 116.509 100.048 116.761C99.5313 117.013 98.9429 117.139 98.2834 117.139ZM107.337 106.818V117H106.104V108.111H106.044L103.558 109.761V108.509L106.104 106.818H107.337Z" fill="#8D929A"/>
</g>
<g clip-path="url(#clip3_1_942)">
<rect width="36" height="32" transform="translate(120 96)" fill="white"/>
<path d="M138.88 106.818V117H137.647V108.111H137.587L135.101 109.761V108.509L137.647 106.818H138.88Z" fill="#101828"/>
</g>
<g clip-path="url(#clip4_1_942)">
<rect width="36" height="32" transform="translate(156 96)" fill="white"/>
<path d="M170.316 117V116.105L173.676 112.426C174.071 111.995 174.396 111.621 174.651 111.303C174.906 110.981 175.095 110.679 175.218 110.398C175.344 110.113 175.407 109.814 175.407 109.503C175.407 109.145 175.32 108.835 175.148 108.573C174.979 108.311 174.747 108.109 174.452 107.967C174.157 107.824 173.826 107.753 173.458 107.753C173.067 107.753 172.725 107.834 172.434 107.996C172.145 108.156 171.922 108.379 171.762 108.668C171.607 108.956 171.529 109.294 171.529 109.682H170.355C170.355 109.085 170.493 108.562 170.768 108.111C171.043 107.66 171.418 107.309 171.892 107.057C172.369 106.805 172.904 106.679 173.498 106.679C174.094 106.679 174.623 106.805 175.083 107.057C175.544 107.309 175.905 107.648 176.167 108.076C176.429 108.504 176.56 108.979 176.56 109.503C176.56 109.877 176.492 110.244 176.356 110.602C176.224 110.956 175.992 111.352 175.66 111.79C175.332 112.224 174.876 112.754 174.293 113.381L172.006 115.827V115.906H176.739V117H170.316Z" fill="#101828"/>
</g>
<g clip-path="url(#clip5_1_942)">
<rect width="36" height="32" transform="translate(192 96)" fill="white"/>
<path d="M209.537 117.139C208.881 117.139 208.296 117.027 207.782 116.801C207.272 116.576 206.866 116.263 206.564 115.862C206.266 115.457 206.104 114.988 206.077 114.455H207.33C207.356 114.783 207.469 115.066 207.668 115.305C207.867 115.54 208.127 115.722 208.449 115.852C208.77 115.981 209.126 116.045 209.517 116.045C209.955 116.045 210.343 115.969 210.681 115.817C211.019 115.664 211.284 115.452 211.476 115.18C211.668 114.909 211.765 114.594 211.765 114.236C211.765 113.861 211.672 113.531 211.486 113.246C211.301 112.958 211.029 112.733 210.671 112.57C210.313 112.408 209.875 112.327 209.358 112.327H208.543V111.233H209.358C209.763 111.233 210.117 111.16 210.422 111.014C210.73 110.868 210.971 110.663 211.143 110.398C211.319 110.133 211.407 109.821 211.407 109.463C211.407 109.118 211.33 108.818 211.178 108.563C211.025 108.308 210.81 108.109 210.532 107.967C210.257 107.824 209.932 107.753 209.557 107.753C209.206 107.753 208.874 107.817 208.563 107.947C208.255 108.073 208.003 108.257 207.807 108.499C207.612 108.737 207.506 109.026 207.489 109.364H206.296C206.316 108.83 206.476 108.363 206.778 107.962C207.08 107.557 207.474 107.242 207.961 107.017C208.452 106.792 208.99 106.679 209.577 106.679C210.207 106.679 210.747 106.807 211.198 107.062C211.649 107.314 211.995 107.647 212.237 108.061C212.479 108.475 212.6 108.923 212.6 109.403C212.6 109.977 212.449 110.466 212.147 110.87C211.849 111.274 211.443 111.554 210.929 111.71V111.79C211.572 111.896 212.074 112.169 212.436 112.61C212.797 113.048 212.978 113.589 212.978 114.236C212.978 114.789 212.827 115.286 212.525 115.727C212.227 116.165 211.819 116.509 211.302 116.761C210.785 117.013 210.197 117.139 209.537 117.139Z" fill="#101828"/>
</g>
<g clip-path="url(#clip6_1_942)">
<rect width="36" height="32" transform="translate(228 96)" fill="white"/>
<path d="M241.824 114.912V113.898L246.299 106.818H247.034V108.389H246.537L243.157 113.739V113.818H249.182V114.912H241.824ZM246.617 117V114.604V114.131V106.818H247.79V117H246.617Z" fill="#101828"/>
</g>
<g clip-path="url(#clip7_1_942)">
<rect width="36" height="32" transform="translate(12 132)" fill="white"/>
<path d="M29.477 153.139C28.8937 153.139 28.3683 153.023 27.901 152.791C27.4337 152.559 27.0592 152.241 26.7774 151.837C26.4957 151.432 26.3416 150.972 26.3151 150.455H27.5083C27.5547 150.915 27.7635 151.296 28.1347 151.598C28.5092 151.896 28.9566 152.045 29.477 152.045C29.8946 152.045 30.2658 151.948 30.5906 151.752C30.9188 151.557 31.1756 151.288 31.3612 150.947C31.5502 150.602 31.6446 150.213 31.6446 149.778C31.6446 149.334 31.5468 148.938 31.3513 148.59C31.1591 148.239 30.8939 147.962 30.5558 147.76C30.2178 147.558 29.8316 147.455 29.3975 147.452C29.0859 147.448 28.7661 147.496 28.4379 147.596C28.1098 147.692 27.8397 147.816 27.6276 147.969L26.4742 147.83L27.0906 142.818H32.3804V143.912H28.1247L27.7668 146.915H27.8264C28.0352 146.749 28.2971 146.612 28.6119 146.502C28.9268 146.393 29.2549 146.338 29.5963 146.338C30.2194 146.338 30.7746 146.487 31.2618 146.786C31.7523 147.08 32.1368 147.485 32.4152 147.999C32.6969 148.512 32.8378 149.099 32.8378 149.759C32.8378 150.408 32.692 150.988 32.4003 151.499C32.1119 152.006 31.7142 152.407 31.2071 152.702C30.7 152.993 30.1233 153.139 29.477 153.139Z" fill="#101828"/>
</g>
<g clip-path="url(#clip8_1_942)">
<rect width="36" height="32" transform="translate(48 132)" fill="white"/>
<path d="M65.5665 153.139C65.1489 153.133 64.7313 153.053 64.3137 152.901C63.896 152.748 63.5149 152.491 63.1702 152.13C62.8255 151.765 62.5487 151.273 62.3399 150.653C62.1311 150.03 62.0267 149.248 62.0267 148.307C62.0267 147.405 62.1112 146.607 62.2803 145.911C62.4493 145.211 62.6946 144.623 63.0161 144.146C63.3376 143.665 63.7253 143.3 64.1794 143.052C64.6368 142.803 65.1522 142.679 65.7256 142.679C66.2957 142.679 66.8028 142.793 67.2469 143.022C67.6943 143.247 68.0589 143.562 68.3406 143.967C68.6224 144.371 68.8047 144.837 68.8875 145.364H67.6744C67.5618 144.906 67.343 144.527 67.0182 144.225C66.6934 143.924 66.2625 143.773 65.7256 143.773C64.9368 143.773 64.3153 144.116 63.8612 144.802C63.4105 145.488 63.1834 146.451 63.1801 147.69H63.2597C63.4453 147.409 63.6657 147.168 63.9209 146.969C64.1794 146.767 64.4645 146.612 64.776 146.502C65.0876 146.393 65.4173 146.338 65.7654 146.338C66.3487 146.338 66.8823 146.484 67.3662 146.776C67.8501 147.064 68.2379 147.463 68.5296 147.974C68.8212 148.481 68.9671 149.062 68.9671 149.719C68.9671 150.348 68.8262 150.925 68.5445 151.449C68.2628 151.969 67.8667 152.384 67.3563 152.692C66.8492 152.997 66.2526 153.146 65.5665 153.139ZM65.5665 152.045C65.9841 152.045 66.3586 151.941 66.6901 151.732C67.0248 151.523 67.2883 151.243 67.4806 150.892C67.6761 150.541 67.7739 150.15 67.7739 149.719C67.7739 149.298 67.6794 148.915 67.4905 148.57C67.3049 148.222 67.048 147.946 66.7199 147.74C66.3951 147.535 66.0239 147.432 65.6063 147.432C65.2914 147.432 64.9981 147.495 64.7263 147.621C64.4545 147.743 64.2159 147.912 64.0104 148.128C63.8082 148.343 63.6491 148.59 63.5331 148.869C63.4171 149.144 63.3591 149.434 63.3591 149.739C63.3591 150.143 63.4536 150.521 63.6425 150.872C63.8347 151.223 64.0966 151.507 64.428 151.722C64.7628 151.938 65.1423 152.045 65.5665 152.045Z" fill="#101828"/>
</g>
<g clip-path="url(#clip9_1_942)">
<rect x="84" y="132" width="36" height="32" rx="16" fill="#3470FF"/>
<path d="M98.8731 153L103.427 143.991V143.912H98.1771V142.818H104.7V143.972L100.166 153H98.8731Z" fill="#F7F7F7"/>
</g>
<g clip-path="url(#clip10_1_942)">
<rect width="36" height="32" transform="translate(120 132)" fill="white"/>
<path d="M137.502 153.139C136.819 153.139 136.216 153.018 135.692 152.776C135.172 152.531 134.766 152.195 134.474 151.767C134.182 151.336 134.038 150.846 134.042 150.295C134.038 149.865 134.123 149.467 134.295 149.102C134.468 148.734 134.703 148.428 135.001 148.183C135.303 147.934 135.639 147.777 136.01 147.71V147.651C135.523 147.525 135.135 147.251 134.847 146.83C134.559 146.406 134.416 145.924 134.419 145.384C134.416 144.866 134.547 144.404 134.812 143.996C135.077 143.589 135.442 143.267 135.906 143.032C136.373 142.797 136.905 142.679 137.502 142.679C138.092 142.679 138.619 142.797 139.083 143.032C139.547 143.267 139.911 143.589 140.177 143.996C140.445 144.404 140.581 144.866 140.584 145.384C140.581 145.924 140.433 146.406 140.142 146.83C139.853 147.251 139.471 147.525 138.993 147.651V147.71C139.361 147.777 139.693 147.934 139.988 148.183C140.283 148.428 140.518 148.734 140.694 149.102C140.869 149.467 140.959 149.865 140.962 150.295C140.959 150.846 140.81 151.336 140.515 151.767C140.223 152.195 139.817 152.531 139.297 152.776C138.78 153.018 138.181 153.139 137.502 153.139ZM137.502 152.045C137.963 152.045 138.36 151.971 138.695 151.822C139.03 151.673 139.288 151.462 139.471 151.19C139.653 150.919 139.746 150.6 139.749 150.236C139.746 149.851 139.646 149.512 139.451 149.217C139.255 148.922 138.988 148.69 138.65 148.521C138.316 148.352 137.933 148.267 137.502 148.267C137.068 148.267 136.68 148.352 136.339 148.521C136 148.69 135.734 148.922 135.538 149.217C135.346 149.512 135.251 149.851 135.255 150.236C135.251 150.6 135.339 150.919 135.518 151.19C135.7 151.462 135.961 151.673 136.299 151.822C136.637 151.971 137.038 152.045 137.502 152.045ZM137.502 147.213C137.866 147.213 138.19 147.14 138.471 146.994C138.756 146.848 138.98 146.645 139.142 146.383C139.305 146.121 139.388 145.814 139.391 145.463C139.388 145.118 139.307 144.818 139.147 144.563C138.988 144.305 138.768 144.106 138.486 143.967C138.205 143.824 137.876 143.753 137.502 143.753C137.121 143.753 136.788 143.824 136.503 143.967C136.218 144.106 135.997 144.305 135.841 144.563C135.686 144.818 135.609 145.118 135.613 145.463C135.609 145.814 135.687 146.121 135.846 146.383C136.009 146.645 136.232 146.848 136.517 146.994C136.803 147.14 137.131 147.213 137.502 147.213Z" fill="#101828"/>
</g>
<g clip-path="url(#clip11_1_942)">
<rect width="36" height="32" transform="translate(156 132)" fill="white"/>
<path d="M173.427 142.679C173.845 142.682 174.263 142.762 174.68 142.918C175.098 143.073 175.479 143.332 175.824 143.693C176.168 144.051 176.445 144.54 176.654 145.16C176.863 145.78 176.967 146.557 176.967 147.491C176.967 148.396 176.881 149.2 176.709 149.903C176.54 150.602 176.294 151.192 175.973 151.673C175.655 152.153 175.267 152.518 174.809 152.766C174.355 153.015 173.842 153.139 173.268 153.139C172.698 153.139 172.189 153.027 171.742 152.801C171.298 152.572 170.933 152.256 170.648 151.852C170.366 151.444 170.186 150.972 170.106 150.435H171.319C171.429 150.902 171.646 151.288 171.971 151.593C172.299 151.895 172.731 152.045 173.268 152.045C174.054 152.045 174.674 151.702 175.128 151.016C175.585 150.33 175.814 149.361 175.814 148.108H175.734C175.549 148.386 175.328 148.627 175.073 148.829C174.818 149.031 174.534 149.187 174.223 149.296C173.911 149.406 173.58 149.46 173.228 149.46C172.645 149.46 172.11 149.316 171.623 149.028C171.139 148.736 170.751 148.337 170.459 147.83C170.171 147.319 170.027 146.736 170.027 146.08C170.027 145.456 170.166 144.886 170.444 144.369C170.726 143.849 171.12 143.435 171.628 143.126C172.138 142.818 172.738 142.669 173.427 142.679ZM173.427 143.773C173.01 143.773 172.633 143.877 172.299 144.086C171.967 144.291 171.704 144.57 171.508 144.921C171.316 145.269 171.22 145.655 171.22 146.08C171.22 146.504 171.313 146.89 171.498 147.238C171.687 147.583 171.944 147.858 172.269 148.063C172.597 148.265 172.97 148.366 173.388 148.366C173.702 148.366 173.996 148.305 174.267 148.183C174.539 148.057 174.776 147.886 174.978 147.67C175.184 147.452 175.345 147.205 175.461 146.93C175.577 146.651 175.635 146.361 175.635 146.06C175.635 145.662 175.539 145.289 175.346 144.941C175.157 144.593 174.896 144.311 174.561 144.096C174.229 143.88 173.852 143.773 173.427 143.773Z" fill="#101828"/>
</g>
<g clip-path="url(#clip12_1_942)">
<rect width="36" height="32" transform="translate(192 132)" fill="white"/>
<path d="M206.505 142.818V153H205.272V144.111H205.212L202.726 145.761V144.509L205.272 142.818H206.505ZM212.754 153.139C212.005 153.139 211.367 152.935 210.84 152.528C210.313 152.117 209.91 151.522 209.632 150.743C209.353 149.961 209.214 149.016 209.214 147.909C209.214 146.809 209.353 145.869 209.632 145.09C209.913 144.308 210.318 143.711 210.845 143.3C211.375 142.886 212.011 142.679 212.754 142.679C213.496 142.679 214.131 142.886 214.658 143.3C215.188 143.711 215.593 144.308 215.871 145.09C216.153 145.869 216.294 146.809 216.294 147.909C216.294 149.016 216.154 149.961 215.876 150.743C215.598 151.522 215.195 152.117 214.668 152.528C214.141 152.935 213.503 153.139 212.754 153.139ZM212.754 152.045C213.496 152.045 214.073 151.687 214.484 150.972C214.895 150.256 215.1 149.235 215.1 147.909C215.1 147.027 215.006 146.277 214.817 145.657C214.632 145.037 214.363 144.565 214.012 144.24C213.664 143.915 213.244 143.753 212.754 143.753C212.018 143.753 211.443 144.116 211.029 144.842C210.614 145.564 210.407 146.587 210.407 147.909C210.407 148.791 210.5 149.54 210.686 150.156C210.871 150.773 211.138 151.242 211.486 151.563C211.837 151.885 212.26 152.045 212.754 152.045Z" fill="#101828"/>
</g>
<g clip-path="url(#clip13_1_942)">
<rect width="36" height="32" transform="translate(228 132)" fill="white"/>
<path d="M243.626 142.818V153H242.393V144.111H242.333L239.847 145.761V144.509L242.393 142.818H243.626ZM250.134 142.818V153H248.901V144.111H248.841L246.355 145.761V144.509L248.901 142.818H250.134Z" fill="#101828"/>
</g>
<g clip-path="url(#clip14_1_942)">
<rect width="36" height="32" transform="translate(12 168)" fill="white"/>
<path d="M26.6413 178.818V189H25.4084V180.111H25.3487L22.8629 181.761V180.509L25.4084 178.818H26.6413ZM29.5696 189V188.105L32.9304 184.426C33.3248 183.995 33.6496 183.621 33.9048 183.303C34.16 182.981 34.349 182.679 34.4716 182.398C34.5975 182.113 34.6605 181.814 34.6605 181.503C34.6605 181.145 34.5743 180.835 34.402 180.573C34.233 180.311 34.0009 180.109 33.706 179.967C33.411 179.824 33.0795 179.753 32.7116 179.753C32.3205 179.753 31.9792 179.834 31.6875 179.996C31.3991 180.156 31.1754 180.379 31.0163 180.668C30.8606 180.956 30.7827 181.294 30.7827 181.682H29.6094C29.6094 181.085 29.7469 180.562 30.022 180.111C30.2971 179.66 30.6716 179.309 31.1456 179.057C31.6229 178.805 32.1581 178.679 32.7514 178.679C33.348 178.679 33.8767 178.805 34.3374 179.057C34.7981 179.309 35.1593 179.648 35.4212 180.076C35.683 180.504 35.8139 180.979 35.8139 181.503C35.8139 181.877 35.746 182.244 35.6101 182.602C35.4775 182.956 35.2455 183.352 34.9141 183.79C34.5859 184.224 34.1302 184.754 33.5469 185.381L31.2599 187.827V187.906H35.9929V189H29.5696Z" fill="#101828"/>
</g>
<g clip-path="url(#clip15_1_942)">
<rect width="36" height="32" transform="translate(48 168)" fill="white"/>
<path d="M62.4226 178.818V189H61.1896V180.111H61.13L58.6442 181.761V180.509L61.1896 178.818H62.4226ZM68.7912 189.139C68.1349 189.139 67.55 189.027 67.0362 188.801C66.5258 188.576 66.1198 188.263 65.8182 187.862C65.5199 187.457 65.3575 186.988 65.331 186.455H66.5838C66.6103 186.783 66.723 187.066 66.9219 187.305C67.1207 187.54 67.3809 187.722 67.7024 187.852C68.0239 187.981 68.3802 188.045 68.7713 188.045C69.2088 188.045 69.5966 187.969 69.9347 187.817C70.2727 187.664 70.5379 187.452 70.7301 187.18C70.9223 186.909 71.0185 186.594 71.0185 186.236C71.0185 185.861 70.9257 185.531 70.7401 185.246C70.5545 184.958 70.2827 184.733 69.9247 184.57C69.5668 184.408 69.1293 184.327 68.6122 184.327H67.7969V183.233H68.6122C69.0166 183.233 69.3712 183.16 69.6761 183.014C69.9844 182.868 70.2247 182.663 70.397 182.398C70.5727 182.133 70.6605 181.821 70.6605 181.463C70.6605 181.118 70.5843 180.818 70.4318 180.563C70.2794 180.308 70.0639 180.109 69.7855 179.967C69.5104 179.824 69.1856 179.753 68.8111 179.753C68.4598 179.753 68.1283 179.817 67.8168 179.947C67.5085 180.073 67.2566 180.257 67.0611 180.499C66.8655 180.737 66.7595 181.026 66.7429 181.364H65.5497C65.5696 180.83 65.7304 180.363 66.032 179.962C66.3336 179.557 66.728 179.242 67.2152 179.017C67.7057 178.792 68.2443 178.679 68.831 178.679C69.4607 178.679 70.0009 178.807 70.4517 179.062C70.9025 179.314 71.2488 179.647 71.4908 180.061C71.7327 180.475 71.8537 180.923 71.8537 181.403C71.8537 181.977 71.7029 182.466 71.4013 182.87C71.103 183.274 70.697 183.554 70.1832 183.71V183.79C70.8262 183.896 71.3284 184.169 71.6896 184.61C72.0509 185.048 72.2315 185.589 72.2315 186.236C72.2315 186.789 72.0807 187.286 71.7791 187.727C71.4808 188.165 71.0732 188.509 70.5561 188.761C70.0391 189.013 69.4508 189.139 68.7912 189.139Z" fill="#101828"/>
</g>
<g clip-path="url(#clip16_1_942)">
<rect width="36" height="32" transform="translate(84 168)" fill="white"/>
<path d="M98.3884 178.818V189H97.1555V180.111H97.0958L94.61 181.761V180.509L97.1555 178.818H98.3884ZM101.078 186.912V185.898L105.552 178.818H106.288V180.389H105.791L102.41 185.739V185.818H108.436V186.912H101.078ZM105.871 189V186.604V186.131V178.818H107.044V189H105.871Z" fill="#101828"/>
</g>
<g clip-path="url(#clip17_1_942)">
<rect width="36" height="32" transform="translate(120 168)" fill="white"/>
<path d="M134.621 178.818V189H133.388V180.111H133.328L130.842 181.761V180.509L133.388 178.818H134.621ZM140.731 189.139C140.148 189.139 139.622 189.023 139.155 188.791C138.688 188.559 138.313 188.241 138.031 187.837C137.75 187.432 137.595 186.972 137.569 186.455H138.762C138.809 186.915 139.017 187.296 139.389 187.598C139.763 187.896 140.211 188.045 140.731 188.045C141.149 188.045 141.52 187.948 141.845 187.752C142.173 187.557 142.43 187.288 142.615 186.947C142.804 186.602 142.899 186.213 142.899 185.778C142.899 185.334 142.801 184.938 142.605 184.59C142.413 184.239 142.148 183.962 141.81 183.76C141.472 183.558 141.086 183.455 140.651 183.452C140.34 183.448 140.02 183.496 139.692 183.596C139.364 183.692 139.094 183.816 138.881 183.969L137.728 183.83L138.345 178.818H143.634V179.912H139.379L139.021 182.915H139.08C139.289 182.749 139.551 182.612 139.866 182.502C140.181 182.393 140.509 182.338 140.85 182.338C141.473 182.338 142.028 182.487 142.516 182.786C143.006 183.08 143.391 183.485 143.669 183.999C143.951 184.512 144.092 185.099 144.092 185.759C144.092 186.408 143.946 186.988 143.654 187.499C143.366 188.006 142.968 188.407 142.461 188.702C141.954 188.993 141.377 189.139 140.731 189.139Z" fill="#101828"/>
</g>
<g clip-path="url(#clip18_1_942)">
<rect width="36" height="32" transform="translate(156 168)" fill="white"/>
<path d="M170.511 178.818V189H169.278V180.111H169.219L166.733 181.761V180.509L169.278 178.818H170.511ZM176.82 189.139C176.403 189.133 175.985 189.053 175.568 188.901C175.15 188.748 174.769 188.491 174.424 188.13C174.079 187.765 173.803 187.273 173.594 186.653C173.385 186.03 173.281 185.248 173.281 184.307C173.281 183.405 173.365 182.607 173.534 181.911C173.703 181.211 173.948 180.623 174.27 180.146C174.591 179.665 174.979 179.3 175.433 179.052C175.891 178.803 176.406 178.679 176.979 178.679C177.55 178.679 178.057 178.793 178.501 179.022C178.948 179.247 179.313 179.562 179.595 179.967C179.876 180.371 180.059 180.837 180.141 181.364H178.928C178.816 180.906 178.597 180.527 178.272 180.225C177.947 179.924 177.516 179.773 176.979 179.773C176.191 179.773 175.569 180.116 175.115 180.802C174.664 181.488 174.437 182.451 174.434 183.69H174.514C174.699 183.409 174.92 183.168 175.175 182.969C175.433 182.767 175.718 182.612 176.03 182.502C176.341 182.393 176.671 182.338 177.019 182.338C177.603 182.338 178.136 182.484 178.62 182.776C179.104 183.064 179.492 183.463 179.783 183.974C180.075 184.481 180.221 185.062 180.221 185.719C180.221 186.348 180.08 186.925 179.798 187.449C179.517 187.969 179.121 188.384 178.61 188.692C178.103 188.997 177.506 189.146 176.82 189.139ZM176.82 188.045C177.238 188.045 177.613 187.941 177.944 187.732C178.279 187.523 178.542 187.243 178.734 186.892C178.93 186.541 179.028 186.15 179.028 185.719C179.028 185.298 178.933 184.915 178.744 184.57C178.559 184.222 178.302 183.946 177.974 183.74C177.649 183.535 177.278 183.432 176.86 183.432C176.545 183.432 176.252 183.495 175.98 183.621C175.708 183.743 175.47 183.912 175.264 184.128C175.062 184.343 174.903 184.59 174.787 184.869C174.671 185.144 174.613 185.434 174.613 185.739C174.613 186.143 174.707 186.521 174.896 186.872C175.089 187.223 175.35 187.507 175.682 187.722C176.017 187.938 176.396 188.045 176.82 188.045Z" fill="#101828"/>
</g>
<g clip-path="url(#clip19_1_942)">
<rect width="36" height="32" transform="translate(192 168)" fill="white"/>
<path d="M206.881 178.818V189H205.648V180.111H205.588L203.102 181.761V180.509L205.648 178.818H206.881ZM210.127 189L214.681 179.991V179.912H209.431V178.818H215.954V179.972L211.42 189H210.127Z" fill="#101828"/>
</g>
<g clip-path="url(#clip20_1_942)">
<rect width="36" height="32" transform="translate(228 168)" fill="white"/>
<path d="M242.566 178.818V189H241.333V180.111H241.274L238.788 181.761V180.509L241.333 178.818H242.566ZM248.756 189.139C248.073 189.139 247.47 189.018 246.946 188.776C246.426 188.531 246.02 188.195 245.728 187.767C245.436 187.336 245.292 186.846 245.296 186.295C245.292 185.865 245.377 185.467 245.549 185.102C245.721 184.734 245.957 184.428 246.255 184.183C246.557 183.934 246.893 183.777 247.264 183.71V183.651C246.777 183.525 246.389 183.251 246.101 182.83C245.813 182.406 245.67 181.924 245.673 181.384C245.67 180.866 245.801 180.404 246.066 179.996C246.331 179.589 246.696 179.267 247.16 179.032C247.627 178.797 248.159 178.679 248.756 178.679C249.346 178.679 249.873 178.797 250.337 179.032C250.801 179.267 251.165 179.589 251.43 179.996C251.699 180.404 251.835 180.866 251.838 181.384C251.835 181.924 251.687 182.406 251.396 182.83C251.107 183.251 250.725 183.525 250.247 183.651V183.71C250.615 183.777 250.947 183.934 251.242 184.183C251.537 184.428 251.772 184.734 251.948 185.102C252.123 185.467 252.213 185.865 252.216 186.295C252.213 186.846 252.064 187.336 251.769 187.767C251.477 188.195 251.071 188.531 250.551 188.776C250.033 189.018 249.435 189.139 248.756 189.139ZM248.756 188.045C249.216 188.045 249.614 187.971 249.949 187.822C250.284 187.673 250.542 187.462 250.725 187.19C250.907 186.919 251 186.6 251.003 186.236C251 185.851 250.9 185.512 250.705 185.217C250.509 184.922 250.242 184.69 249.904 184.521C249.569 184.352 249.187 184.267 248.756 184.267C248.322 184.267 247.934 184.352 247.592 184.521C247.254 184.69 246.988 184.922 246.792 185.217C246.6 185.512 246.505 185.851 246.509 186.236C246.505 186.6 246.593 186.919 246.772 187.19C246.954 187.462 247.215 187.673 247.553 187.822C247.891 187.971 248.292 188.045 248.756 188.045ZM248.756 183.213C249.12 183.213 249.444 183.14 249.725 182.994C250.01 182.848 250.234 182.645 250.396 182.383C250.559 182.121 250.642 181.814 250.645 181.463C250.642 181.118 250.56 180.818 250.401 180.563C250.242 180.305 250.022 180.106 249.74 179.967C249.458 179.824 249.13 179.753 248.756 179.753C248.375 179.753 248.042 179.824 247.756 179.967C247.471 180.106 247.251 180.305 247.095 180.563C246.939 180.818 246.863 181.118 246.867 181.463C246.863 181.814 246.941 182.121 247.1 182.383C247.263 182.645 247.486 182.848 247.771 182.994C248.056 183.14 248.385 183.213 248.756 183.213Z" fill="#101828"/>
</g>
<g clip-path="url(#clip21_1_942)">
<rect width="36" height="32" transform="translate(12 204)" fill="white"/>
<path d="M26.5115 214.818V225H25.2785V216.111H25.2188L22.733 217.761V216.509L25.2785 214.818H26.5115ZM32.6812 214.679C33.0988 214.682 33.5164 214.762 33.934 214.918C34.3517 215.073 34.7328 215.332 35.0775 215.693C35.4222 216.051 35.699 216.54 35.9078 217.16C36.1166 217.78 36.221 218.557 36.221 219.491C36.221 220.396 36.1348 221.2 35.9624 221.903C35.7934 222.602 35.5481 223.192 35.2267 223.673C34.9085 224.153 34.5207 224.518 34.0633 224.766C33.6092 225.015 33.0955 225.139 32.5221 225.139C31.952 225.139 31.4433 225.027 30.9958 224.801C30.5517 224.572 30.1871 224.256 29.9021 223.852C29.6204 223.444 29.4397 222.972 29.3602 222.435H30.5732C30.6826 222.902 30.8997 223.288 31.2245 223.593C31.5526 223.895 31.9852 224.045 32.5221 224.045C33.3076 224.045 33.9274 223.702 34.3815 223.016C34.8389 222.33 35.0676 221.361 35.0676 220.108H34.988C34.8024 220.386 34.582 220.627 34.3268 220.829C34.0716 221.031 33.7882 221.187 33.4767 221.296C33.1651 221.406 32.8337 221.46 32.4823 221.46C31.899 221.46 31.3637 221.316 30.8765 221.028C30.3926 220.736 30.0048 220.337 29.7132 219.83C29.4248 219.319 29.2806 218.736 29.2806 218.08C29.2806 217.456 29.4198 216.886 29.6982 216.369C29.98 215.849 30.3744 215.435 30.8815 215.126C31.3919 214.818 31.9918 214.669 32.6812 214.679ZM32.6812 215.773C32.2636 215.773 31.8874 215.877 31.5526 216.086C31.2212 216.291 30.9577 216.57 30.7622 216.921C30.5699 217.269 30.4738 217.655 30.4738 218.08C30.4738 218.504 30.5666 218.89 30.7522 219.238C30.9411 219.583 31.198 219.858 31.5228 220.063C31.8509 220.265 32.2238 220.366 32.6414 220.366C32.9563 220.366 33.2496 220.305 33.5214 220.183C33.7932 220.057 34.0302 219.886 34.2323 219.67C34.4378 219.452 34.5986 219.205 34.7146 218.93C34.8306 218.651 34.8886 218.361 34.8886 218.06C34.8886 217.662 34.7925 217.289 34.6002 216.941C34.4113 216.593 34.1495 216.311 33.8147 216.096C33.4833 215.88 33.1054 215.773 32.6812 215.773Z" fill="#101828"/>
</g>
<g clip-path="url(#clip22_1_942)">
<rect width="36" height="32" transform="translate(48 204)" fill="white"/>
<path d="M57.9407 225V224.105L61.3015 220.426C61.6959 219.995 62.0207 219.621 62.2759 219.303C62.5311 218.981 62.7201 218.679 62.8427 218.398C62.9686 218.113 63.0316 217.814 63.0316 217.503C63.0316 217.145 62.9454 216.835 62.7731 216.573C62.604 216.311 62.372 216.109 62.0771 215.967C61.7821 215.824 61.4506 215.753 61.0827 215.753C60.6916 215.753 60.3503 215.834 60.0586 215.996C59.7702 216.156 59.5465 216.379 59.3874 216.668C59.2317 216.956 59.1538 217.294 59.1538 217.682H57.9805C57.9805 217.085 58.118 216.562 58.3931 216.111C58.6682 215.66 59.0427 215.309 59.5167 215.057C59.994 214.805 60.5292 214.679 61.1225 214.679C61.7191 214.679 62.2478 214.805 62.7085 215.057C63.1692 215.309 63.5304 215.648 63.7923 216.076C64.0541 216.504 64.185 216.979 64.185 217.503C64.185 217.877 64.1171 218.244 63.9812 218.602C63.8486 218.956 63.6166 219.352 63.2852 219.79C62.957 220.224 62.5013 220.754 61.918 221.381L59.631 223.827V223.906H64.364V225H57.9407ZM69.7383 225.139C68.9892 225.139 68.3512 224.935 67.8242 224.528C67.2972 224.117 66.8945 223.522 66.6161 222.743C66.3377 221.961 66.1985 221.016 66.1985 219.909C66.1985 218.809 66.3377 217.869 66.6161 217.09C66.8978 216.308 67.3022 215.711 67.8292 215.3C68.3595 214.886 68.9959 214.679 69.7383 214.679C70.4807 214.679 71.1154 214.886 71.6424 215.3C72.1727 215.711 72.5771 216.308 72.8555 217.09C73.1372 217.869 73.2781 218.809 73.2781 219.909C73.2781 221.016 73.1388 221.961 72.8604 222.743C72.582 223.522 72.1793 224.117 71.6523 224.528C71.1254 224.935 70.4873 225.139 69.7383 225.139ZM69.7383 224.045C70.4807 224.045 71.0574 223.687 71.4684 222.972C71.8794 222.256 72.0849 221.235 72.0849 219.909C72.0849 219.027 71.9904 218.277 71.8015 217.657C71.6159 217.037 71.3474 216.565 70.9961 216.24C70.6481 215.915 70.2288 215.753 69.7383 215.753C69.0025 215.753 68.4274 216.116 68.0131 216.842C67.5988 217.564 67.3917 218.587 67.3917 219.909C67.3917 220.791 67.4845 221.54 67.6701 222.156C67.8557 222.773 68.1225 223.242 68.4705 223.563C68.8219 223.885 69.2444 224.045 69.7383 224.045Z" fill="#101828"/>
</g>
<g clip-path="url(#clip23_1_942)">
<rect width="36" height="32" transform="translate(84 204)" fill="white"/>
<path d="M95.0618 225V224.105L98.4226 220.426C98.817 219.995 99.1418 219.621 99.397 219.303C99.6522 218.981 99.8411 218.679 99.9638 218.398C100.09 218.113 100.153 217.814 100.153 217.503C100.153 217.145 100.067 216.835 99.8942 216.573C99.7251 216.311 99.4931 216.109 99.1982 215.967C98.9032 215.824 98.5717 215.753 98.2038 215.753C97.8127 215.753 97.4714 215.834 97.1797 215.996C96.8913 216.156 96.6676 216.379 96.5085 216.668C96.3527 216.956 96.2749 217.294 96.2749 217.682H95.1016C95.1016 217.085 95.2391 216.562 95.5142 216.111C95.7893 215.66 96.1638 215.309 96.6378 215.057C97.1151 214.805 97.6503 214.679 98.2436 214.679C98.8402 214.679 99.3688 214.805 99.8295 215.057C100.29 215.309 100.652 215.648 100.913 216.076C101.175 216.504 101.306 216.979 101.306 217.503C101.306 217.877 101.238 218.244 101.102 218.602C100.97 218.956 100.738 219.352 100.406 219.79C100.078 220.224 99.6224 220.754 99.0391 221.381L96.7521 223.827V223.906H101.485V225H95.0618ZM107.118 214.818V225H105.885V216.111H105.825L103.339 217.761V216.509L105.885 214.818H107.118Z" fill="#101828"/>
</g>
<g clip-path="url(#clip24_1_942)">
<rect width="36" height="32" transform="translate(120 204)" fill="white"/>
<path d="M130.077 225V224.105L133.438 220.426C133.833 219.995 134.157 219.621 134.413 219.303C134.668 218.981 134.857 218.679 134.979 218.398C135.105 218.113 135.168 217.814 135.168 217.503C135.168 217.145 135.082 216.835 134.91 216.573C134.741 216.311 134.509 216.109 134.214 215.967C133.919 215.824 133.587 215.753 133.219 215.753C132.828 215.753 132.487 215.834 132.195 215.996C131.907 216.156 131.683 216.379 131.524 216.668C131.368 216.956 131.29 217.294 131.29 217.682H130.117C130.117 217.085 130.255 216.562 130.53 216.111C130.805 215.66 131.179 215.309 131.653 215.057C132.131 214.805 132.666 214.679 133.259 214.679C133.856 214.679 134.384 214.805 134.845 215.057C135.306 215.309 135.667 215.648 135.929 216.076C136.191 216.504 136.322 216.979 136.322 217.503C136.322 217.877 136.254 218.244 136.118 218.602C135.985 218.956 135.753 219.352 135.422 219.79C135.094 220.224 134.638 220.754 134.055 221.381L131.768 223.827V223.906H136.501V225H130.077ZM138.554 225V224.105L141.915 220.426C142.309 219.995 142.634 219.621 142.889 219.303C143.144 218.981 143.333 218.679 143.456 218.398C143.582 218.113 143.645 217.814 143.645 217.503C143.645 217.145 143.559 216.835 143.386 216.573C143.217 216.311 142.985 216.109 142.69 215.967C142.395 215.824 142.064 215.753 141.696 215.753C141.305 215.753 140.964 215.834 140.672 215.996C140.384 216.156 140.16 216.379 140.001 216.668C139.845 216.956 139.767 217.294 139.767 217.682H138.594C138.594 217.085 138.731 216.562 139.006 216.111C139.281 215.66 139.656 215.309 140.13 215.057C140.607 214.805 141.143 214.679 141.736 214.679C142.332 214.679 142.861 214.805 143.322 215.057C143.782 215.309 144.144 215.648 144.406 216.076C144.667 216.504 144.798 216.979 144.798 217.503C144.798 217.877 144.73 218.244 144.594 218.602C144.462 218.956 144.23 219.352 143.898 219.79C143.57 220.224 143.115 220.754 142.531 221.381L140.244 223.827V223.906H144.977V225H138.554Z" fill="#101828"/>
</g>
<g clip-path="url(#clip25_1_942)">
<rect width="36" height="32" transform="translate(156 204)" fill="white"/>
<path d="M165.859 225V224.105L169.219 220.426C169.614 219.995 169.939 219.621 170.194 219.303C170.449 218.981 170.638 218.679 170.761 218.398C170.887 218.113 170.95 217.814 170.95 217.503C170.95 217.145 170.863 216.835 170.691 216.573C170.522 216.311 170.29 216.109 169.995 215.967C169.7 215.824 169.369 215.753 169.001 215.753C168.61 215.753 168.268 215.834 167.977 215.996C167.688 216.156 167.464 216.379 167.305 216.668C167.15 216.956 167.072 217.294 167.072 217.682H165.898C165.898 217.085 166.036 216.562 166.311 216.111C166.586 215.66 166.961 215.309 167.435 215.057C167.912 214.805 168.447 214.679 169.04 214.679C169.637 214.679 170.166 214.805 170.626 215.057C171.087 215.309 171.448 215.648 171.71 216.076C171.972 216.504 172.103 216.979 172.103 217.503C172.103 217.877 172.035 218.244 171.899 218.602C171.767 218.956 171.535 219.352 171.203 219.79C170.875 220.224 170.419 220.754 169.836 221.381L167.549 223.827V223.906H172.282V225H165.859ZM177.776 225.139C177.119 225.139 176.534 225.027 176.021 224.801C175.51 224.576 175.104 224.263 174.803 223.862C174.504 223.457 174.342 222.988 174.315 222.455H175.568C175.595 222.783 175.707 223.066 175.906 223.305C176.105 223.54 176.365 223.722 176.687 223.852C177.008 223.981 177.365 224.045 177.756 224.045C178.193 224.045 178.581 223.969 178.919 223.817C179.257 223.664 179.522 223.452 179.714 223.18C179.907 222.909 180.003 222.594 180.003 222.236C180.003 221.861 179.91 221.531 179.724 221.246C179.539 220.958 179.267 220.733 178.909 220.57C178.551 220.408 178.114 220.327 177.597 220.327H176.781V219.233H177.597C178.001 219.233 178.356 219.16 178.661 219.014C178.969 218.868 179.209 218.663 179.381 218.398C179.557 218.133 179.645 217.821 179.645 217.463C179.645 217.118 179.569 216.818 179.416 216.563C179.264 216.308 179.048 216.109 178.77 215.967C178.495 215.824 178.17 215.753 177.795 215.753C177.444 215.753 177.113 215.817 176.801 215.947C176.493 216.073 176.241 216.257 176.045 216.499C175.85 216.737 175.744 217.026 175.727 217.364H174.534C174.554 216.83 174.715 216.363 175.016 215.962C175.318 215.557 175.712 215.242 176.2 215.017C176.69 214.792 177.229 214.679 177.815 214.679C178.445 214.679 178.985 214.807 179.436 215.062C179.887 215.314 180.233 215.647 180.475 216.061C180.717 216.475 180.838 216.923 180.838 217.403C180.838 217.977 180.687 218.466 180.386 218.87C180.087 219.274 179.681 219.554 179.168 219.71V219.79C179.811 219.896 180.313 220.169 180.674 220.61C181.035 221.048 181.216 221.589 181.216 222.236C181.216 222.789 181.065 223.286 180.763 223.727C180.465 224.165 180.058 224.509 179.54 224.761C179.023 225.013 178.435 225.139 177.776 225.139Z" fill="#101828"/>
</g>
<g clip-path="url(#clip26_1_942)">
<rect width="36" height="32" transform="translate(192 204)" fill="white"/>
<path d="M201.934 225V224.105L205.295 220.426C205.689 219.995 206.014 219.621 206.269 219.303C206.524 218.981 206.713 218.679 206.836 218.398C206.962 218.113 207.025 217.814 207.025 217.503C207.025 217.145 206.939 216.835 206.766 216.573C206.597 216.311 206.365 216.109 206.07 215.967C205.775 215.824 205.444 215.753 205.076 215.753C204.685 215.753 204.343 215.834 204.052 215.996C203.763 216.156 203.54 216.379 203.381 216.668C203.225 216.956 203.147 217.294 203.147 217.682H201.974C201.974 217.085 202.111 216.562 202.386 216.111C202.661 215.66 203.036 215.309 203.51 215.057C203.987 214.805 204.522 214.679 205.116 214.679C205.712 214.679 206.241 214.805 206.702 215.057C207.162 215.309 207.524 215.648 207.785 216.076C208.047 216.504 208.178 216.979 208.178 217.503C208.178 217.877 208.11 218.244 207.974 218.602C207.842 218.956 207.61 219.352 207.278 219.79C206.95 220.224 206.494 220.754 205.911 221.381L203.624 223.827V223.906H208.357V225H201.934ZM209.953 222.912V221.898L214.427 214.818H215.163V216.389H214.666L211.285 221.739V221.818H217.311V222.912H209.953ZM214.746 225V222.604V222.131V214.818H215.919V225H214.746Z" fill="#101828"/>
</g>
<g clip-path="url(#clip27_1_942)">
<rect width="36" height="32" transform="translate(228 204)" fill="white"/>
<path d="M238.057 225V224.105L241.418 220.426C241.812 219.995 242.137 219.621 242.392 219.303C242.647 218.981 242.836 218.679 242.959 218.398C243.085 218.113 243.148 217.814 243.148 217.503C243.148 217.145 243.062 216.835 242.889 216.573C242.72 216.311 242.488 216.109 242.193 215.967C241.898 215.824 241.567 215.753 241.199 215.753C240.808 215.753 240.466 215.834 240.175 215.996C239.886 216.156 239.663 216.379 239.504 216.668C239.348 216.956 239.27 217.294 239.27 217.682H238.097C238.097 217.085 238.234 216.562 238.509 216.111C238.784 215.66 239.159 215.309 239.633 215.057C240.11 214.805 240.645 214.679 241.239 214.679C241.835 214.679 242.364 214.805 242.825 215.057C243.285 215.309 243.647 215.648 243.908 216.076C244.17 216.504 244.301 216.979 244.301 217.503C244.301 217.877 244.233 218.244 244.097 218.602C243.965 218.956 243.733 219.352 243.401 219.79C243.073 220.224 242.618 220.754 242.034 221.381L239.747 223.827V223.906H244.48V225H238.057ZM249.715 225.139C249.132 225.139 248.607 225.023 248.139 224.791C247.672 224.559 247.297 224.241 247.016 223.837C246.734 223.432 246.58 222.972 246.553 222.455H247.747C247.793 222.915 248.002 223.296 248.373 223.598C248.747 223.896 249.195 224.045 249.715 224.045C250.133 224.045 250.504 223.948 250.829 223.752C251.157 223.557 251.414 223.288 251.6 222.947C251.788 222.602 251.883 222.213 251.883 221.778C251.883 221.334 251.785 220.938 251.59 220.59C251.397 220.239 251.132 219.962 250.794 219.76C250.456 219.558 250.07 219.455 249.636 219.452C249.324 219.448 249.004 219.496 248.676 219.596C248.348 219.692 248.078 219.816 247.866 219.969L246.712 219.83L247.329 214.818H252.619V215.912H248.363L248.005 218.915H248.065C248.274 218.749 248.535 218.612 248.85 218.502C249.165 218.393 249.493 218.338 249.835 218.338C250.458 218.338 251.013 218.487 251.5 218.786C251.991 219.08 252.375 219.485 252.653 219.999C252.935 220.512 253.076 221.099 253.076 221.759C253.076 222.408 252.93 222.988 252.639 223.499C252.35 224.006 251.953 224.407 251.445 224.702C250.938 224.993 250.362 225.139 249.715 225.139Z" fill="#101828"/>
</g>
<g clip-path="url(#clip28_1_942)">
<rect width="36" height="32" transform="translate(12 240)" fill="white"/>
<path d="M21.9475 261V260.105L25.3083 256.426C25.7027 255.995 26.0276 255.621 26.2828 255.303C26.538 254.981 26.7269 254.679 26.8495 254.398C26.9755 254.113 27.0384 253.814 27.0384 253.503C27.0384 253.145 26.9523 252.835 26.7799 252.573C26.6109 252.311 26.3789 252.109 26.0839 251.967C25.7889 251.824 25.4575 251.753 25.0896 251.753C24.6985 251.753 24.3571 251.834 24.0654 251.996C23.7771 252.156 23.5534 252.379 23.3943 252.668C23.2385 252.956 23.1606 253.294 23.1606 253.682H21.9873C21.9873 253.085 22.1249 252.562 22.3999 252.111C22.675 251.66 23.0496 251.309 23.5235 251.057C24.0008 250.805 24.5361 250.679 25.1294 250.679C25.7259 250.679 26.2546 250.805 26.7153 251.057C27.176 251.309 27.5373 251.648 27.7991 252.076C28.0609 252.504 28.1919 252.979 28.1919 253.503C28.1919 253.877 28.1239 254.244 27.988 254.602C27.8554 254.956 27.6234 255.352 27.292 255.79C26.9639 256.224 26.5081 256.754 25.9248 257.381L23.6379 259.827V259.906H28.3708V261H21.9475ZM33.8048 261.139C33.3872 261.133 32.9695 261.053 32.5519 260.901C32.1343 260.748 31.7532 260.491 31.4085 260.13C31.0638 259.765 30.787 259.273 30.5782 258.653C30.3694 258.03 30.265 257.248 30.265 256.307C30.265 255.405 30.3495 254.607 30.5186 253.911C30.6876 253.211 30.9329 252.623 31.2544 252.146C31.5758 251.665 31.9636 251.3 32.4177 251.052C32.8751 250.803 33.3905 250.679 33.9639 250.679C34.5339 250.679 35.041 250.793 35.4852 251.022C35.9326 251.247 36.2972 251.562 36.5789 251.967C36.8606 252.371 37.0429 252.837 37.1258 253.364H35.9127C35.8 252.906 35.5813 252.527 35.2565 252.225C34.9317 251.924 34.5008 251.773 33.9639 251.773C33.175 251.773 32.5536 252.116 32.0995 252.802C31.6488 253.488 31.4217 254.451 31.4184 255.69H31.498C31.6836 255.409 31.904 255.168 32.1592 254.969C32.4177 254.767 32.7027 254.612 33.0143 254.502C33.3258 254.393 33.6556 254.338 34.0036 254.338C34.587 254.338 35.1206 254.484 35.6045 254.776C36.0884 255.064 36.4762 255.463 36.7678 255.974C37.0595 256.481 37.2053 257.062 37.2053 257.719C37.2053 258.348 37.0645 258.925 36.7828 259.449C36.501 259.969 36.105 260.384 35.5945 260.692C35.0874 260.997 34.4909 261.146 33.8048 261.139ZM33.8048 260.045C34.2224 260.045 34.5969 259.941 34.9284 259.732C35.2631 259.523 35.5266 259.243 35.7188 258.892C35.9144 258.541 36.0122 258.15 36.0122 257.719C36.0122 257.298 35.9177 256.915 35.7288 256.57C35.5432 256.222 35.2863 255.946 34.9582 255.74C34.6334 255.535 34.2622 255.432 33.8445 255.432C33.5297 255.432 33.2364 255.495 32.9646 255.621C32.6928 255.743 32.4542 255.912 32.2487 256.128C32.0465 256.343 31.8874 256.59 31.7714 256.869C31.6554 257.144 31.5974 257.434 31.5974 257.739C31.5974 258.143 31.6919 258.521 31.8808 258.872C32.073 259.223 32.3348 259.507 32.6663 259.722C33.001 259.938 33.3805 260.045 33.8048 260.045Z" fill="#101828"/>
</g>
<g clip-path="url(#clip29_1_942)">
<rect width="36" height="32" transform="translate(48 240)" fill="white"/>
<path d="M58.3167 261V260.105L61.6775 256.426C62.0719 255.995 62.3967 255.621 62.6519 255.303C62.9071 254.981 63.096 254.679 63.2187 254.398C63.3446 254.113 63.4076 253.814 63.4076 253.503C63.4076 253.145 63.3214 252.835 63.1491 252.573C62.98 252.311 62.748 252.109 62.453 251.967C62.1581 251.824 61.8266 251.753 61.4587 251.753C61.0676 251.753 60.7262 251.834 60.4346 251.996C60.1462 252.156 59.9225 252.379 59.7634 252.668C59.6076 252.956 59.5297 253.294 59.5297 253.682H58.3564C58.3564 253.085 58.494 252.562 58.7691 252.111C59.0442 251.66 59.4187 251.309 59.8927 251.057C60.3699 250.805 60.9052 250.679 61.4985 250.679C62.0951 250.679 62.6237 250.805 63.0844 251.057C63.5451 251.309 63.9064 251.648 64.1682 252.076C64.4301 252.504 64.561 252.979 64.561 253.503C64.561 253.877 64.493 254.244 64.3572 254.602C64.2246 254.956 63.9926 255.352 63.6611 255.79C63.333 256.224 62.8773 256.754 62.2939 257.381L60.007 259.827V259.906H64.74V261H58.3167ZM67.1114 261L71.6654 251.991V251.912H66.4154V250.818H72.9381V251.972L68.404 261H67.1114Z" fill="#101828"/>
</g>
<g clip-path="url(#clip30_1_942)">
<rect width="36" height="32" transform="translate(84 240)" fill="white"/>
<path d="M94.0022 261V260.105L97.363 256.426C97.7574 255.995 98.0822 255.621 98.3374 255.303C98.5927 254.981 98.7816 254.679 98.9042 254.398C99.0302 254.113 99.0931 253.814 99.0931 253.503C99.0931 253.145 99.007 252.835 98.8346 252.573C98.6656 252.311 98.4336 252.109 98.1386 251.967C97.8436 251.824 97.5122 251.753 97.1443 251.753C96.7532 251.753 96.4118 251.834 96.1201 251.996C95.8318 252.156 95.608 252.379 95.449 252.668C95.2932 252.956 95.2153 253.294 95.2153 253.682H94.042C94.042 253.085 94.1795 252.562 94.4546 252.111C94.7297 251.66 95.1043 251.309 95.5782 251.057C96.0555 250.805 96.5908 250.679 97.184 250.679C97.7806 250.679 98.3093 250.805 98.77 251.057C99.2307 251.309 99.5919 251.648 99.8538 252.076C100.116 252.504 100.247 252.979 100.247 253.503C100.247 253.877 100.179 254.244 100.043 254.602C99.9101 254.956 99.6781 255.352 99.3467 255.79C99.0186 256.224 98.5628 256.754 97.9795 257.381L95.6926 259.827V259.906H100.426V261H94.0022ZM105.74 261.139C105.057 261.139 104.454 261.018 103.93 260.776C103.41 260.531 103.004 260.195 102.712 259.767C102.421 259.336 102.277 258.846 102.28 258.295C102.277 257.865 102.361 257.467 102.533 257.102C102.706 256.734 102.941 256.428 103.239 256.183C103.541 255.934 103.877 255.777 104.249 255.71V255.651C103.761 255.525 103.374 255.251 103.085 254.83C102.797 254.406 102.654 253.924 102.658 253.384C102.654 252.866 102.785 252.404 103.051 251.996C103.316 251.589 103.68 251.267 104.144 251.032C104.612 250.797 105.144 250.679 105.74 250.679C106.33 250.679 106.857 250.797 107.321 251.032C107.785 251.267 108.15 251.589 108.415 251.996C108.683 252.404 108.819 252.866 108.823 253.384C108.819 253.924 108.672 254.406 108.38 254.83C108.092 255.251 107.709 255.525 107.232 255.651V255.71C107.6 255.777 107.931 255.934 108.226 256.183C108.521 256.428 108.756 256.734 108.932 257.102C109.108 257.467 109.197 257.865 109.2 258.295C109.197 258.846 109.048 259.336 108.753 259.767C108.461 260.195 108.055 260.531 107.535 260.776C107.018 261.018 106.42 261.139 105.74 261.139ZM105.74 260.045C106.201 260.045 106.599 259.971 106.933 259.822C107.268 259.673 107.527 259.462 107.709 259.19C107.891 258.919 107.984 258.6 107.987 258.236C107.984 257.851 107.885 257.512 107.689 257.217C107.493 256.922 107.227 256.69 106.889 256.521C106.554 256.352 106.171 256.267 105.74 256.267C105.306 256.267 104.918 256.352 104.577 256.521C104.239 256.69 103.972 256.922 103.776 257.217C103.584 257.512 103.49 257.851 103.493 258.236C103.49 258.6 103.578 258.919 103.756 259.19C103.939 259.462 104.199 259.673 104.537 259.822C104.875 259.971 105.276 260.045 105.74 260.045ZM105.74 255.213C106.105 255.213 106.428 255.14 106.71 254.994C106.995 254.848 107.218 254.645 107.381 254.383C107.543 254.121 107.626 253.814 107.629 253.463C107.626 253.118 107.545 252.818 107.386 252.563C107.227 252.305 107.006 252.106 106.725 251.967C106.443 251.824 106.115 251.753 105.74 251.753C105.359 251.753 105.026 251.824 104.741 251.967C104.456 252.106 104.235 252.305 104.08 252.563C103.924 252.818 103.848 253.118 103.851 253.463C103.848 253.814 103.926 254.121 104.085 254.383C104.247 254.645 104.471 254.848 104.756 254.994C105.041 255.14 105.369 255.213 105.74 255.213Z" fill="#101828"/>
</g>
<g clip-path="url(#clip31_1_942)">
<rect width="36" height="32" transform="translate(120 240)" fill="white"/>
<path d="M129.948 261V260.105L133.308 256.426C133.703 255.995 134.028 255.621 134.283 255.303C134.538 254.981 134.727 254.679 134.85 254.398C134.975 254.113 135.038 253.814 135.038 253.503C135.038 253.145 134.952 252.835 134.78 252.573C134.611 252.311 134.379 252.109 134.084 251.967C133.789 251.824 133.457 251.753 133.09 251.753C132.698 251.753 132.357 251.834 132.065 251.996C131.777 252.156 131.553 252.379 131.394 252.668C131.238 252.956 131.161 253.294 131.161 253.682H129.987C129.987 253.085 130.125 252.562 130.4 252.111C130.675 251.66 131.05 251.309 131.524 251.057C132.001 250.805 132.536 250.679 133.129 250.679C133.726 250.679 134.255 250.805 134.715 251.057C135.176 251.309 135.537 251.648 135.799 252.076C136.061 252.504 136.192 252.979 136.192 253.503C136.192 253.877 136.124 254.244 135.988 254.602C135.855 254.956 135.623 255.352 135.292 255.79C134.964 256.224 134.508 256.754 133.925 257.381L131.638 259.827V259.906H136.371V261H129.948ZM141.666 250.679C142.083 250.682 142.501 250.762 142.918 250.918C143.336 251.073 143.717 251.332 144.062 251.693C144.407 252.051 144.683 252.54 144.892 253.16C145.101 253.78 145.205 254.557 145.205 255.491C145.205 256.396 145.119 257.2 144.947 257.903C144.778 258.602 144.533 259.192 144.211 259.673C143.893 260.153 143.505 260.518 143.048 260.766C142.594 261.015 142.08 261.139 141.506 261.139C140.936 261.139 140.428 261.027 139.98 260.801C139.536 260.572 139.171 260.256 138.886 259.852C138.605 259.444 138.424 258.972 138.345 258.435H139.558C139.667 258.902 139.884 259.288 140.209 259.593C140.537 259.895 140.97 260.045 141.506 260.045C142.292 260.045 142.912 259.702 143.366 259.016C143.823 258.33 144.052 257.361 144.052 256.108H143.972C143.787 256.386 143.566 256.627 143.311 256.829C143.056 257.031 142.773 257.187 142.461 257.296C142.149 257.406 141.818 257.46 141.467 257.46C140.883 257.46 140.348 257.316 139.861 257.028C139.377 256.736 138.989 256.337 138.698 255.83C138.409 255.319 138.265 254.736 138.265 254.08C138.265 253.456 138.404 252.886 138.683 252.369C138.964 251.849 139.359 251.435 139.866 251.126C140.376 250.818 140.976 250.669 141.666 250.679ZM141.666 251.773C141.248 251.773 140.872 251.877 140.537 252.086C140.206 252.291 139.942 252.57 139.747 252.921C139.554 253.269 139.458 253.655 139.458 254.08C139.458 254.504 139.551 254.89 139.737 255.238C139.926 255.583 140.182 255.858 140.507 256.063C140.835 256.265 141.208 256.366 141.626 256.366C141.941 256.366 142.234 256.305 142.506 256.183C142.778 256.057 143.015 255.886 143.217 255.67C143.422 255.452 143.583 255.205 143.699 254.93C143.815 254.651 143.873 254.361 143.873 254.06C143.873 253.662 143.777 253.289 143.585 252.941C143.396 252.593 143.134 252.311 142.799 252.096C142.468 251.88 142.09 251.773 141.666 251.773Z" fill="#101828"/>
</g>
<g clip-path="url(#clip32_1_942)">
<rect width="36" height="32" transform="translate(156 240)" fill="white"/>
<path d="M174.88 250.818V261H173.647V252.111H173.587L171.101 253.761V252.509L173.647 250.818H174.88Z" fill="#8D929A"/>
</g>
<g clip-path="url(#clip33_1_942)">
<rect width="36" height="32" transform="translate(192 240)" fill="white"/>
<path d="M206.316 261V260.105L209.676 256.426C210.071 255.995 210.396 255.621 210.651 255.303C210.906 254.981 211.095 254.679 211.218 254.398C211.344 254.113 211.407 253.814 211.407 253.503C211.407 253.145 211.32 252.835 211.148 252.573C210.979 252.311 210.747 252.109 210.452 251.967C210.157 251.824 209.826 251.753 209.458 251.753C209.067 251.753 208.725 251.834 208.434 251.996C208.145 252.156 207.922 252.379 207.762 252.668C207.607 252.956 207.529 253.294 207.529 253.682H206.355C206.355 253.085 206.493 252.562 206.768 252.111C207.043 251.66 207.418 251.309 207.892 251.057C208.369 250.805 208.904 250.679 209.498 250.679C210.094 250.679 210.623 250.805 211.083 251.057C211.544 251.309 211.905 251.648 212.167 252.076C212.429 252.504 212.56 252.979 212.56 253.503C212.56 253.877 212.492 254.244 212.356 254.602C212.224 254.956 211.992 255.352 211.66 255.79C211.332 256.224 210.876 256.754 210.293 257.381L208.006 259.827V259.906H212.739V261H206.316Z" fill="#8D929A"/>
</g>
<g clip-path="url(#clip34_1_942)">
<rect width="36" height="32" transform="translate(228 240)" fill="white"/>
<path d="M245.537 261.139C244.881 261.139 244.296 261.027 243.782 260.801C243.272 260.576 242.866 260.263 242.564 259.862C242.266 259.457 242.104 258.988 242.077 258.455H243.33C243.356 258.783 243.469 259.066 243.668 259.305C243.867 259.54 244.127 259.722 244.449 259.852C244.77 259.981 245.126 260.045 245.517 260.045C245.955 260.045 246.343 259.969 246.681 259.817C247.019 259.664 247.284 259.452 247.476 259.18C247.668 258.909 247.765 258.594 247.765 258.236C247.765 257.861 247.672 257.531 247.486 257.246C247.301 256.958 247.029 256.733 246.671 256.57C246.313 256.408 245.875 256.327 245.358 256.327H244.543V255.233H245.358C245.763 255.233 246.117 255.16 246.422 255.014C246.73 254.868 246.971 254.663 247.143 254.398C247.319 254.133 247.407 253.821 247.407 253.463C247.407 253.118 247.33 252.818 247.178 252.563C247.025 252.308 246.81 252.109 246.532 251.967C246.257 251.824 245.932 251.753 245.557 251.753C245.206 251.753 244.874 251.817 244.563 251.947C244.255 252.073 244.003 252.257 243.807 252.499C243.612 252.737 243.506 253.026 243.489 253.364H242.296C242.316 252.83 242.476 252.363 242.778 251.962C243.08 251.557 243.474 251.242 243.961 251.017C244.452 250.792 244.99 250.679 245.577 250.679C246.207 250.679 246.747 250.807 247.198 251.062C247.649 251.314 247.995 251.647 248.237 252.061C248.479 252.475 248.6 252.923 248.6 253.403C248.6 253.977 248.449 254.466 248.147 254.87C247.849 255.274 247.443 255.554 246.929 255.71V255.79C247.572 255.896 248.074 256.169 248.436 256.61C248.797 257.048 248.978 257.589 248.978 258.236C248.978 258.789 248.827 259.286 248.525 259.727C248.227 260.165 247.819 260.509 247.302 260.761C246.785 261.013 246.197 261.139 245.537 261.139Z" fill="#8D929A"/>
</g>
<defs>
<clipPath id="clip0_1_942">
<rect width="36" height="32" fill="white" transform="translate(12 96)"/>
</clipPath>
<clipPath id="clip1_1_942">
<rect width="36" height="32" fill="white" transform="translate(48 96)"/>
</clipPath>
<clipPath id="clip2_1_942">
<rect width="36" height="32" fill="white" transform="translate(84 96)"/>
</clipPath>
<clipPath id="clip3_1_942">
<rect width="36" height="32" fill="white" transform="translate(120 96)"/>
</clipPath>
<clipPath id="clip4_1_942">
<rect width="36" height="32" fill="white" transform="translate(156 96)"/>
</clipPath>
<clipPath id="clip5_1_942">
<rect width="36" height="32" fill="white" transform="translate(192 96)"/>
</clipPath>
<clipPath id="clip6_1_942">
<rect width="36" height="32" fill="white" transform="translate(228 96)"/>
</clipPath>
<clipPath id="clip7_1_942">
<rect width="36" height="32" fill="white" transform="translate(12 132)"/>
</clipPath>
<clipPath id="clip8_1_942">
<rect width="36" height="32" fill="white" transform="translate(48 132)"/>
</clipPath>
<clipPath id="clip9_1_942">
<rect x="84" y="132" width="36" height="32" rx="16" fill="white"/>
</clipPath>
<clipPath id="clip10_1_942">
<rect width="36" height="32" fill="white" transform="translate(120 132)"/>
</clipPath>
<clipPath id="clip11_1_942">
<rect width="36" height="32" fill="white" transform="translate(156 132)"/>
</clipPath>
<clipPath id="clip12_1_942">
<rect width="36" height="32" fill="white" transform="translate(192 132)"/>
</clipPath>
<clipPath id="clip13_1_942">
<rect width="36" height="32" fill="white" transform="translate(228 132)"/>
</clipPath>
<clipPath id="clip14_1_942">
<rect width="36" height="32" fill="white" transform="translate(12 168)"/>
</clipPath>
<clipPath id="clip15_1_942">
<rect width="36" height="32" fill="white" transform="translate(48 168)"/>
</clipPath>
<clipPath id="clip16_1_942">
<rect width="36" height="32" fill="white" transform="translate(84 168)"/>
</clipPath>
<clipPath id="clip17_1_942">
<rect width="36" height="32" fill="white" transform="translate(120 168)"/>
</clipPath>
<clipPath id="clip18_1_942">
<rect width="36" height="32" fill="white" transform="translate(156 168)"/>
</clipPath>
<clipPath id="clip19_1_942">
<rect width="36" height="32" fill="white" transform="translate(192 168)"/>
</clipPath>
<clipPath id="clip20_1_942">
<rect width="36" height="32" fill="white" transform="translate(228 168)"/>
</clipPath>
<clipPath id="clip21_1_942">
<rect width="36" height="32" fill="white" transform="translate(12 204)"/>
</clipPath>
<clipPath id="clip22_1_942">
<rect width="36" height="32" fill="white" transform="translate(48 204)"/>
</clipPath>
<clipPath id="clip23_1_942">
<rect width="36" height="32" fill="white" transform="translate(84 204)"/>
</clipPath>
<clipPath id="clip24_1_942">
<rect width="36" height="32" fill="white" transform="translate(120 204)"/>
</clipPath>
<clipPath id="clip25_1_942">
<rect width="36" height="32" fill="white" transform="translate(156 204)"/>
</clipPath>
<clipPath id="clip26_1_942">
<rect width="36" height="32" fill="white" transform="translate(192 204)"/>
</clipPath>
<clipPath id="clip27_1_942">
<rect width="36" height="32" fill="white" transform="translate(228 204)"/>
</clipPath>
<clipPath id="clip28_1_942">
<rect width="36" height="32" fill="white" transform="translate(12 240)"/>
</clipPath>
<clipPath id="clip29_1_942">
<rect width="36" height="32" fill="white" transform="translate(48 240)"/>
</clipPath>
<clipPath id="clip30_1_942">
<rect width="36" height="32" fill="white" transform="translate(84 240)"/>
</clipPath>
<clipPath id="clip31_1_942">
<rect width="36" height="32" fill="white" transform="translate(120 240)"/>
</clipPath>
<clipPath id="clip32_1_942">
<rect width="36" height="32" fill="white" transform="translate(156 240)"/>
</clipPath>
<clipPath id="clip33_1_942">
<rect width="36" height="32" fill="white" transform="translate(192 240)"/>
</clipPath>
<clipPath id="clip34_1_942">
<rect width="36" height="32" fill="white" transform="translate(228 240)"/>
</clipPath>
</defs>
</svg>
