<svg width="56" height="96" viewBox="0 0 56 96" fill="none" xmlns="http://www.w3.org/2000/svg">
<rect x="0.5" y="0.5" width="55" height="95" rx="4.5" stroke="#9747FF" stroke-dasharray="10 5"/>
<path fill-rule="evenodd" clip-rule="evenodd" d="M21.1469 24.1469C21.1933 24.1003 21.2485 24.0634 21.3093 24.0382C21.37 24.013 21.4351 24 21.5009 24C21.5667 24 21.6318 24.013 21.6925 24.0382C21.7533 24.0634 21.8084 24.1003 21.8549 24.1469L27.5009 29.7939L33.1469 24.1469C33.1934 24.1004 33.2486 24.0635 33.3093 24.0384C33.37 24.0132 33.4352 24.0003 33.5009 24.0003C33.5666 24.0003 33.6317 24.0132 33.6925 24.0384C33.7532 24.0635 33.8084 24.1004 33.8549 24.1469C33.9014 24.1934 33.9383 24.2486 33.9634 24.3093C33.9886 24.37 34.0015 24.4351 34.0015 24.5009C34.0015 24.5666 33.9886 24.6317 33.9634 24.6925C33.9383 24.7532 33.9014 24.8084 33.8549 24.8549L27.8549 30.8549C27.8084 30.9015 27.7533 30.9384 27.6925 30.9636C27.6318 30.9888 27.5667 31.0018 27.5009 31.0018C27.4351 31.0018 27.37 30.9888 27.3093 30.9636C27.2485 30.9384 27.1933 30.9015 27.1469 30.8549L21.1469 24.8549C21.1003 24.8084 21.0634 24.7533 21.0382 24.6925C21.013 24.6318 21 24.5667 21 24.5009C21 24.4351 21.013 24.37 21.0382 24.3093C21.0634 24.2485 21.1003 24.1933 21.1469 24.1469Z" fill="#101828"/>
<path fill-rule="evenodd" clip-rule="evenodd" d="M27.1466 64.1469C27.1931 64.1003 27.2483 64.0634 27.309 64.0382C27.3697 64.013 27.4349 64 27.5006 64C27.5664 64 27.6315 64.013 27.6923 64.0382C27.753 64.0634 27.8082 64.1003 27.8546 64.1469L33.8546 70.1469C33.9485 70.2408 34.0013 70.3681 34.0013 70.5009C34.0013 70.6337 33.9485 70.761 33.8546 70.8549C33.7607 70.9488 33.6334 71.0015 33.5006 71.0015C33.3679 71.0015 33.2405 70.9488 33.1466 70.8549L27.5006 65.2079L21.8546 70.8549C21.7607 70.9488 21.6334 71.0015 21.5006 71.0015C21.3679 71.0015 21.2405 70.9488 21.1466 70.8549C21.0527 70.761 21 70.6337 21 70.5009C21 70.3681 21.0527 70.2408 21.1466 70.1469L27.1466 64.1469Z" fill="#101828"/>
</svg>
