<svg width="56" height="96" viewBox="0 0 56 96" fill="none" xmlns="http://www.w3.org/2000/svg">
<rect x="0.5" y="0.5" width="55" height="95" rx="4.5" stroke="#9747FF" stroke-dasharray="10 5"/>
<path d="M27.9999 22.748L27.2829 22.011C25.5999 20.281 22.5139 20.878 21.3999 23.053C20.8769 24.076 20.7589 25.553 21.7139 27.438C22.6339 29.253 24.5479 31.427 27.9999 33.795C31.4519 31.427 33.3649 29.253 34.2859 27.438C35.2409 25.552 35.1239 24.076 34.5999 23.053C33.4859 20.878 30.3999 20.28 28.7169 22.01L27.9999 22.748ZM27.9999 35C12.6669 24.868 23.2789 16.96 27.8239 21.143C27.8839 21.1984 27.9426 21.2554 27.9999 21.314C28.0562 21.255 28.1149 21.1983 28.1759 21.144C32.7199 16.958 43.3329 24.867 27.9999 35Z" fill="#F2F4F7"/>
<path fill-rule="evenodd" clip-rule="evenodd" d="M27.9998 61.3141C32.4378 56.7521 43.5338 64.7351 27.9998 75.0001C12.4658 64.7361 23.5618 56.7521 27.9998 61.3141Z" fill="#3470FF"/>
</svg>
