<svg width="196" height="156" viewBox="0 0 196 156" fill="none" xmlns="http://www.w3.org/2000/svg">
<rect x="0.5" y="0.5" width="195" height="155" rx="4.5" stroke="#9747FF" stroke-dasharray="10 5"/>
<rect x="20.5" y="20.5" width="155" height="43" rx="11.5" stroke="#3470FF"/>
<path d="M59.28 48V36.48H60.952V46.424H66.168V48H59.28ZM71.2783 48.24C70.4143 48.24 69.6649 48.0453 69.0303 47.656C68.3956 47.2667 67.9049 46.7307 67.5583 46.048C67.2169 45.36 67.0463 44.568 67.0463 43.672C67.0463 42.7707 67.2223 41.9787 67.5743 41.296C67.9263 40.608 68.4196 40.0747 69.0543 39.696C69.6889 39.312 70.4303 39.12 71.2783 39.12C72.1423 39.12 72.8916 39.3147 73.5263 39.704C74.1609 40.0933 74.6516 40.6293 74.9983 41.312C75.3449 41.9947 75.5183 42.7813 75.5183 43.672C75.5183 44.5733 75.3423 45.368 74.9903 46.056C74.6436 46.7387 74.1529 47.2747 73.5183 47.664C72.8836 48.048 72.1369 48.24 71.2783 48.24ZM71.2783 46.664C72.1049 46.664 72.7209 46.3867 73.1263 45.832C73.5369 45.272 73.7423 44.552 73.7423 43.672C73.7423 42.7707 73.5343 42.0507 73.1183 41.512C72.7076 40.968 72.0943 40.696 71.2783 40.696C70.7183 40.696 70.2569 40.824 69.8943 41.08C69.5316 41.3307 69.2623 41.68 69.0863 42.128C68.9103 42.5707 68.8223 43.0853 68.8223 43.672C68.8223 44.5787 69.0303 45.304 69.4463 45.848C69.8623 46.392 70.4729 46.664 71.2783 46.664ZM79.7163 48.24C79.0763 48.24 78.5403 48.1227 78.1083 47.888C77.6763 47.648 77.3483 47.3333 77.1243 46.944C76.9056 46.5493 76.7963 46.1173 76.7963 45.648C76.7963 45.2107 76.8736 44.8267 77.0283 44.496C77.1829 44.1653 77.4123 43.8853 77.7163 43.656C78.0203 43.4213 78.3936 43.232 78.8363 43.088C79.2203 42.976 79.6549 42.8773 80.1403 42.792C80.6256 42.7067 81.1349 42.6267 81.6683 42.552C82.2069 42.4773 82.7403 42.4027 83.2683 42.328L82.6603 42.664C82.6709 41.9867 82.5269 41.4853 82.2283 41.16C81.9349 40.8293 81.4283 40.664 80.7083 40.664C80.2549 40.664 79.8389 40.7707 79.4603 40.984C79.0816 41.192 78.8176 41.5387 78.6683 42.024L77.1083 41.544C77.3216 40.8027 77.7269 40.2133 78.3243 39.776C78.9269 39.3387 79.7269 39.12 80.7243 39.12C81.4976 39.12 82.1696 39.2533 82.7403 39.52C83.3163 39.7813 83.7376 40.1973 84.0043 40.768C84.1429 41.0507 84.2283 41.3493 84.2603 41.664C84.2923 41.9787 84.3083 42.3173 84.3083 42.68V48H82.8283V46.024L83.1163 46.28C82.7589 46.9413 82.3029 47.4347 81.7483 47.76C81.1989 48.08 80.5216 48.24 79.7163 48.24ZM80.0123 46.872C80.4869 46.872 80.8949 46.7893 81.2363 46.624C81.5776 46.4533 81.8523 46.2373 82.0603 45.976C82.2683 45.7147 82.4043 45.4427 82.4683 45.16C82.5589 44.904 82.6096 44.616 82.6203 44.296C82.6363 43.976 82.6443 43.72 82.6443 43.528L83.1883 43.728C82.6603 43.808 82.1803 43.88 81.7483 43.944C81.3163 44.008 80.9243 44.072 80.5723 44.136C80.2256 44.1947 79.9163 44.2667 79.6443 44.352C79.4149 44.432 79.2096 44.528 79.0283 44.64C78.8523 44.752 78.7109 44.888 78.6043 45.048C78.5029 45.208 78.4523 45.4027 78.4523 45.632C78.4523 45.856 78.5083 46.064 78.6203 46.256C78.7323 46.4427 78.9029 46.592 79.1323 46.704C79.3616 46.816 79.6549 46.872 80.0123 46.872ZM89.8176 48.24C89.0123 48.24 88.3163 48.04 87.7296 47.64C87.1483 47.24 86.6976 46.696 86.3776 46.008C86.063 45.3147 85.9056 44.536 85.9056 43.672C85.9056 42.8027 86.0656 42.0267 86.3856 41.344C86.7056 40.656 87.159 40.1147 87.7456 39.72C88.3376 39.32 89.039 39.12 89.8496 39.12C90.6656 39.12 91.351 39.32 91.9056 39.72C92.4656 40.1147 92.887 40.656 93.1696 41.344C93.4576 42.032 93.6016 42.808 93.6016 43.672C93.6016 44.536 93.4576 45.312 93.1696 46C92.8816 46.688 92.4576 47.2347 91.8976 47.64C91.3376 48.04 90.6443 48.24 89.8176 48.24ZM90.0496 46.728C90.599 46.728 91.047 46.5973 91.3936 46.336C91.7403 46.0747 91.9936 45.7147 92.1536 45.256C92.3136 44.7973 92.3936 44.2693 92.3936 43.672C92.3936 43.0747 92.311 42.5467 92.1456 42.088C91.9856 41.6293 91.735 41.272 91.3936 41.016C91.0576 40.76 90.6283 40.632 90.1056 40.632C89.551 40.632 89.095 40.768 88.7376 41.04C88.3803 41.312 88.1136 41.6773 87.9376 42.136C87.767 42.5947 87.6816 43.1067 87.6816 43.672C87.6816 44.2427 87.767 44.76 87.9376 45.224C88.1136 45.6827 88.375 46.048 88.7216 46.32C89.0736 46.592 89.5163 46.728 90.0496 46.728ZM92.3936 48V41.784H92.2016V36.48H93.8816V48H92.3936ZM109.675 48L109.683 42.616C109.683 41.992 109.523 41.5067 109.203 41.16C108.883 40.808 108.462 40.632 107.939 40.632C107.619 40.632 107.326 40.7067 107.059 40.856C106.798 41 106.584 41.2187 106.419 41.512C106.259 41.8 106.179 42.1627 106.179 42.6L105.371 42.192C105.36 41.584 105.488 41.0507 105.755 40.592C106.027 40.1333 106.395 39.7787 106.859 39.528C107.323 39.272 107.843 39.144 108.419 39.144C109.352 39.144 110.075 39.424 110.587 39.984C111.099 40.544 111.355 41.288 111.355 42.216L111.347 48H109.675ZM99.3151 48V39.36H100.803V41.856H100.995V48H99.3151ZM104.499 48L104.507 42.648C104.507 42.0187 104.347 41.5253 104.027 41.168C103.712 40.8107 103.288 40.632 102.755 40.632C102.227 40.632 101.8 40.8133 101.475 41.176C101.155 41.5387 100.995 42.0133 100.995 42.6L100.195 42.088C100.195 41.5227 100.331 41.0187 100.603 40.576C100.875 40.1333 101.243 39.784 101.707 39.528C102.171 39.272 102.696 39.144 103.283 39.144C103.896 39.144 104.419 39.2747 104.851 39.536C105.283 39.792 105.611 40.152 105.835 40.616C106.064 41.08 106.179 41.6187 106.179 42.232L106.171 48H104.499ZM117.075 48.24C116.211 48.24 115.462 48.0453 114.827 47.656C114.192 47.2667 113.702 46.7307 113.355 46.048C113.014 45.36 112.843 44.568 112.843 43.672C112.843 42.7707 113.019 41.9787 113.371 41.296C113.723 40.608 114.216 40.0747 114.851 39.696C115.486 39.312 116.227 39.12 117.075 39.12C117.939 39.12 118.688 39.3147 119.323 39.704C119.958 40.0933 120.448 40.6293 120.795 41.312C121.142 41.9947 121.315 42.7813 121.315 43.672C121.315 44.5733 121.139 45.368 120.787 46.056C120.44 46.7387 119.95 47.2747 119.315 47.664C118.68 48.048 117.934 48.24 117.075 48.24ZM117.075 46.664C117.902 46.664 118.518 46.3867 118.923 45.832C119.334 45.272 119.539 44.552 119.539 43.672C119.539 42.7707 119.331 42.0507 118.915 41.512C118.504 40.968 117.891 40.696 117.075 40.696C116.515 40.696 116.054 40.824 115.691 41.08C115.328 41.3307 115.059 41.68 114.883 42.128C114.707 42.5707 114.619 43.0853 114.619 43.672C114.619 44.5787 114.827 45.304 115.243 45.848C115.659 46.392 116.27 46.664 117.075 46.664ZM123.073 48V39.36H124.561V41.456L124.353 41.184C124.46 40.9067 124.598 40.6533 124.769 40.424C124.94 40.1893 125.137 39.9973 125.361 39.848C125.58 39.688 125.822 39.5653 126.089 39.48C126.361 39.3893 126.638 39.336 126.921 39.32C127.204 39.2987 127.476 39.312 127.737 39.36V40.928C127.454 40.8533 127.14 40.832 126.793 40.864C126.452 40.896 126.137 41.0053 125.849 41.192C125.577 41.368 125.361 41.5813 125.201 41.832C125.046 42.0827 124.934 42.3627 124.865 42.672C124.796 42.976 124.761 43.2987 124.761 43.64V48H123.073ZM132.936 48.24C132.078 48.24 131.323 48.0533 130.672 47.68C130.027 47.3013 129.523 46.776 129.16 46.104C128.803 45.4267 128.624 44.6427 128.624 43.752C128.624 42.808 128.8 41.9893 129.152 41.296C129.51 40.6027 130.006 40.0667 130.64 39.688C131.275 39.3093 132.014 39.12 132.856 39.12C133.736 39.12 134.486 39.3253 135.104 39.736C135.723 40.1413 136.184 40.72 136.488 41.472C136.798 42.224 136.92 43.1173 136.856 44.152H135.184V43.544C135.174 42.5413 134.982 41.8 134.608 41.32C134.24 40.84 133.678 40.6 132.92 40.6C132.083 40.6 131.454 40.864 131.032 41.392C130.611 41.92 130.4 42.6827 130.4 43.68C130.4 44.6293 130.611 45.3653 131.032 45.888C131.454 46.4053 132.062 46.664 132.856 46.664C133.379 46.664 133.83 46.5467 134.208 46.312C134.592 46.072 134.891 45.7307 135.104 45.288L136.744 45.808C136.408 46.5813 135.899 47.1813 135.216 47.608C134.534 48.0293 133.774 48.24 132.936 48.24ZM129.856 44.152V42.848H136.024V44.152H129.856Z" fill="#101828"/>
<rect x="20.5" y="88.5" width="155" height="43" rx="11.5" stroke="#0B44CD"/>
<path d="M59.28 116V104.48H60.952V114.424H66.168V116H59.28ZM71.2783 116.24C70.4143 116.24 69.6649 116.045 69.0303 115.656C68.3956 115.267 67.9049 114.731 67.5583 114.048C67.2169 113.36 67.0463 112.568 67.0463 111.672C67.0463 110.771 67.2223 109.979 67.5743 109.296C67.9263 108.608 68.4196 108.075 69.0543 107.696C69.6889 107.312 70.4303 107.12 71.2783 107.12C72.1423 107.12 72.8916 107.315 73.5263 107.704C74.1609 108.093 74.6516 108.629 74.9983 109.312C75.3449 109.995 75.5183 110.781 75.5183 111.672C75.5183 112.573 75.3423 113.368 74.9903 114.056C74.6436 114.739 74.1529 115.275 73.5183 115.664C72.8836 116.048 72.1369 116.24 71.2783 116.24ZM71.2783 114.664C72.1049 114.664 72.7209 114.387 73.1263 113.832C73.5369 113.272 73.7423 112.552 73.7423 111.672C73.7423 110.771 73.5343 110.051 73.1183 109.512C72.7076 108.968 72.0943 108.696 71.2783 108.696C70.7183 108.696 70.2569 108.824 69.8943 109.08C69.5316 109.331 69.2623 109.68 69.0863 110.128C68.9103 110.571 68.8223 111.085 68.8223 111.672C68.8223 112.579 69.0303 113.304 69.4463 113.848C69.8623 114.392 70.4729 114.664 71.2783 114.664ZM79.7163 116.24C79.0763 116.24 78.5403 116.123 78.1083 115.888C77.6763 115.648 77.3483 115.333 77.1243 114.944C76.9056 114.549 76.7963 114.117 76.7963 113.648C76.7963 113.211 76.8736 112.827 77.0283 112.496C77.1829 112.165 77.4123 111.885 77.7163 111.656C78.0203 111.421 78.3936 111.232 78.8363 111.088C79.2203 110.976 79.6549 110.877 80.1403 110.792C80.6256 110.707 81.1349 110.627 81.6683 110.552C82.2069 110.477 82.7403 110.403 83.2683 110.328L82.6603 110.664C82.6709 109.987 82.5269 109.485 82.2283 109.16C81.9349 108.829 81.4283 108.664 80.7083 108.664C80.2549 108.664 79.8389 108.771 79.4603 108.984C79.0816 109.192 78.8176 109.539 78.6683 110.024L77.1083 109.544C77.3216 108.803 77.7269 108.213 78.3243 107.776C78.9269 107.339 79.7269 107.12 80.7243 107.12C81.4976 107.12 82.1696 107.253 82.7403 107.52C83.3163 107.781 83.7376 108.197 84.0043 108.768C84.1429 109.051 84.2283 109.349 84.2603 109.664C84.2923 109.979 84.3083 110.317 84.3083 110.68V116H82.8283V114.024L83.1163 114.28C82.7589 114.941 82.3029 115.435 81.7483 115.76C81.1989 116.08 80.5216 116.24 79.7163 116.24ZM80.0123 114.872C80.4869 114.872 80.8949 114.789 81.2363 114.624C81.5776 114.453 81.8523 114.237 82.0603 113.976C82.2683 113.715 82.4043 113.443 82.4683 113.16C82.5589 112.904 82.6096 112.616 82.6203 112.296C82.6363 111.976 82.6443 111.72 82.6443 111.528L83.1883 111.728C82.6603 111.808 82.1803 111.88 81.7483 111.944C81.3163 112.008 80.9243 112.072 80.5723 112.136C80.2256 112.195 79.9163 112.267 79.6443 112.352C79.4149 112.432 79.2096 112.528 79.0283 112.64C78.8523 112.752 78.7109 112.888 78.6043 113.048C78.5029 113.208 78.4523 113.403 78.4523 113.632C78.4523 113.856 78.5083 114.064 78.6203 114.256C78.7323 114.443 78.9029 114.592 79.1323 114.704C79.3616 114.816 79.6549 114.872 80.0123 114.872ZM89.8176 116.24C89.0123 116.24 88.3163 116.04 87.7296 115.64C87.1483 115.24 86.6976 114.696 86.3776 114.008C86.063 113.315 85.9056 112.536 85.9056 111.672C85.9056 110.803 86.0656 110.027 86.3856 109.344C86.7056 108.656 87.159 108.115 87.7456 107.72C88.3376 107.32 89.039 107.12 89.8496 107.12C90.6656 107.12 91.351 107.32 91.9056 107.72C92.4656 108.115 92.887 108.656 93.1696 109.344C93.4576 110.032 93.6016 110.808 93.6016 111.672C93.6016 112.536 93.4576 113.312 93.1696 114C92.8816 114.688 92.4576 115.235 91.8976 115.64C91.3376 116.04 90.6443 116.24 89.8176 116.24ZM90.0496 114.728C90.599 114.728 91.047 114.597 91.3936 114.336C91.7403 114.075 91.9936 113.715 92.1536 113.256C92.3136 112.797 92.3936 112.269 92.3936 111.672C92.3936 111.075 92.311 110.547 92.1456 110.088C91.9856 109.629 91.735 109.272 91.3936 109.016C91.0576 108.76 90.6283 108.632 90.1056 108.632C89.551 108.632 89.095 108.768 88.7376 109.04C88.3803 109.312 88.1136 109.677 87.9376 110.136C87.767 110.595 87.6816 111.107 87.6816 111.672C87.6816 112.243 87.767 112.76 87.9376 113.224C88.1136 113.683 88.375 114.048 88.7216 114.32C89.0736 114.592 89.5163 114.728 90.0496 114.728ZM92.3936 116V109.784H92.2016V104.48H93.8816V116H92.3936ZM109.675 116L109.683 110.616C109.683 109.992 109.523 109.507 109.203 109.16C108.883 108.808 108.462 108.632 107.939 108.632C107.619 108.632 107.326 108.707 107.059 108.856C106.798 109 106.584 109.219 106.419 109.512C106.259 109.8 106.179 110.163 106.179 110.6L105.371 110.192C105.36 109.584 105.488 109.051 105.755 108.592C106.027 108.133 106.395 107.779 106.859 107.528C107.323 107.272 107.843 107.144 108.419 107.144C109.352 107.144 110.075 107.424 110.587 107.984C111.099 108.544 111.355 109.288 111.355 110.216L111.347 116H109.675ZM99.3151 116V107.36H100.803V109.856H100.995V116H99.3151ZM104.499 116L104.507 110.648C104.507 110.019 104.347 109.525 104.027 109.168C103.712 108.811 103.288 108.632 102.755 108.632C102.227 108.632 101.8 108.813 101.475 109.176C101.155 109.539 100.995 110.013 100.995 110.6L100.195 110.088C100.195 109.523 100.331 109.019 100.603 108.576C100.875 108.133 101.243 107.784 101.707 107.528C102.171 107.272 102.696 107.144 103.283 107.144C103.896 107.144 104.419 107.275 104.851 107.536C105.283 107.792 105.611 108.152 105.835 108.616C106.064 109.08 106.179 109.619 106.179 110.232L106.171 116H104.499ZM117.075 116.24C116.211 116.24 115.462 116.045 114.827 115.656C114.192 115.267 113.702 114.731 113.355 114.048C113.014 113.36 112.843 112.568 112.843 111.672C112.843 110.771 113.019 109.979 113.371 109.296C113.723 108.608 114.216 108.075 114.851 107.696C115.486 107.312 116.227 107.12 117.075 107.12C117.939 107.12 118.688 107.315 119.323 107.704C119.958 108.093 120.448 108.629 120.795 109.312C121.142 109.995 121.315 110.781 121.315 111.672C121.315 112.573 121.139 113.368 120.787 114.056C120.44 114.739 119.95 115.275 119.315 115.664C118.68 116.048 117.934 116.24 117.075 116.24ZM117.075 114.664C117.902 114.664 118.518 114.387 118.923 113.832C119.334 113.272 119.539 112.552 119.539 111.672C119.539 110.771 119.331 110.051 118.915 109.512C118.504 108.968 117.891 108.696 117.075 108.696C116.515 108.696 116.054 108.824 115.691 109.08C115.328 109.331 115.059 109.68 114.883 110.128C114.707 110.571 114.619 111.085 114.619 111.672C114.619 112.579 114.827 113.304 115.243 113.848C115.659 114.392 116.27 114.664 117.075 114.664ZM123.073 116V107.36H124.561V109.456L124.353 109.184C124.46 108.907 124.598 108.653 124.769 108.424C124.94 108.189 125.137 107.997 125.361 107.848C125.58 107.688 125.822 107.565 126.089 107.48C126.361 107.389 126.638 107.336 126.921 107.32C127.204 107.299 127.476 107.312 127.737 107.36V108.928C127.454 108.853 127.14 108.832 126.793 108.864C126.452 108.896 126.137 109.005 125.849 109.192C125.577 109.368 125.361 109.581 125.201 109.832C125.046 110.083 124.934 110.363 124.865 110.672C124.796 110.976 124.761 111.299 124.761 111.64V116H123.073ZM132.936 116.24C132.078 116.24 131.323 116.053 130.672 115.68C130.027 115.301 129.523 114.776 129.16 114.104C128.803 113.427 128.624 112.643 128.624 111.752C128.624 110.808 128.8 109.989 129.152 109.296C129.51 108.603 130.006 108.067 130.64 107.688C131.275 107.309 132.014 107.12 132.856 107.12C133.736 107.12 134.486 107.325 135.104 107.736C135.723 108.141 136.184 108.72 136.488 109.472C136.798 110.224 136.92 111.117 136.856 112.152H135.184V111.544C135.174 110.541 134.982 109.8 134.608 109.32C134.24 108.84 133.678 108.6 132.92 108.6C132.083 108.6 131.454 108.864 131.032 109.392C130.611 109.92 130.4 110.683 130.4 111.68C130.4 112.629 130.611 113.365 131.032 113.888C131.454 114.405 132.062 114.664 132.856 114.664C133.379 114.664 133.83 114.547 134.208 114.312C134.592 114.072 134.891 113.731 135.104 113.288L136.744 113.808C136.408 114.581 135.899 115.181 135.216 115.608C134.534 116.029 133.774 116.24 132.936 116.24ZM129.856 112.152V110.848H136.024V112.152H129.856Z" fill="#101828"/>
</svg>
