<svg width="360" height="196" viewBox="0 0 360 196" fill="none" xmlns="http://www.w3.org/2000/svg">
<rect x="0.5" y="0.5" width="359" height="195" rx="4.5" stroke="#9747FF" stroke-dasharray="10 5"/>
<path d="M24.338 33.18C23.478 33.18 22.752 32.99 22.16 32.61C21.568 32.226 21.12 31.696 20.816 31.02C20.512 30.344 20.36 29.564 20.36 28.68C20.36 27.796 20.512 27.016 20.816 26.34C21.12 25.664 21.568 25.136 22.16 24.756C22.752 24.372 23.478 24.18 24.338 24.18C25.342 24.18 26.162 24.438 26.798 24.954C27.434 25.466 27.87 26.154 28.106 27.018L27.206 27.252C27.022 26.568 26.692 26.026 26.216 25.626C25.74 25.226 25.114 25.026 24.338 25.026C23.662 25.026 23.1 25.18 22.652 25.488C22.204 25.796 21.866 26.226 21.638 26.778C21.414 27.326 21.298 27.96 21.29 28.68C21.286 29.4 21.396 30.034 21.62 30.582C21.848 31.13 22.188 31.56 22.64 31.872C23.096 32.18 23.662 32.334 24.338 32.334C25.114 32.334 25.74 32.134 26.216 31.734C26.692 31.33 27.022 30.788 27.206 30.108L28.106 30.342C27.87 31.206 27.434 31.896 26.798 32.412C26.162 32.924 25.342 33.18 24.338 33.18ZM31.2838 33.18C30.7958 33.18 30.3858 33.092 30.0538 32.916C29.7258 32.74 29.4798 32.506 29.3158 32.214C29.1518 31.922 29.0698 31.604 29.0698 31.26C29.0698 30.908 29.1398 30.608 29.2798 30.36C29.4238 30.108 29.6178 29.902 29.8618 29.742C30.1098 29.582 30.3958 29.46 30.7198 29.376C31.0478 29.296 31.4098 29.226 31.8058 29.166C32.2058 29.102 32.5958 29.048 32.9758 29.004C33.3598 28.956 33.6958 28.91 33.9838 28.866L33.6718 29.058C33.6838 28.418 33.5598 27.944 33.2998 27.636C33.0398 27.328 32.5878 27.174 31.9438 27.174C31.4998 27.174 31.1238 27.274 30.8158 27.474C30.5118 27.674 30.2978 27.99 30.1738 28.422L29.3158 28.17C29.4638 27.59 29.7618 27.14 30.2098 26.82C30.6578 26.5 31.2398 26.34 31.9558 26.34C32.5478 26.34 33.0498 26.452 33.4618 26.676C33.8778 26.896 34.1718 27.216 34.3438 27.636C34.4238 27.824 34.4758 28.034 34.4998 28.266C34.5238 28.498 34.5358 28.734 34.5358 28.974V33H33.7498V31.374L33.9778 31.47C33.7578 32.026 33.4158 32.45 32.9518 32.742C32.4878 33.034 31.9318 33.18 31.2838 33.18ZM31.3858 32.418C31.7978 32.418 32.1578 32.344 32.4658 32.196C32.7738 32.048 33.0218 31.846 33.2098 31.59C33.3978 31.33 33.5198 31.038 33.5758 30.714C33.6238 30.506 33.6498 30.278 33.6538 30.03C33.6578 29.778 33.6598 29.59 33.6598 29.466L33.9958 29.64C33.6958 29.68 33.3698 29.72 33.0178 29.76C32.6698 29.8 32.3258 29.846 31.9858 29.898C31.6498 29.95 31.3458 30.012 31.0738 30.084C30.8898 30.136 30.7118 30.21 30.5398 30.306C30.3678 30.398 30.2258 30.522 30.1138 30.678C30.0058 30.834 29.9518 31.028 29.9518 31.26C29.9518 31.448 29.9978 31.63 30.0898 31.806C30.1858 31.982 30.3378 32.128 30.5458 32.244C30.7578 32.36 31.0378 32.418 31.3858 32.418ZM36.0978 33V26.52H36.8898V28.08L36.7338 27.876C36.8058 27.684 36.8998 27.508 37.0158 27.348C37.1318 27.184 37.2578 27.05 37.3938 26.946C37.5618 26.798 37.7578 26.686 37.9818 26.61C38.2058 26.53 38.4318 26.484 38.6598 26.472C38.8878 26.456 39.0958 26.472 39.2838 26.52V27.348C39.0478 27.288 38.7898 27.274 38.5098 27.306C38.2298 27.338 37.9718 27.45 37.7358 27.642C37.5198 27.81 37.3578 28.012 37.2498 28.248C37.1418 28.48 37.0698 28.728 37.0338 28.992C36.9978 29.252 36.9798 29.51 36.9798 29.766V33H36.0978ZM50.5524 33L50.5584 28.746C50.5584 28.246 50.4184 27.854 50.1384 27.57C49.8624 27.282 49.5104 27.138 49.0824 27.138C48.8384 27.138 48.6004 27.194 48.3684 27.306C48.1364 27.418 47.9444 27.598 47.7924 27.846C47.6444 28.094 47.5704 28.418 47.5704 28.818L47.0484 28.668C47.0364 28.204 47.1264 27.798 47.3184 27.45C47.5144 27.102 47.7824 26.832 48.1224 26.64C48.4664 26.444 48.8544 26.346 49.2864 26.346C49.9384 26.346 50.4604 26.548 50.8524 26.952C51.2444 27.352 51.4404 27.894 51.4404 28.578L51.4344 33H50.5524ZM42.8184 33V26.52H43.6104V28.116H43.7064V33H42.8184ZM46.6944 33L46.7004 28.806C46.7004 28.29 46.5624 27.884 46.2864 27.588C46.0144 27.288 45.6544 27.138 45.2064 27.138C44.7584 27.138 44.3964 27.292 44.1204 27.6C43.8444 27.904 43.7064 28.31 43.7064 28.818L43.1784 28.53C43.1784 28.114 43.2764 27.742 43.4724 27.414C43.6684 27.082 43.9364 26.822 44.2764 26.634C44.6164 26.442 45.0024 26.346 45.4344 26.346C45.8464 26.346 46.2124 26.434 46.5324 26.61C46.8564 26.786 47.1104 27.042 47.2944 27.378C47.4784 27.714 47.5704 28.122 47.5704 28.602L47.5644 33H46.6944ZM53.1163 25.29V24.3H53.9983V25.29H53.1163ZM53.1163 33V26.52H53.9983V33H53.1163ZM55.917 33V24.18H56.799V33H55.917ZM61.3398 33.18C60.7078 33.18 60.1598 33.04 59.6958 32.76C59.2358 32.48 58.8778 32.086 58.6218 31.578C58.3658 31.07 58.2378 30.474 58.2378 29.79C58.2378 29.082 58.3638 28.47 58.6158 27.954C58.8678 27.438 59.2218 27.04 59.6778 26.76C60.1378 26.48 60.6798 26.34 61.3038 26.34C61.9438 26.34 62.4898 26.488 62.9418 26.784C63.3938 27.076 63.7358 27.496 63.9678 28.044C64.1998 28.592 64.3058 29.246 64.2858 30.006H63.3858V29.694C63.3698 28.854 63.1878 28.22 62.8398 27.792C62.4958 27.364 61.9918 27.15 61.3278 27.15C60.6318 27.15 60.0978 27.376 59.7258 27.828C59.3578 28.28 59.1738 28.924 59.1738 29.76C59.1738 30.576 59.3578 31.21 59.7258 31.662C60.0978 32.11 60.6238 32.334 61.3038 32.334C61.7678 32.334 62.1718 32.228 62.5158 32.016C62.8638 31.8 63.1378 31.49 63.3378 31.086L64.1598 31.404C63.9038 31.968 63.5258 32.406 63.0258 32.718C62.5298 33.026 61.9678 33.18 61.3398 33.18ZM58.8618 30.006V29.268H63.8118V30.006H58.8618ZM67.3542 33.18C66.8662 33.18 66.4562 33.092 66.1242 32.916C65.7962 32.74 65.5502 32.506 65.3862 32.214C65.2222 31.922 65.1402 31.604 65.1402 31.26C65.1402 30.908 65.2102 30.608 65.3502 30.36C65.4942 30.108 65.6882 29.902 65.9322 29.742C66.1802 29.582 66.4662 29.46 66.7902 29.376C67.1182 29.296 67.4802 29.226 67.8762 29.166C68.2762 29.102 68.6662 29.048 69.0462 29.004C69.4302 28.956 69.7662 28.91 70.0542 28.866L69.7422 29.058C69.7542 28.418 69.6302 27.944 69.3702 27.636C69.1102 27.328 68.6582 27.174 68.0142 27.174C67.5702 27.174 67.1942 27.274 66.8862 27.474C66.5822 27.674 66.3682 27.99 66.2442 28.422L65.3862 28.17C65.5342 27.59 65.8322 27.14 66.2802 26.82C66.7282 26.5 67.3102 26.34 68.0262 26.34C68.6182 26.34 69.1202 26.452 69.5322 26.676C69.9482 26.896 70.2422 27.216 70.4142 27.636C70.4942 27.824 70.5462 28.034 70.5702 28.266C70.5942 28.498 70.6062 28.734 70.6062 28.974V33H69.8202V31.374L70.0482 31.47C69.8282 32.026 69.4862 32.45 69.0222 32.742C68.5582 33.034 68.0022 33.18 67.3542 33.18ZM67.4562 32.418C67.8682 32.418 68.2282 32.344 68.5362 32.196C68.8442 32.048 69.0922 31.846 69.2802 31.59C69.4682 31.33 69.5902 31.038 69.6462 30.714C69.6942 30.506 69.7202 30.278 69.7242 30.03C69.7282 29.778 69.7302 29.59 69.7302 29.466L70.0662 29.64C69.7662 29.68 69.4402 29.72 69.0882 29.76C68.7402 29.8 68.3962 29.846 68.0562 29.898C67.7202 29.95 67.4162 30.012 67.1442 30.084C66.9602 30.136 66.7822 30.21 66.6102 30.306C66.4382 30.398 66.2962 30.522 66.1842 30.678C66.0762 30.834 66.0222 31.028 66.0222 31.26C66.0222 31.448 66.0682 31.63 66.1602 31.806C66.2562 31.982 66.4082 32.128 66.6162 32.244C66.8282 32.36 67.1082 32.418 67.4562 32.418ZM74.7421 36.06C74.4101 36.06 74.0821 36.01 73.7581 35.91C73.4381 35.814 73.1421 35.66 72.8701 35.448C72.5981 35.24 72.3701 34.968 72.1861 34.632L72.9841 34.188C73.1641 34.548 73.4161 34.806 73.7401 34.962C74.0681 35.122 74.4021 35.202 74.7421 35.202C75.2101 35.202 75.5881 35.114 75.8761 34.938C76.1681 34.766 76.3801 34.51 76.5121 34.17C76.6441 33.83 76.7081 33.406 76.7041 32.898V31.17H76.8061V26.52H77.5921V32.91C77.5921 33.094 77.5861 33.27 77.5741 33.438C77.5661 33.61 77.5481 33.778 77.5201 33.942C77.4441 34.426 77.2861 34.824 77.0461 35.136C76.8101 35.448 76.4981 35.68 76.1101 35.832C75.7261 35.984 75.2701 36.06 74.7421 36.06ZM74.6821 33.18C74.0781 33.18 73.5621 33.03 73.1341 32.73C72.7061 32.426 72.3781 32.016 72.1501 31.5C71.9221 30.984 71.8081 30.402 71.8081 29.754C71.8081 29.11 71.9201 28.53 72.1441 28.014C72.3721 27.498 72.6981 27.09 73.1221 26.79C73.5461 26.49 74.0541 26.34 74.6461 26.34C75.2541 26.34 75.7661 26.488 76.1821 26.784C76.5981 27.08 76.9121 27.486 77.1241 28.002C77.3401 28.514 77.4481 29.098 77.4481 29.754C77.4481 30.398 77.3421 30.98 77.1301 31.5C76.9181 32.016 76.6061 32.426 76.1941 32.73C75.7821 33.03 75.2781 33.18 74.6821 33.18ZM74.7721 32.358C75.2321 32.358 75.6121 32.246 75.9121 32.022C76.2121 31.798 76.4361 31.49 76.5841 31.098C76.7321 30.702 76.8061 30.254 76.8061 29.754C76.8061 29.246 76.7321 28.798 76.5841 28.41C76.4361 28.018 76.2121 27.712 75.9121 27.492C75.6161 27.272 75.2421 27.162 74.7901 27.162C74.3261 27.162 73.9421 27.276 73.6381 27.504C73.3341 27.732 73.1081 28.042 72.9601 28.434C72.8161 28.826 72.7441 29.266 72.7441 29.754C72.7441 30.246 72.8181 30.69 72.9661 31.086C73.1181 31.478 73.3441 31.788 73.6441 32.016C73.9441 32.244 74.3201 32.358 74.7721 32.358ZM82.0117 33.18C81.3797 33.18 80.8317 33.04 80.3677 32.76C79.9077 32.48 79.5497 32.086 79.2937 31.578C79.0377 31.07 78.9097 30.474 78.9097 29.79C78.9097 29.082 79.0357 28.47 79.2877 27.954C79.5397 27.438 79.8937 27.04 80.3497 26.76C80.8097 26.48 81.3517 26.34 81.9757 26.34C82.6157 26.34 83.1617 26.488 83.6137 26.784C84.0657 27.076 84.4077 27.496 84.6397 28.044C84.8717 28.592 84.9777 29.246 84.9577 30.006H84.0577V29.694C84.0417 28.854 83.8597 28.22 83.5117 27.792C83.1677 27.364 82.6637 27.15 81.9997 27.15C81.3037 27.15 80.7697 27.376 80.3977 27.828C80.0297 28.28 79.8457 28.924 79.8457 29.76C79.8457 30.576 80.0297 31.21 80.3977 31.662C80.7697 32.11 81.2957 32.334 81.9757 32.334C82.4397 32.334 82.8437 32.228 83.1877 32.016C83.5357 31.8 83.8097 31.49 84.0097 31.086L84.8317 31.404C84.5757 31.968 84.1977 32.406 83.6977 32.718C83.2017 33.026 82.6397 33.18 82.0117 33.18ZM79.5337 30.006V29.268H84.4837V30.006H79.5337ZM90.8756 24.36H91.7816L89.4776 33H88.5716L90.8756 24.36ZM95.7403 33L95.7463 24.36H96.6343V29.64L99.5263 26.52H100.702L97.6663 29.76L101.098 33H99.8143L96.6343 29.88V33H95.7403ZM109.427 33L109.433 28.746C109.433 28.246 109.293 27.854 109.013 27.57C108.737 27.282 108.385 27.138 107.957 27.138C107.713 27.138 107.475 27.194 107.243 27.306C107.011 27.418 106.819 27.598 106.667 27.846C106.519 28.094 106.445 28.418 106.445 28.818L105.923 28.668C105.911 28.204 106.001 27.798 106.193 27.45C106.389 27.102 106.657 26.832 106.997 26.64C107.341 26.444 107.729 26.346 108.161 26.346C108.813 26.346 109.335 26.548 109.727 26.952C110.119 27.352 110.315 27.894 110.315 28.578L110.309 33H109.427ZM101.693 33V26.52H102.485V28.116H102.581V33H101.693ZM105.569 33L105.575 28.806C105.575 28.29 105.437 27.884 105.161 27.588C104.889 27.288 104.529 27.138 104.081 27.138C103.633 27.138 103.271 27.292 102.995 27.6C102.719 27.904 102.581 28.31 102.581 28.818L102.053 28.53C102.053 28.114 102.151 27.742 102.347 27.414C102.543 27.082 102.811 26.822 103.151 26.634C103.491 26.442 103.877 26.346 104.309 26.346C104.721 26.346 105.087 26.434 105.407 26.61C105.731 26.786 105.985 27.042 106.169 27.378C106.353 27.714 106.445 28.122 106.445 28.602L106.439 33H105.569Z" fill="#8D929A"/>
<mask id="path-3-inside-1_1_815" fill="white">
<path d="M20 56C20 49.3726 25.3726 44 32 44H180V88H32C25.3726 88 20 82.6274 20 76V56Z"/>
</mask>
<path d="M20 56C20 49.3726 25.3726 44 32 44H180V88H32C25.3726 88 20 82.6274 20 76V56Z" fill="#F7F7F7"/>
<path d="M20 44H180H20ZM180 88H20H180ZM20 88V44V88ZM181 44V88H179V44H181Z" fill="#DADDE1" mask="url(#path-3-inside-1_1_815)"/>
<path d="M45.12 72V60.48H51.84V61.904H46.544V65.528H50.88V66.952H46.544V72H45.12ZM53.2763 72V63.36H54.5483V65.448L54.3403 65.176C54.4416 64.9093 54.5723 64.664 54.7323 64.44C54.8976 64.216 55.0816 64.032 55.2843 63.888C55.5083 63.7067 55.7616 63.568 56.0443 63.472C56.3269 63.376 56.6149 63.32 56.9083 63.304C57.2016 63.2827 57.4763 63.3013 57.7323 63.36V64.696C57.4336 64.616 57.1056 64.5947 56.7483 64.632C56.3909 64.6693 56.0603 64.8 55.7563 65.024C55.4789 65.2213 55.2629 65.4613 55.1083 65.744C54.9589 66.0267 54.8549 66.3333 54.7963 66.664C54.7376 66.9893 54.7083 67.3227 54.7083 67.664V72H53.2763ZM62.7688 72.24C61.9101 72.24 61.1688 72.0453 60.5448 71.656C59.9261 71.2667 59.4488 70.728 59.1128 70.04C58.7768 69.352 58.6088 68.5627 58.6088 67.672C58.6088 66.7653 58.7794 65.9707 59.1208 65.288C59.4621 64.6053 59.9448 64.0747 60.5688 63.696C61.1928 63.312 61.9261 63.12 62.7688 63.12C63.6328 63.12 64.3768 63.3147 65.0008 63.704C65.6248 64.088 66.1021 64.624 66.4328 65.312C66.7688 65.9947 66.9368 66.7813 66.9368 67.672C66.9368 68.5733 66.7688 69.368 66.4328 70.056C66.0968 70.7387 65.6168 71.2747 64.9928 71.664C64.3688 72.048 63.6274 72.24 62.7688 72.24ZM62.7688 70.888C63.6648 70.888 64.3314 70.5893 64.7688 69.992C65.2061 69.3947 65.4248 68.6213 65.4248 67.672C65.4248 66.696 65.2034 65.92 64.7608 65.344C64.3181 64.7627 63.6541 64.472 62.7688 64.472C62.1661 64.472 61.6701 64.608 61.2808 64.88C60.8914 65.152 60.6008 65.528 60.4088 66.008C60.2168 66.488 60.1208 67.0427 60.1208 67.672C60.1208 68.6427 60.3448 69.4213 60.7928 70.008C61.2408 70.5947 61.8994 70.888 62.7688 70.888ZM79.0261 72L79.0341 66.472C79.0341 65.8267 78.8608 65.3227 78.5141 64.96C78.1728 64.592 77.7275 64.408 77.1781 64.408C76.8581 64.408 76.5541 64.4827 76.2661 64.632C75.9781 64.776 75.7435 65.0053 75.5621 65.32C75.3808 65.6293 75.2901 66.0267 75.2901 66.512L74.5381 66.208C74.5275 65.5947 74.6528 65.0587 74.9141 64.6C75.1808 64.136 75.5435 63.776 76.0021 63.52C76.4608 63.264 76.9781 63.136 77.5541 63.136C78.4555 63.136 79.1648 63.4107 79.6821 63.96C80.1995 64.504 80.4581 65.2373 80.4581 66.16L80.4501 72H79.0261ZM68.6901 72V63.36H69.9621V65.672H70.1221V72H68.6901ZM73.8661 72L73.8741 66.528C73.8741 65.8667 73.7035 65.3493 73.3621 64.976C73.0208 64.5973 72.5675 64.408 72.0021 64.408C71.4421 64.408 70.9888 64.6 70.6421 64.984C70.2955 65.368 70.1221 65.8773 70.1221 66.512L69.3701 66.064C69.3701 65.504 69.5035 65.0027 69.7701 64.56C70.0368 64.1173 70.3995 63.7707 70.8581 63.52C71.3168 63.264 71.8368 63.136 72.4181 63.136C72.9995 63.136 73.5061 63.2587 73.9381 63.504C74.3701 63.7493 74.7035 64.1013 74.9381 64.56C75.1728 65.0133 75.2901 65.5547 75.2901 66.184L75.2821 72H73.8661Z" fill="#101828"/>
<path d="M180 44H328C334.627 44 340 49.3726 340 56V76C340 82.6274 334.627 88 328 88H180V44Z" fill="#F7F7F7"/>
<path d="M208.088 72V61.832H204.16V60.48H213.44V61.832H209.512V72H208.088ZM217.113 72.24C216.254 72.24 215.513 72.0453 214.889 71.656C214.27 71.2667 213.793 70.728 213.457 70.04C213.121 69.352 212.953 68.5627 212.953 67.672C212.953 66.7653 213.123 65.9707 213.465 65.288C213.806 64.6053 214.289 64.0747 214.913 63.696C215.537 63.312 216.27 63.12 217.113 63.12C217.977 63.12 218.721 63.3147 219.345 63.704C219.969 64.088 220.446 64.624 220.777 65.312C221.113 65.9947 221.281 66.7813 221.281 67.672C221.281 68.5733 221.113 69.368 220.777 70.056C220.441 70.7387 219.961 71.2747 219.337 71.664C218.713 72.048 217.971 72.24 217.113 72.24ZM217.113 70.888C218.009 70.888 218.675 70.5893 219.113 69.992C219.55 69.3947 219.769 68.6213 219.769 67.672C219.769 66.696 219.547 65.92 219.105 65.344C218.662 64.7627 217.998 64.472 217.113 64.472C216.51 64.472 216.014 64.608 215.625 64.88C215.235 65.152 214.945 65.528 214.753 66.008C214.561 66.488 214.465 67.0427 214.465 67.672C214.465 68.6427 214.689 69.4213 215.137 70.008C215.585 70.5947 216.243 70.888 217.113 70.888Z" fill="#101828"/>
<path d="M24.338 121.18C23.478 121.18 22.752 120.99 22.16 120.61C21.568 120.226 21.12 119.696 20.816 119.02C20.512 118.344 20.36 117.564 20.36 116.68C20.36 115.796 20.512 115.016 20.816 114.34C21.12 113.664 21.568 113.136 22.16 112.756C22.752 112.372 23.478 112.18 24.338 112.18C25.342 112.18 26.162 112.438 26.798 112.954C27.434 113.466 27.87 114.154 28.106 115.018L27.206 115.252C27.022 114.568 26.692 114.026 26.216 113.626C25.74 113.226 25.114 113.026 24.338 113.026C23.662 113.026 23.1 113.18 22.652 113.488C22.204 113.796 21.866 114.226 21.638 114.778C21.414 115.326 21.298 115.96 21.29 116.68C21.286 117.4 21.396 118.034 21.62 118.582C21.848 119.13 22.188 119.56 22.64 119.872C23.096 120.18 23.662 120.334 24.338 120.334C25.114 120.334 25.74 120.134 26.216 119.734C26.692 119.33 27.022 118.788 27.206 118.108L28.106 118.342C27.87 119.206 27.434 119.896 26.798 120.412C26.162 120.924 25.342 121.18 24.338 121.18ZM31.2838 121.18C30.7958 121.18 30.3858 121.092 30.0538 120.916C29.7258 120.74 29.4798 120.506 29.3158 120.214C29.1518 119.922 29.0698 119.604 29.0698 119.26C29.0698 118.908 29.1398 118.608 29.2798 118.36C29.4238 118.108 29.6178 117.902 29.8618 117.742C30.1098 117.582 30.3958 117.46 30.7198 117.376C31.0478 117.296 31.4098 117.226 31.8058 117.166C32.2058 117.102 32.5958 117.048 32.9758 117.004C33.3598 116.956 33.6958 116.91 33.9838 116.866L33.6718 117.058C33.6838 116.418 33.5598 115.944 33.2998 115.636C33.0398 115.328 32.5878 115.174 31.9438 115.174C31.4998 115.174 31.1238 115.274 30.8158 115.474C30.5118 115.674 30.2978 115.99 30.1738 116.422L29.3158 116.17C29.4638 115.59 29.7618 115.14 30.2098 114.82C30.6578 114.5 31.2398 114.34 31.9558 114.34C32.5478 114.34 33.0498 114.452 33.4618 114.676C33.8778 114.896 34.1718 115.216 34.3438 115.636C34.4238 115.824 34.4758 116.034 34.4998 116.266C34.5238 116.498 34.5358 116.734 34.5358 116.974V121H33.7498V119.374L33.9778 119.47C33.7578 120.026 33.4158 120.45 32.9518 120.742C32.4878 121.034 31.9318 121.18 31.2838 121.18ZM31.3858 120.418C31.7978 120.418 32.1578 120.344 32.4658 120.196C32.7738 120.048 33.0218 119.846 33.2098 119.59C33.3978 119.33 33.5198 119.038 33.5758 118.714C33.6238 118.506 33.6498 118.278 33.6538 118.03C33.6578 117.778 33.6598 117.59 33.6598 117.466L33.9958 117.64C33.6958 117.68 33.3698 117.72 33.0178 117.76C32.6698 117.8 32.3258 117.846 31.9858 117.898C31.6498 117.95 31.3458 118.012 31.0738 118.084C30.8898 118.136 30.7118 118.21 30.5398 118.306C30.3678 118.398 30.2258 118.522 30.1138 118.678C30.0058 118.834 29.9518 119.028 29.9518 119.26C29.9518 119.448 29.9978 119.63 30.0898 119.806C30.1858 119.982 30.3378 120.128 30.5458 120.244C30.7578 120.36 31.0378 120.418 31.3858 120.418ZM36.0978 121V114.52H36.8898V116.08L36.7338 115.876C36.8058 115.684 36.8998 115.508 37.0158 115.348C37.1318 115.184 37.2578 115.05 37.3938 114.946C37.5618 114.798 37.7578 114.686 37.9818 114.61C38.2058 114.53 38.4318 114.484 38.6598 114.472C38.8878 114.456 39.0958 114.472 39.2838 114.52V115.348C39.0478 115.288 38.7898 115.274 38.5098 115.306C38.2298 115.338 37.9718 115.45 37.7358 115.642C37.5198 115.81 37.3578 116.012 37.2498 116.248C37.1418 116.48 37.0698 116.728 37.0338 116.992C36.9978 117.252 36.9798 117.51 36.9798 117.766V121H36.0978ZM50.5524 121L50.5584 116.746C50.5584 116.246 50.4184 115.854 50.1384 115.57C49.8624 115.282 49.5104 115.138 49.0824 115.138C48.8384 115.138 48.6004 115.194 48.3684 115.306C48.1364 115.418 47.9444 115.598 47.7924 115.846C47.6444 116.094 47.5704 116.418 47.5704 116.818L47.0484 116.668C47.0364 116.204 47.1264 115.798 47.3184 115.45C47.5144 115.102 47.7824 114.832 48.1224 114.64C48.4664 114.444 48.8544 114.346 49.2864 114.346C49.9384 114.346 50.4604 114.548 50.8524 114.952C51.2444 115.352 51.4404 115.894 51.4404 116.578L51.4344 121H50.5524ZM42.8184 121V114.52H43.6104V116.116H43.7064V121H42.8184ZM46.6944 121L46.7004 116.806C46.7004 116.29 46.5624 115.884 46.2864 115.588C46.0144 115.288 45.6544 115.138 45.2064 115.138C44.7584 115.138 44.3964 115.292 44.1204 115.6C43.8444 115.904 43.7064 116.31 43.7064 116.818L43.1784 116.53C43.1784 116.114 43.2764 115.742 43.4724 115.414C43.6684 115.082 43.9364 114.822 44.2764 114.634C44.6164 114.442 45.0024 114.346 45.4344 114.346C45.8464 114.346 46.2124 114.434 46.5324 114.61C46.8564 114.786 47.1104 115.042 47.2944 115.378C47.4784 115.714 47.5704 116.122 47.5704 116.602L47.5644 121H46.6944ZM53.1163 113.29V112.3H53.9983V113.29H53.1163ZM53.1163 121V114.52H53.9983V121H53.1163ZM55.917 121V112.18H56.799V121H55.917ZM61.3398 121.18C60.7078 121.18 60.1598 121.04 59.6958 120.76C59.2358 120.48 58.8778 120.086 58.6218 119.578C58.3658 119.07 58.2378 118.474 58.2378 117.79C58.2378 117.082 58.3638 116.47 58.6158 115.954C58.8678 115.438 59.2218 115.04 59.6778 114.76C60.1378 114.48 60.6798 114.34 61.3038 114.34C61.9438 114.34 62.4898 114.488 62.9418 114.784C63.3938 115.076 63.7358 115.496 63.9678 116.044C64.1998 116.592 64.3058 117.246 64.2858 118.006H63.3858V117.694C63.3698 116.854 63.1878 116.22 62.8398 115.792C62.4958 115.364 61.9918 115.15 61.3278 115.15C60.6318 115.15 60.0978 115.376 59.7258 115.828C59.3578 116.28 59.1738 116.924 59.1738 117.76C59.1738 118.576 59.3578 119.21 59.7258 119.662C60.0978 120.11 60.6238 120.334 61.3038 120.334C61.7678 120.334 62.1718 120.228 62.5158 120.016C62.8638 119.8 63.1378 119.49 63.3378 119.086L64.1598 119.404C63.9038 119.968 63.5258 120.406 63.0258 120.718C62.5298 121.026 61.9678 121.18 61.3398 121.18ZM58.8618 118.006V117.268H63.8118V118.006H58.8618ZM67.3542 121.18C66.8662 121.18 66.4562 121.092 66.1242 120.916C65.7962 120.74 65.5502 120.506 65.3862 120.214C65.2222 119.922 65.1402 119.604 65.1402 119.26C65.1402 118.908 65.2102 118.608 65.3502 118.36C65.4942 118.108 65.6882 117.902 65.9322 117.742C66.1802 117.582 66.4662 117.46 66.7902 117.376C67.1182 117.296 67.4802 117.226 67.8762 117.166C68.2762 117.102 68.6662 117.048 69.0462 117.004C69.4302 116.956 69.7662 116.91 70.0542 116.866L69.7422 117.058C69.7542 116.418 69.6302 115.944 69.3702 115.636C69.1102 115.328 68.6582 115.174 68.0142 115.174C67.5702 115.174 67.1942 115.274 66.8862 115.474C66.5822 115.674 66.3682 115.99 66.2442 116.422L65.3862 116.17C65.5342 115.59 65.8322 115.14 66.2802 114.82C66.7282 114.5 67.3102 114.34 68.0262 114.34C68.6182 114.34 69.1202 114.452 69.5322 114.676C69.9482 114.896 70.2422 115.216 70.4142 115.636C70.4942 115.824 70.5462 116.034 70.5702 116.266C70.5942 116.498 70.6062 116.734 70.6062 116.974V121H69.8202V119.374L70.0482 119.47C69.8282 120.026 69.4862 120.45 69.0222 120.742C68.5582 121.034 68.0022 121.18 67.3542 121.18ZM67.4562 120.418C67.8682 120.418 68.2282 120.344 68.5362 120.196C68.8442 120.048 69.0922 119.846 69.2802 119.59C69.4682 119.33 69.5902 119.038 69.6462 118.714C69.6942 118.506 69.7202 118.278 69.7242 118.03C69.7282 117.778 69.7302 117.59 69.7302 117.466L70.0662 117.64C69.7662 117.68 69.4402 117.72 69.0882 117.76C68.7402 117.8 68.3962 117.846 68.0562 117.898C67.7202 117.95 67.4162 118.012 67.1442 118.084C66.9602 118.136 66.7822 118.21 66.6102 118.306C66.4382 118.398 66.2962 118.522 66.1842 118.678C66.0762 118.834 66.0222 119.028 66.0222 119.26C66.0222 119.448 66.0682 119.63 66.1602 119.806C66.2562 119.982 66.4082 120.128 66.6162 120.244C66.8282 120.36 67.1082 120.418 67.4562 120.418ZM74.7421 124.06C74.4101 124.06 74.0821 124.01 73.7581 123.91C73.4381 123.814 73.1421 123.66 72.8701 123.448C72.5981 123.24 72.3701 122.968 72.1861 122.632L72.9841 122.188C73.1641 122.548 73.4161 122.806 73.7401 122.962C74.0681 123.122 74.4021 123.202 74.7421 123.202C75.2101 123.202 75.5881 123.114 75.8761 122.938C76.1681 122.766 76.3801 122.51 76.5121 122.17C76.6441 121.83 76.7081 121.406 76.7041 120.898V119.17H76.8061V114.52H77.5921V120.91C77.5921 121.094 77.5861 121.27 77.5741 121.438C77.5661 121.61 77.5481 121.778 77.5201 121.942C77.4441 122.426 77.2861 122.824 77.0461 123.136C76.8101 123.448 76.4981 123.68 76.1101 123.832C75.7261 123.984 75.2701 124.06 74.7421 124.06ZM74.6821 121.18C74.0781 121.18 73.5621 121.03 73.1341 120.73C72.7061 120.426 72.3781 120.016 72.1501 119.5C71.9221 118.984 71.8081 118.402 71.8081 117.754C71.8081 117.11 71.9201 116.53 72.1441 116.014C72.3721 115.498 72.6981 115.09 73.1221 114.79C73.5461 114.49 74.0541 114.34 74.6461 114.34C75.2541 114.34 75.7661 114.488 76.1821 114.784C76.5981 115.08 76.9121 115.486 77.1241 116.002C77.3401 116.514 77.4481 117.098 77.4481 117.754C77.4481 118.398 77.3421 118.98 77.1301 119.5C76.9181 120.016 76.6061 120.426 76.1941 120.73C75.7821 121.03 75.2781 121.18 74.6821 121.18ZM74.7721 120.358C75.2321 120.358 75.6121 120.246 75.9121 120.022C76.2121 119.798 76.4361 119.49 76.5841 119.098C76.7321 118.702 76.8061 118.254 76.8061 117.754C76.8061 117.246 76.7321 116.798 76.5841 116.41C76.4361 116.018 76.2121 115.712 75.9121 115.492C75.6161 115.272 75.2421 115.162 74.7901 115.162C74.3261 115.162 73.9421 115.276 73.6381 115.504C73.3341 115.732 73.1081 116.042 72.9601 116.434C72.8161 116.826 72.7441 117.266 72.7441 117.754C72.7441 118.246 72.8181 118.69 72.9661 119.086C73.1181 119.478 73.3441 119.788 73.6441 120.016C73.9441 120.244 74.3201 120.358 74.7721 120.358ZM82.0117 121.18C81.3797 121.18 80.8317 121.04 80.3677 120.76C79.9077 120.48 79.5497 120.086 79.2937 119.578C79.0377 119.07 78.9097 118.474 78.9097 117.79C78.9097 117.082 79.0357 116.47 79.2877 115.954C79.5397 115.438 79.8937 115.04 80.3497 114.76C80.8097 114.48 81.3517 114.34 81.9757 114.34C82.6157 114.34 83.1617 114.488 83.6137 114.784C84.0657 115.076 84.4077 115.496 84.6397 116.044C84.8717 116.592 84.9777 117.246 84.9577 118.006H84.0577V117.694C84.0417 116.854 83.8597 116.22 83.5117 115.792C83.1677 115.364 82.6637 115.15 81.9997 115.15C81.3037 115.15 80.7697 115.376 80.3977 115.828C80.0297 116.28 79.8457 116.924 79.8457 117.76C79.8457 118.576 80.0297 119.21 80.3977 119.662C80.7697 120.11 81.2957 120.334 81.9757 120.334C82.4397 120.334 82.8437 120.228 83.1877 120.016C83.5357 119.8 83.8097 119.49 84.0097 119.086L84.8317 119.404C84.5757 119.968 84.1977 120.406 83.6977 120.718C83.2017 121.026 82.6397 121.18 82.0117 121.18ZM79.5337 118.006V117.268H84.4837V118.006H79.5337ZM90.8756 112.36H91.7816L89.4776 121H88.5716L90.8756 112.36ZM95.7403 121L95.7463 112.36H96.6343V117.64L99.5263 114.52H100.702L97.6663 117.76L101.098 121H99.8143L96.6343 117.88V121H95.7403ZM109.427 121L109.433 116.746C109.433 116.246 109.293 115.854 109.013 115.57C108.737 115.282 108.385 115.138 107.957 115.138C107.713 115.138 107.475 115.194 107.243 115.306C107.011 115.418 106.819 115.598 106.667 115.846C106.519 116.094 106.445 116.418 106.445 116.818L105.923 116.668C105.911 116.204 106.001 115.798 106.193 115.45C106.389 115.102 106.657 114.832 106.997 114.64C107.341 114.444 107.729 114.346 108.161 114.346C108.813 114.346 109.335 114.548 109.727 114.952C110.119 115.352 110.315 115.894 110.315 116.578L110.309 121H109.427ZM101.693 121V114.52H102.485V116.116H102.581V121H101.693ZM105.569 121L105.575 116.806C105.575 116.29 105.437 115.884 105.161 115.588C104.889 115.288 104.529 115.138 104.081 115.138C103.633 115.138 103.271 115.292 102.995 115.6C102.719 115.904 102.581 116.31 102.581 116.818L102.053 116.53C102.053 116.114 102.151 115.742 102.347 115.414C102.543 115.082 102.811 114.822 103.151 114.634C103.491 114.442 103.877 114.346 104.309 114.346C104.721 114.346 105.087 114.434 105.407 114.61C105.731 114.786 105.985 115.042 106.169 115.378C106.353 115.714 106.445 116.122 106.445 116.602L106.439 121H105.569Z" fill="#8D929A"/>
<mask id="path-9-inside-2_1_815" fill="white">
<path d="M20 144C20 137.373 25.3726 132 32 132H180V176H32C25.3726 176 20 170.627 20 164V144Z"/>
</mask>
<path d="M20 144C20 137.373 25.3726 132 32 132H180V176H32C25.3726 176 20 170.627 20 164V144Z" fill="#F7F7F7"/>
<path d="M20 132H180H20ZM180 176H20H180ZM20 176V132V176ZM181 132V176H179V132H181Z" fill="#DADDE1" mask="url(#path-9-inside-2_1_815)"/>
<path d="M45.12 160V148.48H51.84V149.904H46.544V153.528H50.88V154.952H46.544V160H45.12ZM53.2763 160V151.36H54.5483V153.448L54.3403 153.176C54.4416 152.909 54.5723 152.664 54.7323 152.44C54.8976 152.216 55.0816 152.032 55.2843 151.888C55.5083 151.707 55.7616 151.568 56.0443 151.472C56.3269 151.376 56.6149 151.32 56.9083 151.304C57.2016 151.283 57.4763 151.301 57.7323 151.36V152.696C57.4336 152.616 57.1056 152.595 56.7483 152.632C56.3909 152.669 56.0603 152.8 55.7563 153.024C55.4789 153.221 55.2629 153.461 55.1083 153.744C54.9589 154.027 54.8549 154.333 54.7963 154.664C54.7376 154.989 54.7083 155.323 54.7083 155.664V160H53.2763ZM62.7688 160.24C61.9101 160.24 61.1688 160.045 60.5448 159.656C59.9261 159.267 59.4488 158.728 59.1128 158.04C58.7768 157.352 58.6088 156.563 58.6088 155.672C58.6088 154.765 58.7794 153.971 59.1208 153.288C59.4621 152.605 59.9448 152.075 60.5688 151.696C61.1928 151.312 61.9261 151.12 62.7688 151.12C63.6328 151.12 64.3768 151.315 65.0008 151.704C65.6248 152.088 66.1021 152.624 66.4328 153.312C66.7688 153.995 66.9368 154.781 66.9368 155.672C66.9368 156.573 66.7688 157.368 66.4328 158.056C66.0968 158.739 65.6168 159.275 64.9928 159.664C64.3688 160.048 63.6274 160.24 62.7688 160.24ZM62.7688 158.888C63.6648 158.888 64.3314 158.589 64.7688 157.992C65.2061 157.395 65.4248 156.621 65.4248 155.672C65.4248 154.696 65.2034 153.92 64.7608 153.344C64.3181 152.763 63.6541 152.472 62.7688 152.472C62.1661 152.472 61.6701 152.608 61.2808 152.88C60.8914 153.152 60.6008 153.528 60.4088 154.008C60.2168 154.488 60.1208 155.043 60.1208 155.672C60.1208 156.643 60.3448 157.421 60.7928 158.008C61.2408 158.595 61.8994 158.888 62.7688 158.888ZM79.0261 160L79.0341 154.472C79.0341 153.827 78.8608 153.323 78.5141 152.96C78.1728 152.592 77.7275 152.408 77.1781 152.408C76.8581 152.408 76.5541 152.483 76.2661 152.632C75.9781 152.776 75.7435 153.005 75.5621 153.32C75.3808 153.629 75.2901 154.027 75.2901 154.512L74.5381 154.208C74.5275 153.595 74.6528 153.059 74.9141 152.6C75.1808 152.136 75.5435 151.776 76.0021 151.52C76.4608 151.264 76.9781 151.136 77.5541 151.136C78.4555 151.136 79.1648 151.411 79.6821 151.96C80.1995 152.504 80.4581 153.237 80.4581 154.16L80.4501 160H79.0261ZM68.6901 160V151.36H69.9621V153.672H70.1221V160H68.6901ZM73.8661 160L73.8741 154.528C73.8741 153.867 73.7035 153.349 73.3621 152.976C73.0208 152.597 72.5675 152.408 72.0021 152.408C71.4421 152.408 70.9888 152.6 70.6421 152.984C70.2955 153.368 70.1221 153.877 70.1221 154.512L69.3701 154.064C69.3701 153.504 69.5035 153.003 69.7701 152.56C70.0368 152.117 70.3995 151.771 70.8581 151.52C71.3168 151.264 71.8368 151.136 72.4181 151.136C72.9995 151.136 73.5061 151.259 73.9381 151.504C74.3701 151.749 74.7035 152.101 74.9381 152.56C75.1728 153.013 75.2901 153.555 75.2901 154.184L75.2821 160H73.8661ZM88.905 160.224C88.3343 160.224 87.8037 160.12 87.313 159.912C86.8223 159.699 86.3983 159.4 86.041 159.016C85.689 158.627 85.4303 158.165 85.265 157.632L86.633 157.24C86.809 157.773 87.1023 158.179 87.513 158.456C87.9237 158.733 88.385 158.869 88.897 158.864C89.3663 158.853 89.7717 158.747 90.113 158.544C90.4597 158.336 90.7263 158.053 90.913 157.696C91.105 157.339 91.201 156.925 91.201 156.456C91.201 155.741 90.9877 155.163 90.561 154.72C90.1343 154.272 89.5743 154.048 88.881 154.048C88.689 154.048 88.4863 154.075 88.273 154.128C88.065 154.181 87.8703 154.256 87.689 154.352L87.001 153.224L91.273 149.36L91.457 149.84H85.721V148.48H92.513V149.848L88.873 153.336L88.857 152.832C89.6197 152.779 90.2863 152.904 90.857 153.208C91.4277 153.512 91.8703 153.947 92.185 154.512C92.505 155.077 92.665 155.725 92.665 156.456C92.665 157.192 92.4997 157.843 92.169 158.408C91.8383 158.973 91.3903 159.419 90.825 159.744C90.2597 160.064 89.6197 160.224 88.905 160.224ZM94.585 161.792L94.673 161.128C94.897 161.144 95.065 161.101 95.177 161C95.289 160.899 95.361 160.76 95.393 160.584C95.425 160.408 95.4303 160.213 95.409 160H94.585V158.192H96.153V160.24C96.153 160.8 96.0143 161.221 95.737 161.504C95.465 161.787 95.081 161.883 94.585 161.792ZM103.086 160.24C102.339 160.24 101.673 160.072 101.086 159.736C100.505 159.395 100.043 158.933 99.7021 158.352C99.3661 157.765 99.1981 157.099 99.1981 156.352V152.128C99.1981 151.381 99.3661 150.715 99.7021 150.128C100.043 149.541 100.505 149.08 101.086 148.744C101.673 148.408 102.339 148.24 103.086 148.24C103.833 148.24 104.499 148.408 105.086 148.744C105.673 149.08 106.134 149.541 106.47 150.128C106.806 150.715 106.974 151.381 106.974 152.128V156.352C106.974 157.099 106.806 157.765 106.47 158.352C106.134 158.933 105.673 159.395 105.086 159.736C104.499 160.072 103.833 160.24 103.086 160.24ZM103.086 158.872C103.539 158.872 103.95 158.763 104.318 158.544C104.686 158.325 104.979 158.032 105.198 157.664C105.417 157.291 105.526 156.88 105.526 156.432V152.04C105.526 151.587 105.417 151.176 105.198 150.808C104.979 150.44 104.686 150.147 104.318 149.928C103.95 149.709 103.539 149.6 103.086 149.6C102.638 149.6 102.227 149.709 101.854 149.928C101.486 150.147 101.193 150.44 100.974 150.808C100.755 151.176 100.646 151.587 100.646 152.04V156.432C100.646 156.88 100.755 157.291 100.974 157.664C101.193 158.032 101.486 158.325 101.854 158.544C102.227 158.763 102.638 158.872 103.086 158.872ZM113.102 160.24C112.355 160.24 111.688 160.072 111.102 159.736C110.52 159.395 110.059 158.933 109.718 158.352C109.382 157.765 109.214 157.099 109.214 156.352V152.128C109.214 151.381 109.382 150.715 109.718 150.128C110.059 149.541 110.52 149.08 111.102 148.744C111.688 148.408 112.355 148.24 113.102 148.24C113.848 148.24 114.515 148.408 115.102 148.744C115.688 149.08 116.15 149.541 116.486 150.128C116.822 150.715 116.99 151.381 116.99 152.128V156.352C116.99 157.099 116.822 157.765 116.486 158.352C116.15 158.933 115.688 159.395 115.102 159.736C114.515 160.072 113.848 160.24 113.102 160.24ZM113.102 158.872C113.555 158.872 113.966 158.763 114.334 158.544C114.702 158.325 114.995 158.032 115.214 157.664C115.432 157.291 115.542 156.88 115.542 156.432V152.04C115.542 151.587 115.432 151.176 115.214 150.808C114.995 150.44 114.702 150.147 114.334 149.928C113.966 149.709 113.555 149.6 113.102 149.6C112.654 149.6 112.243 149.709 111.87 149.928C111.502 150.147 111.208 150.44 110.99 150.808C110.771 151.176 110.662 151.587 110.662 152.04V156.432C110.662 156.88 110.771 157.291 110.99 157.664C111.208 158.032 111.502 158.325 111.87 158.544C112.243 158.763 112.654 158.872 113.102 158.872ZM123.117 160.24C122.371 160.24 121.704 160.072 121.117 159.736C120.536 159.395 120.075 158.933 119.733 158.352C119.397 157.765 119.229 157.099 119.229 156.352V152.128C119.229 151.381 119.397 150.715 119.733 150.128C120.075 149.541 120.536 149.08 121.117 148.744C121.704 148.408 122.371 148.24 123.117 148.24C123.864 148.24 124.531 148.408 125.117 148.744C125.704 149.08 126.165 149.541 126.501 150.128C126.837 150.715 127.005 151.381 127.005 152.128V156.352C127.005 157.099 126.837 157.765 126.501 158.352C126.165 158.933 125.704 159.395 125.117 159.736C124.531 160.072 123.864 160.24 123.117 160.24ZM123.117 158.872C123.571 158.872 123.981 158.763 124.349 158.544C124.717 158.325 125.011 158.032 125.229 157.664C125.448 157.291 125.557 156.88 125.557 156.432V152.04C125.557 151.587 125.448 151.176 125.229 150.808C125.011 150.44 124.717 150.147 124.349 149.928C123.981 149.709 123.571 149.6 123.117 149.6C122.669 149.6 122.259 149.709 121.885 149.928C121.517 150.147 121.224 150.44 121.005 150.808C120.787 151.176 120.677 151.587 120.677 152.04V156.432C120.677 156.88 120.787 157.291 121.005 157.664C121.224 158.032 121.517 158.325 121.885 158.544C122.259 158.763 122.669 158.872 123.117 158.872Z" fill="#101828"/>
<path d="M180 132H328C334.627 132 340 137.373 340 144V164C340 170.627 334.627 176 328 176H180V132Z" fill="#F7F7F7"/>
<path d="M208.088 160V149.832H204.16V148.48H213.44V149.832H209.512V160H208.088ZM217.113 160.24C216.254 160.24 215.513 160.045 214.889 159.656C214.27 159.267 213.793 158.728 213.457 158.04C213.121 157.352 212.953 156.563 212.953 155.672C212.953 154.765 213.123 153.971 213.465 153.288C213.806 152.605 214.289 152.075 214.913 151.696C215.537 151.312 216.27 151.12 217.113 151.12C217.977 151.12 218.721 151.315 219.345 151.704C219.969 152.088 220.446 152.624 220.777 153.312C221.113 153.995 221.281 154.781 221.281 155.672C221.281 156.573 221.113 157.368 220.777 158.056C220.441 158.739 219.961 159.275 219.337 159.664C218.713 160.048 217.971 160.24 217.113 160.24ZM217.113 158.888C218.009 158.888 218.675 158.589 219.113 157.992C219.55 157.395 219.769 156.621 219.769 155.672C219.769 154.696 219.547 153.92 219.105 153.344C218.662 152.763 217.998 152.472 217.113 152.472C216.51 152.472 216.014 152.608 215.625 152.88C215.235 153.152 214.945 153.528 214.753 154.008C214.561 154.488 214.465 155.043 214.465 155.672C214.465 156.643 214.689 157.421 215.137 158.008C215.585 158.595 216.243 158.888 217.113 158.888ZM229.653 160.24C229.061 160.24 228.509 160.117 227.997 159.872C227.49 159.627 227.056 159.291 226.693 158.864C226.336 158.432 226.08 157.936 225.925 157.376L227.293 157.008C227.389 157.387 227.56 157.715 227.805 157.992C228.05 158.264 228.336 158.477 228.661 158.632C228.992 158.781 229.336 158.856 229.693 158.856C230.162 158.856 230.584 158.744 230.957 158.52C231.336 158.291 231.634 157.989 231.853 157.616C232.072 157.237 232.181 156.824 232.181 156.376C232.181 155.912 232.066 155.493 231.837 155.12C231.613 154.741 231.312 154.443 230.933 154.224C230.554 154.005 230.141 153.896 229.693 153.896C229.186 153.896 228.752 154.003 228.389 154.216C228.032 154.424 227.749 154.68 227.541 154.984L226.277 154.504L226.629 148.48H232.813V149.832H227.317L227.949 149.24L227.653 154.064L227.341 153.656C227.661 153.315 228.042 153.051 228.485 152.864C228.933 152.677 229.389 152.584 229.853 152.584C230.568 152.584 231.208 152.752 231.773 153.088C232.338 153.419 232.786 153.872 233.117 154.448C233.448 155.019 233.613 155.661 233.613 156.376C233.613 157.085 233.432 157.733 233.069 158.32C232.706 158.901 232.224 159.368 231.621 159.72C231.024 160.067 230.368 160.24 229.653 160.24ZM235.366 161.792L235.454 161.128C235.678 161.144 235.846 161.101 235.958 161C236.07 160.899 236.142 160.76 236.174 160.584C236.206 160.408 236.212 160.213 236.19 160H235.366V158.192H236.934V160.24C236.934 160.8 236.796 161.221 236.518 161.504C236.246 161.787 235.862 161.883 235.366 161.792ZM243.387 160.24C242.795 160.24 242.243 160.117 241.731 159.872C241.225 159.627 240.79 159.291 240.427 158.864C240.07 158.432 239.814 157.936 239.659 157.376L241.027 157.008C241.123 157.387 241.294 157.715 241.539 157.992C241.785 158.264 242.07 158.477 242.395 158.632C242.726 158.781 243.07 158.856 243.427 158.856C243.897 158.856 244.318 158.744 244.691 158.52C245.07 158.291 245.369 157.989 245.587 157.616C245.806 157.237 245.915 156.824 245.915 156.376C245.915 155.912 245.801 155.493 245.571 155.12C245.347 154.741 245.046 154.443 244.667 154.224C244.289 154.005 243.875 153.896 243.427 153.896C242.921 153.896 242.486 154.003 242.123 154.216C241.766 154.424 241.483 154.68 241.275 154.984L240.011 154.504L240.363 148.48H246.547V149.832H241.051L241.683 149.24L241.387 154.064L241.075 153.656C241.395 153.315 241.777 153.051 242.219 152.864C242.667 152.677 243.123 152.584 243.587 152.584C244.302 152.584 244.942 152.752 245.507 153.088C246.073 153.419 246.521 153.872 246.851 154.448C247.182 155.019 247.347 155.661 247.347 156.376C247.347 157.085 247.166 157.733 246.803 158.32C246.441 158.901 245.958 159.368 245.355 159.72C244.758 160.067 244.102 160.24 243.387 160.24ZM253.149 160.24C252.402 160.24 251.735 160.072 251.149 159.736C250.567 159.395 250.106 158.933 249.765 158.352C249.429 157.765 249.261 157.099 249.261 156.352V152.128C249.261 151.381 249.429 150.715 249.765 150.128C250.106 149.541 250.567 149.08 251.149 148.744C251.735 148.408 252.402 148.24 253.149 148.24C253.895 148.24 254.562 148.408 255.149 148.744C255.735 149.08 256.197 149.541 256.533 150.128C256.869 150.715 257.037 151.381 257.037 152.128V156.352C257.037 157.099 256.869 157.765 256.533 158.352C256.197 158.933 255.735 159.395 255.149 159.736C254.562 160.072 253.895 160.24 253.149 160.24ZM253.149 158.872C253.602 158.872 254.013 158.763 254.381 158.544C254.749 158.325 255.042 158.032 255.261 157.664C255.479 157.291 255.589 156.88 255.589 156.432V152.04C255.589 151.587 255.479 151.176 255.261 150.808C255.042 150.44 254.749 150.147 254.381 149.928C254.013 149.709 253.602 149.6 253.149 149.6C252.701 149.6 252.29 149.709 251.917 149.928C251.549 150.147 251.255 150.44 251.037 150.808C250.818 151.176 250.709 151.587 250.709 152.04V156.432C250.709 156.88 250.818 157.291 251.037 157.664C251.255 158.032 251.549 158.325 251.917 158.544C252.29 158.763 252.701 158.872 253.149 158.872ZM263.164 160.24C262.418 160.24 261.751 160.072 261.164 159.736C260.583 159.395 260.122 158.933 259.78 158.352C259.444 157.765 259.276 157.099 259.276 156.352V152.128C259.276 151.381 259.444 150.715 259.78 150.128C260.122 149.541 260.583 149.08 261.164 148.744C261.751 148.408 262.418 148.24 263.164 148.24C263.911 148.24 264.578 148.408 265.164 148.744C265.751 149.08 266.212 149.541 266.548 150.128C266.884 150.715 267.052 151.381 267.052 152.128V156.352C267.052 157.099 266.884 157.765 266.548 158.352C266.212 158.933 265.751 159.395 265.164 159.736C264.578 160.072 263.911 160.24 263.164 160.24ZM263.164 158.872C263.618 158.872 264.028 158.763 264.396 158.544C264.764 158.325 265.058 158.032 265.276 157.664C265.495 157.291 265.604 156.88 265.604 156.432V152.04C265.604 151.587 265.495 151.176 265.276 150.808C265.058 150.44 264.764 150.147 264.396 149.928C264.028 149.709 263.618 149.6 263.164 149.6C262.716 149.6 262.306 149.709 261.932 149.928C261.564 150.147 261.271 150.44 261.052 150.808C260.834 151.176 260.724 151.587 260.724 152.04V156.432C260.724 156.88 260.834 157.291 261.052 157.664C261.271 158.032 261.564 158.325 261.932 158.544C262.306 158.763 262.716 158.872 263.164 158.872Z" fill="#101828"/>
</svg>
