<svg width="668" height="344" viewBox="0 0 668 344" fill="none" xmlns="http://www.w3.org/2000/svg">
<g clip-path="url(#clip0_1_877)">
<path d="M20.84 33V24.36H24.176C24.26 24.36 24.354 24.364 24.458 24.372C24.566 24.376 24.674 24.388 24.782 24.408C25.234 24.476 25.616 24.634 25.928 24.882C26.244 25.126 26.482 25.434 26.642 25.806C26.806 26.178 26.888 26.59 26.888 27.042C26.888 27.49 26.806 27.9 26.642 28.272C26.478 28.644 26.238 28.954 25.922 29.202C25.61 29.446 25.23 29.602 24.782 29.67C24.674 29.686 24.566 29.698 24.458 29.706C24.354 29.714 24.26 29.718 24.176 29.718H21.722V33H20.84ZM21.722 28.878H24.152C24.224 28.878 24.308 28.874 24.404 28.866C24.5 28.858 24.594 28.844 24.686 28.824C24.982 28.76 25.224 28.638 25.412 28.458C25.604 28.278 25.746 28.064 25.838 27.816C25.934 27.568 25.982 27.31 25.982 27.042C25.982 26.774 25.934 26.516 25.838 26.268C25.746 26.016 25.604 25.8 25.412 25.62C25.224 25.44 24.982 25.318 24.686 25.254C24.594 25.234 24.5 25.222 24.404 25.218C24.308 25.21 24.224 25.206 24.152 25.206H21.722V28.878ZM28.0822 33V26.52H28.8742V28.08L28.7182 27.876C28.7902 27.684 28.8842 27.508 29.0002 27.348C29.1162 27.184 29.2422 27.05 29.3782 26.946C29.5462 26.798 29.7422 26.686 29.9662 26.61C30.1902 26.53 30.4162 26.484 30.6442 26.472C30.8722 26.456 31.0802 26.472 31.2682 26.52V27.348C31.0322 27.288 30.7742 27.274 30.4942 27.306C30.2142 27.338 29.9562 27.45 29.7202 27.642C29.5042 27.81 29.3422 28.012 29.2342 28.248C29.1262 28.48 29.0542 28.728 29.0182 28.992C28.9822 29.252 28.9642 29.51 28.9642 29.766V33H28.0822ZM32.5264 25.29V24.3H33.4084V25.29H32.5264ZM32.5264 33V26.52H33.4084V33H32.5264ZM37.8952 33.18C37.2432 33.18 36.6912 33.034 36.2392 32.742C35.7872 32.45 35.4432 32.048 35.2072 31.536C34.9752 31.02 34.8552 30.428 34.8472 29.76C34.8552 29.08 34.9792 28.484 35.2192 27.972C35.4592 27.456 35.8052 27.056 36.2572 26.772C36.7092 26.484 37.2572 26.34 37.9012 26.34C38.5572 26.34 39.1272 26.5 39.6112 26.82C40.0992 27.14 40.4332 27.578 40.6132 28.134L39.7492 28.41C39.5972 28.022 39.3552 27.722 39.0232 27.51C38.6952 27.294 38.3192 27.186 37.8952 27.186C37.4192 27.186 37.0252 27.296 36.7132 27.516C36.4012 27.732 36.1692 28.034 36.0172 28.422C35.8652 28.81 35.7872 29.256 35.7832 29.76C35.7912 30.536 35.9712 31.16 36.3232 31.632C36.6752 32.1 37.1992 32.334 37.8952 32.334C38.3352 32.334 38.7092 32.234 39.0172 32.034C39.3292 31.83 39.5652 31.534 39.7252 31.146L40.6132 31.41C40.3732 31.986 40.0212 32.426 39.5572 32.73C39.0932 33.03 38.5392 33.18 37.8952 33.18ZM44.4179 33.18C43.7859 33.18 43.2379 33.04 42.7739 32.76C42.3139 32.48 41.9559 32.086 41.6999 31.578C41.4439 31.07 41.3159 30.474 41.3159 29.79C41.3159 29.082 41.4419 28.47 41.6939 27.954C41.9459 27.438 42.2999 27.04 42.7559 26.76C43.2159 26.48 43.7579 26.34 44.3819 26.34C45.0219 26.34 45.5679 26.488 46.0199 26.784C46.4719 27.076 46.8139 27.496 47.0459 28.044C47.2779 28.592 47.3839 29.246 47.3639 30.006H46.4639V29.694C46.4479 28.854 46.2659 28.22 45.9179 27.792C45.5739 27.364 45.0699 27.15 44.4059 27.15C43.7099 27.15 43.1759 27.376 42.8039 27.828C42.4359 28.28 42.2519 28.924 42.2519 29.76C42.2519 30.576 42.4359 31.21 42.8039 31.662C43.1759 32.11 43.7019 32.334 44.3819 32.334C44.8459 32.334 45.2499 32.228 45.5939 32.016C45.9419 31.8 46.2159 31.49 46.4159 31.086L47.2379 31.404C46.9819 31.968 46.6039 32.406 46.1039 32.718C45.6079 33.026 45.0459 33.18 44.4179 33.18ZM41.9399 30.006V29.268H46.8899V30.006H41.9399ZM50.8795 24.36H51.7855L49.4815 33H48.5755L50.8795 24.36ZM57.2562 33V25.344L55.6302 26.322V25.332L57.2562 24.36H58.1502V33H57.2562ZM67.5083 33V29.694C67.5083 29.334 67.4743 29.004 67.4063 28.704C67.3383 28.4 67.2283 28.136 67.0763 27.912C66.9283 27.684 66.7343 27.508 66.4943 27.384C66.2583 27.26 65.9703 27.198 65.6303 27.198C65.3183 27.198 65.0423 27.252 64.8023 27.36C64.5663 27.468 64.3663 27.624 64.2023 27.828C64.0423 28.028 63.9203 28.272 63.8363 28.56C63.7523 28.848 63.7103 29.176 63.7103 29.544L63.0863 29.406C63.0863 28.742 63.2023 28.184 63.4343 27.732C63.6663 27.28 63.9863 26.938 64.3943 26.706C64.8023 26.474 65.2703 26.358 65.7983 26.358C66.1863 26.358 66.5243 26.418 66.8123 26.538C67.1043 26.658 67.3503 26.82 67.5503 27.024C67.7543 27.228 67.9183 27.462 68.0423 27.726C68.1663 27.986 68.2563 28.264 68.3123 28.56C68.3683 28.852 68.3963 29.144 68.3963 29.436V33H67.5083ZM62.8223 33V24.36H63.6203V29.238H63.7103V33H62.8223ZM72.6593 33.18C72.0153 33.18 71.4653 33.034 71.0093 32.742C70.5533 32.45 70.2033 32.046 69.9593 31.53C69.7153 31.014 69.5933 30.422 69.5933 29.754C69.5933 29.074 69.7173 28.478 69.9653 27.966C70.2133 27.454 70.5653 27.056 71.0213 26.772C71.4813 26.484 72.0273 26.34 72.6593 26.34C73.3073 26.34 73.8593 26.486 74.3153 26.778C74.7753 27.066 75.1253 27.468 75.3653 27.984C75.6093 28.496 75.7313 29.086 75.7313 29.754C75.7313 30.434 75.6093 31.032 75.3653 31.548C75.1213 32.06 74.7693 32.46 74.3093 32.748C73.8493 33.036 73.2993 33.18 72.6593 33.18ZM72.6593 32.334C73.3793 32.334 73.9153 32.096 74.2673 31.62C74.6193 31.14 74.7953 30.518 74.7953 29.754C74.7953 28.97 74.6173 28.346 74.2613 27.882C73.9093 27.418 73.3753 27.186 72.6593 27.186C72.1753 27.186 71.7753 27.296 71.4593 27.516C71.1473 27.732 70.9133 28.034 70.7573 28.422C70.6053 28.806 70.5293 29.25 70.5293 29.754C70.5293 30.534 70.7093 31.16 71.0693 31.632C71.4293 32.1 71.9593 32.334 72.6593 32.334ZM79.5328 33.162C79.1448 33.162 78.8048 33.102 78.5128 32.982C78.2248 32.862 77.9788 32.7 77.7748 32.496C77.5748 32.292 77.4128 32.06 77.2888 31.8C77.1648 31.536 77.0748 31.258 77.0188 30.966C76.9628 30.67 76.9348 30.376 76.9348 30.084V26.52H77.8228V29.826C77.8228 30.182 77.8568 30.512 77.9248 30.816C77.9928 31.12 78.1008 31.386 78.2488 31.614C78.4008 31.838 78.5948 32.012 78.8308 32.136C79.0708 32.26 79.3608 32.322 79.7008 32.322C80.0128 32.322 80.2868 32.268 80.5228 32.16C80.7628 32.052 80.9628 31.898 81.1228 31.698C81.2868 31.494 81.4108 31.248 81.4948 30.96C81.5788 30.668 81.6208 30.34 81.6208 29.976L82.2448 30.114C82.2448 30.778 82.1288 31.336 81.8968 31.788C81.6648 32.24 81.3448 32.582 80.9368 32.814C80.5288 33.046 80.0608 33.162 79.5328 33.162ZM81.7108 33V31.404H81.6208V26.52H82.5028V33H81.7108ZM84.1798 33V26.52H84.9718V28.08L84.8158 27.876C84.8878 27.684 84.9818 27.508 85.0978 27.348C85.2138 27.184 85.3398 27.05 85.4758 26.946C85.6438 26.798 85.8398 26.686 86.0638 26.61C86.2878 26.53 86.5138 26.484 86.7418 26.472C86.9698 26.456 87.1778 26.472 87.3658 26.52V27.348C87.1298 27.288 86.8718 27.274 86.5918 27.306C86.3118 27.338 86.0538 27.45 85.8178 27.642C85.6018 27.81 85.4398 28.012 85.3318 28.248C85.2238 28.48 85.1518 28.728 85.1158 28.992C85.0798 29.252 85.0618 29.51 85.0618 29.766V33H84.1798Z" fill="#8D929A"/>
<rect x="20" y="44" width="196" height="44" rx="12" fill="#F7F7F7"/>
<path d="M41.856 72.24C40.7093 72.24 39.736 71.9867 38.936 71.48C38.136 70.9733 37.5253 70.2693 37.104 69.368C36.688 68.4667 36.48 67.424 36.48 66.24C36.48 65.056 36.688 64.0133 37.104 63.112C37.5253 62.2107 38.136 61.5067 38.936 61C39.736 60.4933 40.7093 60.24 41.856 60.24C43.1893 60.24 44.2853 60.5787 45.144 61.256C46.008 61.9333 46.6027 62.8453 46.928 63.992L45.48 64.376C45.2453 63.5173 44.8267 62.84 44.224 62.344C43.6213 61.848 42.832 61.6 41.856 61.6C40.9973 61.6 40.2827 61.7947 39.712 62.184C39.1413 62.5733 38.712 63.1173 38.424 63.816C38.136 64.5093 37.9893 65.3173 37.984 66.24C37.9787 67.1573 38.12 67.9653 38.408 68.664C38.696 69.3573 39.128 69.9013 39.704 70.296C40.28 70.6853 40.9973 70.88 41.856 70.88C42.832 70.88 43.6213 70.632 44.224 70.136C44.8267 69.6347 45.2453 68.9573 45.48 68.104L46.928 68.488C46.6027 69.6293 46.008 70.5413 45.144 71.224C44.2853 71.9013 43.1893 72.24 41.856 72.24ZM54.8345 72V67.672C54.8345 67.2613 54.7972 66.8667 54.7225 66.488C54.6532 66.1093 54.5278 65.7707 54.3465 65.472C54.1705 65.168 53.9305 64.928 53.6265 64.752C53.3278 64.576 52.9492 64.488 52.4905 64.488C52.1332 64.488 51.8078 64.5493 51.5145 64.672C51.2265 64.7893 50.9785 64.9707 50.7705 65.216C50.5625 65.4613 50.3998 65.7707 50.2825 66.144C50.1705 66.512 50.1145 66.9467 50.1145 67.448L49.1785 67.16C49.1785 66.3227 49.3278 65.6053 49.6265 65.008C49.9305 64.4053 50.3545 63.944 50.8985 63.624C51.4478 63.2987 52.0932 63.136 52.8345 63.136C53.3945 63.136 53.8718 63.224 54.2665 63.4C54.6612 63.576 54.9892 63.8107 55.2505 64.104C55.5118 64.392 55.7172 64.7173 55.8665 65.08C56.0158 65.4373 56.1198 65.8027 56.1785 66.176C56.2425 66.544 56.2745 66.8933 56.2745 67.224V72H54.8345ZM48.6745 72V60.48H49.9545V66.84H50.1145V72H48.6745ZM62.0344 72.24C61.1757 72.24 60.4344 72.0453 59.8104 71.656C59.1917 71.2667 58.7144 70.728 58.3784 70.04C58.0424 69.352 57.8744 68.5627 57.8744 67.672C57.8744 66.7653 58.045 65.9707 58.3864 65.288C58.7277 64.6053 59.2104 64.0747 59.8344 63.696C60.4584 63.312 61.1917 63.12 62.0344 63.12C62.8984 63.12 63.6424 63.3147 64.2664 63.704C64.8904 64.088 65.3677 64.624 65.6984 65.312C66.0344 65.9947 66.2024 66.7813 66.2024 67.672C66.2024 68.5733 66.0344 69.368 65.6984 70.056C65.3624 70.7387 64.8824 71.2747 64.2584 71.664C63.6344 72.048 62.893 72.24 62.0344 72.24ZM62.0344 70.888C62.9304 70.888 63.597 70.5893 64.0344 69.992C64.4717 69.3947 64.6904 68.6213 64.6904 67.672C64.6904 66.696 64.469 65.92 64.0264 65.344C63.5837 64.7627 62.9197 64.472 62.0344 64.472C61.4317 64.472 60.9357 64.608 60.5464 64.88C60.157 65.152 59.8664 65.528 59.6744 66.008C59.4824 66.488 59.3864 67.0427 59.3864 67.672C59.3864 68.6427 59.6104 69.4213 60.0584 70.008C60.5064 70.5947 61.165 70.888 62.0344 70.888ZM71.6438 72.24C70.7851 72.24 70.0438 72.0453 69.4198 71.656C68.8011 71.2667 68.3238 70.728 67.9878 70.04C67.6518 69.352 67.4838 68.5627 67.4838 67.672C67.4838 66.7653 67.6544 65.9707 67.9958 65.288C68.3371 64.6053 68.8198 64.0747 69.4438 63.696C70.0678 63.312 70.8011 63.12 71.6438 63.12C72.5078 63.12 73.2518 63.3147 73.8758 63.704C74.4998 64.088 74.9771 64.624 75.3078 65.312C75.6438 65.9947 75.8118 66.7813 75.8118 67.672C75.8118 68.5733 75.6438 69.368 75.3078 70.056C74.9718 70.7387 74.4918 71.2747 73.8678 71.664C73.2438 72.048 72.5024 72.24 71.6438 72.24ZM71.6438 70.888C72.5398 70.888 73.2064 70.5893 73.6438 69.992C74.0811 69.3947 74.2998 68.6213 74.2998 67.672C74.2998 66.696 74.0784 65.92 73.6358 65.344C73.1931 64.7627 72.5291 64.472 71.6438 64.472C71.0411 64.472 70.5451 64.608 70.1558 64.88C69.7664 65.152 69.4758 65.528 69.2838 66.008C69.0918 66.488 68.9958 67.0427 68.9958 67.672C68.9958 68.6427 69.2198 69.4213 69.6678 70.008C70.1158 70.5947 70.7744 70.888 71.6438 70.888ZM80.7121 72.232C79.6828 72.232 78.8375 72.008 78.1761 71.56C77.5201 71.1067 77.1175 70.4747 76.9681 69.664L78.4241 69.432C78.5415 69.9013 78.8108 70.2747 79.2321 70.552C79.6535 70.824 80.1761 70.96 80.8001 70.96C81.3921 70.96 81.8561 70.8373 82.1921 70.592C82.5281 70.3467 82.6961 70.0133 82.6961 69.592C82.6961 69.3467 82.6401 69.1493 82.5281 69C82.4161 68.8453 82.1841 68.7013 81.8321 68.568C81.4855 68.4347 80.9601 68.2747 80.2561 68.088C79.4935 67.8853 78.8935 67.6747 78.4561 67.456C78.0188 67.2373 77.7068 66.984 77.5201 66.696C77.3335 66.408 77.2401 66.0587 77.2401 65.648C77.2401 65.1413 77.3788 64.6987 77.6561 64.32C77.9335 63.936 78.3201 63.64 78.8161 63.432C79.3175 63.224 79.8988 63.12 80.5601 63.12C81.2161 63.12 81.8028 63.224 82.3201 63.432C82.8375 63.64 83.2535 63.936 83.5681 64.32C83.8881 64.6987 84.0775 65.1413 84.1361 65.648L82.6801 65.912C82.6108 65.448 82.3868 65.0827 82.0081 64.816C81.6348 64.5493 81.1521 64.408 80.5601 64.392C80.0001 64.3707 79.5441 64.4693 79.1921 64.688C78.8455 64.9067 78.6721 65.2027 78.6721 65.576C78.6721 65.784 78.7361 65.9627 78.8641 66.112C78.9975 66.2613 79.2401 66.4027 79.5921 66.536C79.9495 66.6693 80.4668 66.8213 81.1441 66.992C81.9068 67.184 82.5068 67.3947 82.9441 67.624C83.3868 67.848 83.7015 68.1147 83.8881 68.424C84.0748 68.728 84.1681 69.104 84.1681 69.552C84.1681 70.384 83.8615 71.04 83.2481 71.52C82.6348 71.9947 81.7895 72.232 80.7121 72.232ZM89.6765 72.24C88.8285 72.24 88.0872 72.0533 87.4525 71.68C86.8232 71.3013 86.3325 70.776 85.9805 70.104C85.6285 69.4267 85.4525 68.6373 85.4525 67.736C85.4525 66.792 85.6258 65.976 85.9725 65.288C86.3192 64.5947 86.8018 64.0613 87.4205 63.688C88.0445 63.3093 88.7752 63.12 89.6125 63.12C90.4818 63.12 91.2205 63.32 91.8285 63.72C92.4418 64.12 92.9005 64.6907 93.2045 65.432C93.5138 66.1733 93.6472 67.056 93.6045 68.08H92.1645V67.568C92.1485 66.5067 91.9325 65.7147 91.5165 65.192C91.1005 64.664 90.4818 64.4 89.6605 64.4C88.7805 64.4 88.1112 64.6827 87.6525 65.248C87.1938 65.8133 86.9645 66.624 86.9645 67.68C86.9645 68.6987 87.1938 69.488 87.6525 70.048C88.1112 70.608 88.7645 70.888 89.6125 70.888C90.1832 70.888 90.6792 70.7573 91.1005 70.496C91.5218 70.2347 91.8525 69.8587 92.0925 69.368L93.4605 69.84C93.1245 70.6027 92.6178 71.1947 91.9405 71.616C91.2685 72.032 90.5138 72.24 89.6765 72.24ZM86.4845 68.08V66.936H92.8685V68.08H86.4845ZM101.045 72.24C100.399 72.24 99.8581 72.1227 99.4208 71.888C98.9888 71.648 98.6608 71.3333 98.4368 70.944C98.2181 70.5547 98.1088 70.128 98.1088 69.664C98.1088 69.2107 98.1941 68.8187 98.3648 68.488C98.5408 68.152 98.7861 67.8747 99.1008 67.656C99.4154 67.432 99.7914 67.256 100.229 67.128C100.639 67.016 101.098 66.92 101.605 66.84C102.117 66.7547 102.634 66.6773 103.157 66.608C103.679 66.5387 104.167 66.472 104.621 66.408L104.109 66.704C104.125 65.936 103.97 65.368 103.645 65C103.325 64.632 102.77 64.448 101.981 64.448C101.458 64.448 100.999 64.568 100.605 64.808C100.215 65.0427 99.9408 65.4267 99.7808 65.96L98.4288 65.552C98.6368 64.7947 99.0394 64.2 99.6368 63.768C100.234 63.336 101.021 63.12 101.997 63.12C102.781 63.12 103.453 63.2613 104.013 63.544C104.578 63.8213 104.983 64.2427 105.229 64.808C105.351 65.0747 105.429 65.3653 105.461 65.68C105.493 65.9893 105.509 66.3147 105.509 66.656V72H104.245V69.928L104.541 70.12C104.215 70.8187 103.759 71.3467 103.173 71.704C102.591 72.0613 101.882 72.24 101.045 72.24ZM101.261 71.048C101.773 71.048 102.215 70.9573 102.589 70.776C102.967 70.5893 103.271 70.3467 103.501 70.048C103.73 69.744 103.879 69.4133 103.949 69.056C104.029 68.7893 104.071 68.4933 104.077 68.168C104.087 67.8373 104.093 67.584 104.093 67.408L104.589 67.624C104.125 67.688 103.669 67.7493 103.221 67.808C102.773 67.8667 102.349 67.9307 101.949 68C101.549 68.064 101.189 68.1413 100.869 68.232C100.634 68.3067 100.413 68.4027 100.205 68.52C100.002 68.6373 99.8368 68.7893 99.7088 68.976C99.5861 69.1573 99.5247 69.384 99.5247 69.656C99.5247 69.8907 99.5834 70.1147 99.7008 70.328C99.8234 70.5413 100.01 70.7147 100.261 70.848C100.517 70.9813 100.85 71.048 101.261 71.048ZM114.76 72.24C113.949 72.24 113.267 72.04 112.712 71.64C112.157 71.2347 111.736 70.688 111.448 70C111.165 69.3067 111.024 68.5307 111.024 67.672C111.024 66.8027 111.165 66.024 111.448 65.336C111.736 64.648 112.157 64.1067 112.712 63.712C113.272 63.3173 113.957 63.12 114.768 63.12C115.568 63.12 116.256 63.32 116.832 63.72C117.413 64.1147 117.859 64.656 118.168 65.344C118.477 66.032 118.632 66.808 118.632 67.672C118.632 68.536 118.477 69.312 118.168 70C117.859 70.688 117.413 71.2347 116.832 71.64C116.256 72.04 115.565 72.24 114.76 72.24ZM110.784 75.84V63.36H112.056V69.72H112.216V75.84H110.784ZM114.584 70.936C115.155 70.936 115.627 70.792 116 70.504C116.373 70.216 116.653 69.8267 116.84 69.336C117.027 68.84 117.12 68.2853 117.12 67.672C117.12 67.064 117.027 66.5147 116.84 66.024C116.659 65.5333 116.376 65.144 115.992 64.856C115.613 64.568 115.131 64.424 114.544 64.424C113.984 64.424 113.52 64.5627 113.152 64.84C112.784 65.112 112.509 65.4933 112.328 65.984C112.147 66.4693 112.056 67.032 112.056 67.672C112.056 68.3013 112.144 68.864 112.32 69.36C112.501 69.8507 112.779 70.2373 113.152 70.52C113.525 70.7973 114.003 70.936 114.584 70.936ZM120.386 72V63.36H121.658V65.448L121.45 65.176C121.551 64.9093 121.682 64.664 121.842 64.44C122.007 64.216 122.191 64.032 122.394 63.888C122.618 63.7067 122.871 63.568 123.154 63.472C123.436 63.376 123.724 63.32 124.018 63.304C124.311 63.2827 124.586 63.3013 124.842 63.36V64.696C124.543 64.616 124.215 64.5947 123.858 64.632C123.5 64.6693 123.17 64.8 122.866 65.024C122.588 65.2213 122.372 65.4613 122.218 65.744C122.068 66.0267 121.964 66.3333 121.906 66.664C121.847 66.9893 121.818 67.3227 121.818 67.664V72H120.386ZM126.514 61.832V60.36H127.938V61.832H126.514ZM126.514 72V63.36H127.938V72H126.514ZM133.979 72.24C133.104 72.24 132.36 72.0453 131.747 71.656C131.139 71.2613 130.675 70.72 130.355 70.032C130.035 69.344 129.869 68.56 129.859 67.68C129.869 66.7787 130.037 65.9867 130.363 65.304C130.693 64.616 131.165 64.08 131.779 63.696C132.392 63.312 133.131 63.12 133.995 63.12C134.907 63.12 135.691 63.344 136.347 63.792C137.008 64.24 137.451 64.8533 137.675 65.632L136.267 66.056C136.085 65.5547 135.789 65.1653 135.379 64.888C134.973 64.6107 134.507 64.472 133.979 64.472C133.387 64.472 132.899 64.6107 132.515 64.888C132.131 65.16 131.845 65.5387 131.659 66.024C131.472 66.504 131.376 67.056 131.371 67.68C131.381 68.64 131.603 69.416 132.035 70.008C132.472 70.5947 133.12 70.888 133.979 70.888C134.544 70.888 135.013 70.76 135.387 70.504C135.76 70.2427 136.043 69.8667 136.235 69.376L137.675 69.752C137.376 70.5573 136.909 71.1733 136.275 71.6C135.64 72.0267 134.875 72.24 133.979 72.24ZM142.817 72.24C141.969 72.24 141.228 72.0533 140.593 71.68C139.964 71.3013 139.473 70.776 139.121 70.104C138.769 69.4267 138.593 68.6373 138.593 67.736C138.593 66.792 138.766 65.976 139.113 65.288C139.46 64.5947 139.942 64.0613 140.561 63.688C141.185 63.3093 141.916 63.12 142.753 63.12C143.622 63.12 144.361 63.32 144.969 63.72C145.582 64.12 146.041 64.6907 146.345 65.432C146.654 66.1733 146.788 67.056 146.745 68.08H145.305V67.568C145.289 66.5067 145.073 65.7147 144.657 65.192C144.241 64.664 143.622 64.4 142.801 64.4C141.921 64.4 141.252 64.6827 140.793 65.248C140.334 65.8133 140.105 66.624 140.105 67.68C140.105 68.6987 140.334 69.488 140.793 70.048C141.252 70.608 141.905 70.888 142.753 70.888C143.324 70.888 143.82 70.7573 144.241 70.496C144.662 70.2347 144.993 69.8587 145.233 69.368L146.601 69.84C146.265 70.6027 145.758 71.1947 145.081 71.616C144.409 72.032 143.654 72.24 142.817 72.24ZM139.625 68.08V66.936H146.009V68.08H139.625Z" fill="#101828"/>
<path fill-rule="evenodd" clip-rule="evenodd" d="M183.147 62.1469C183.193 62.1003 183.249 62.0634 183.309 62.0382C183.37 62.013 183.435 62 183.501 62C183.567 62 183.632 62.013 183.693 62.0382C183.753 62.0634 183.808 62.1003 183.855 62.1469L189.501 67.7939L195.147 62.1469C195.193 62.1004 195.249 62.0635 195.309 62.0384C195.37 62.0132 195.435 62.0003 195.501 62.0003C195.567 62.0003 195.632 62.0132 195.692 62.0384C195.753 62.0635 195.808 62.1004 195.855 62.1469C195.901 62.1934 195.938 62.2486 195.963 62.3093C195.989 62.37 196.002 62.4351 196.002 62.5009C196.002 62.5666 195.989 62.6317 195.963 62.6925C195.938 62.7532 195.901 62.8084 195.855 62.8549L189.855 68.8549C189.808 68.9015 189.753 68.9384 189.693 68.9636C189.632 68.9888 189.567 69.0018 189.501 69.0018C189.435 69.0018 189.37 68.9888 189.309 68.9636C189.249 68.9384 189.193 68.9015 189.147 68.8549L183.147 62.8549C183.1 62.8084 183.063 62.7533 183.038 62.6925C183.013 62.6318 183 62.5667 183 62.5009C183 62.4351 183.013 62.37 183.038 62.3093C183.063 62.2485 183.1 62.1933 183.147 62.1469Z" fill="#101828"/>
<path d="M236.84 33V24.36H240.176C240.26 24.36 240.354 24.364 240.458 24.372C240.566 24.376 240.674 24.388 240.782 24.408C241.234 24.476 241.616 24.634 241.928 24.882C242.244 25.126 242.482 25.434 242.642 25.806C242.806 26.178 242.888 26.59 242.888 27.042C242.888 27.49 242.806 27.9 242.642 28.272C242.478 28.644 242.238 28.954 241.922 29.202C241.61 29.446 241.23 29.602 240.782 29.67C240.674 29.686 240.566 29.698 240.458 29.706C240.354 29.714 240.26 29.718 240.176 29.718H237.722V33H236.84ZM237.722 28.878H240.152C240.224 28.878 240.308 28.874 240.404 28.866C240.5 28.858 240.594 28.844 240.686 28.824C240.982 28.76 241.224 28.638 241.412 28.458C241.604 28.278 241.746 28.064 241.838 27.816C241.934 27.568 241.982 27.31 241.982 27.042C241.982 26.774 241.934 26.516 241.838 26.268C241.746 26.016 241.604 25.8 241.412 25.62C241.224 25.44 240.982 25.318 240.686 25.254C240.594 25.234 240.5 25.222 240.404 25.218C240.308 25.21 240.224 25.206 240.152 25.206H237.722V28.878ZM244.082 33V26.52H244.874V28.08L244.718 27.876C244.79 27.684 244.884 27.508 245 27.348C245.116 27.184 245.242 27.05 245.378 26.946C245.546 26.798 245.742 26.686 245.966 26.61C246.19 26.53 246.416 26.484 246.644 26.472C246.872 26.456 247.08 26.472 247.268 26.52V27.348C247.032 27.288 246.774 27.274 246.494 27.306C246.214 27.338 245.956 27.45 245.72 27.642C245.504 27.81 245.342 28.012 245.234 28.248C245.126 28.48 245.054 28.728 245.018 28.992C244.982 29.252 244.964 29.51 244.964 29.766V33H244.082ZM248.526 25.29V24.3H249.408V25.29H248.526ZM248.526 33V26.52H249.408V33H248.526ZM253.895 33.18C253.243 33.18 252.691 33.034 252.239 32.742C251.787 32.45 251.443 32.048 251.207 31.536C250.975 31.02 250.855 30.428 250.847 29.76C250.855 29.08 250.979 28.484 251.219 27.972C251.459 27.456 251.805 27.056 252.257 26.772C252.709 26.484 253.257 26.34 253.901 26.34C254.557 26.34 255.127 26.5 255.611 26.82C256.099 27.14 256.433 27.578 256.613 28.134L255.749 28.41C255.597 28.022 255.355 27.722 255.023 27.51C254.695 27.294 254.319 27.186 253.895 27.186C253.419 27.186 253.025 27.296 252.713 27.516C252.401 27.732 252.169 28.034 252.017 28.422C251.865 28.81 251.787 29.256 251.783 29.76C251.791 30.536 251.971 31.16 252.323 31.632C252.675 32.1 253.199 32.334 253.895 32.334C254.335 32.334 254.709 32.234 255.017 32.034C255.329 31.83 255.565 31.534 255.725 31.146L256.613 31.41C256.373 31.986 256.021 32.426 255.557 32.73C255.093 33.03 254.539 33.18 253.895 33.18ZM260.418 33.18C259.786 33.18 259.238 33.04 258.774 32.76C258.314 32.48 257.956 32.086 257.7 31.578C257.444 31.07 257.316 30.474 257.316 29.79C257.316 29.082 257.442 28.47 257.694 27.954C257.946 27.438 258.3 27.04 258.756 26.76C259.216 26.48 259.758 26.34 260.382 26.34C261.022 26.34 261.568 26.488 262.02 26.784C262.472 27.076 262.814 27.496 263.046 28.044C263.278 28.592 263.384 29.246 263.364 30.006H262.464V29.694C262.448 28.854 262.266 28.22 261.918 27.792C261.574 27.364 261.07 27.15 260.406 27.15C259.71 27.15 259.176 27.376 258.804 27.828C258.436 28.28 258.252 28.924 258.252 29.76C258.252 30.576 258.436 31.21 258.804 31.662C259.176 32.11 259.702 32.334 260.382 32.334C260.846 32.334 261.25 32.228 261.594 32.016C261.942 31.8 262.216 31.49 262.416 31.086L263.238 31.404C262.982 31.968 262.604 32.406 262.104 32.718C261.608 33.026 261.046 33.18 260.418 33.18ZM257.94 30.006V29.268H262.89V30.006H257.94ZM266.879 24.36H267.785L265.481 33H264.575L266.879 24.36ZM273.256 33V25.344L271.63 26.322V25.332L273.256 24.36H274.15V33H273.256ZM283.508 33V29.694C283.508 29.334 283.474 29.004 283.406 28.704C283.338 28.4 283.228 28.136 283.076 27.912C282.928 27.684 282.734 27.508 282.494 27.384C282.258 27.26 281.97 27.198 281.63 27.198C281.318 27.198 281.042 27.252 280.802 27.36C280.566 27.468 280.366 27.624 280.202 27.828C280.042 28.028 279.92 28.272 279.836 28.56C279.752 28.848 279.71 29.176 279.71 29.544L279.086 29.406C279.086 28.742 279.202 28.184 279.434 27.732C279.666 27.28 279.986 26.938 280.394 26.706C280.802 26.474 281.27 26.358 281.798 26.358C282.186 26.358 282.524 26.418 282.812 26.538C283.104 26.658 283.35 26.82 283.55 27.024C283.754 27.228 283.918 27.462 284.042 27.726C284.166 27.986 284.256 28.264 284.312 28.56C284.368 28.852 284.396 29.144 284.396 29.436V33H283.508ZM278.822 33V24.36H279.62V29.238H279.71V33H278.822ZM288.659 33.18C288.015 33.18 287.465 33.034 287.009 32.742C286.553 32.45 286.203 32.046 285.959 31.53C285.715 31.014 285.593 30.422 285.593 29.754C285.593 29.074 285.717 28.478 285.965 27.966C286.213 27.454 286.565 27.056 287.021 26.772C287.481 26.484 288.027 26.34 288.659 26.34C289.307 26.34 289.859 26.486 290.315 26.778C290.775 27.066 291.125 27.468 291.365 27.984C291.609 28.496 291.731 29.086 291.731 29.754C291.731 30.434 291.609 31.032 291.365 31.548C291.121 32.06 290.769 32.46 290.309 32.748C289.849 33.036 289.299 33.18 288.659 33.18ZM288.659 32.334C289.379 32.334 289.915 32.096 290.267 31.62C290.619 31.14 290.795 30.518 290.795 29.754C290.795 28.97 290.617 28.346 290.261 27.882C289.909 27.418 289.375 27.186 288.659 27.186C288.175 27.186 287.775 27.296 287.459 27.516C287.147 27.732 286.913 28.034 286.757 28.422C286.605 28.806 286.529 29.25 286.529 29.754C286.529 30.534 286.709 31.16 287.069 31.632C287.429 32.1 287.959 32.334 288.659 32.334ZM295.533 33.162C295.145 33.162 294.805 33.102 294.513 32.982C294.225 32.862 293.979 32.7 293.775 32.496C293.575 32.292 293.413 32.06 293.289 31.8C293.165 31.536 293.075 31.258 293.019 30.966C292.963 30.67 292.935 30.376 292.935 30.084V26.52H293.823V29.826C293.823 30.182 293.857 30.512 293.925 30.816C293.993 31.12 294.101 31.386 294.249 31.614C294.401 31.838 294.595 32.012 294.831 32.136C295.071 32.26 295.361 32.322 295.701 32.322C296.013 32.322 296.287 32.268 296.523 32.16C296.763 32.052 296.963 31.898 297.123 31.698C297.287 31.494 297.411 31.248 297.495 30.96C297.579 30.668 297.621 30.34 297.621 29.976L298.245 30.114C298.245 30.778 298.129 31.336 297.897 31.788C297.665 32.24 297.345 32.582 296.937 32.814C296.529 33.046 296.061 33.162 295.533 33.162ZM297.711 33V31.404H297.621V26.52H298.503V33H297.711ZM300.18 33V26.52H300.972V28.08L300.816 27.876C300.888 27.684 300.982 27.508 301.098 27.348C301.214 27.184 301.34 27.05 301.476 26.946C301.644 26.798 301.84 26.686 302.064 26.61C302.288 26.53 302.514 26.484 302.742 26.472C302.97 26.456 303.178 26.472 303.366 26.52V27.348C303.13 27.288 302.872 27.274 302.592 27.306C302.312 27.338 302.054 27.45 301.818 27.642C301.602 27.81 301.44 28.012 301.332 28.248C301.224 28.48 301.152 28.728 301.116 28.992C301.08 29.252 301.062 29.51 301.062 29.766V33H300.18Z" fill="#8D929A"/>
<rect x="236" y="44" width="196" height="44" rx="12" fill="#F7F7F7"/>
<path d="M257.856 72.24C256.709 72.24 255.736 71.9867 254.936 71.48C254.136 70.9733 253.525 70.2693 253.104 69.368C252.688 68.4667 252.48 67.424 252.48 66.24C252.48 65.056 252.688 64.0133 253.104 63.112C253.525 62.2107 254.136 61.5067 254.936 61C255.736 60.4933 256.709 60.24 257.856 60.24C259.189 60.24 260.285 60.5787 261.144 61.256C262.008 61.9333 262.603 62.8453 262.928 63.992L261.48 64.376C261.245 63.5173 260.827 62.84 260.224 62.344C259.621 61.848 258.832 61.6 257.856 61.6C256.997 61.6 256.283 61.7947 255.712 62.184C255.141 62.5733 254.712 63.1173 254.424 63.816C254.136 64.5093 253.989 65.3173 253.984 66.24C253.979 67.1573 254.12 67.9653 254.408 68.664C254.696 69.3573 255.128 69.9013 255.704 70.296C256.28 70.6853 256.997 70.88 257.856 70.88C258.832 70.88 259.621 70.632 260.224 70.136C260.827 69.6347 261.245 68.9573 261.48 68.104L262.928 68.488C262.603 69.6293 262.008 70.5413 261.144 71.224C260.285 71.9013 259.189 72.24 257.856 72.24ZM270.835 72V67.672C270.835 67.2613 270.797 66.8667 270.723 66.488C270.653 66.1093 270.528 65.7707 270.347 65.472C270.171 65.168 269.931 64.928 269.627 64.752C269.328 64.576 268.949 64.488 268.491 64.488C268.133 64.488 267.808 64.5493 267.515 64.672C267.227 64.7893 266.979 64.9707 266.771 65.216C266.563 65.4613 266.4 65.7707 266.283 66.144C266.171 66.512 266.115 66.9467 266.115 67.448L265.179 67.16C265.179 66.3227 265.328 65.6053 265.627 65.008C265.931 64.4053 266.355 63.944 266.899 63.624C267.448 63.2987 268.093 63.136 268.835 63.136C269.395 63.136 269.872 63.224 270.267 63.4C270.661 63.576 270.989 63.8107 271.251 64.104C271.512 64.392 271.717 64.7173 271.867 65.08C272.016 65.4373 272.12 65.8027 272.179 66.176C272.243 66.544 272.275 66.8933 272.275 67.224V72H270.835ZM264.675 72V60.48H265.955V66.84H266.115V72H264.675ZM278.034 72.24C277.176 72.24 276.434 72.0453 275.81 71.656C275.192 71.2667 274.714 70.728 274.378 70.04C274.042 69.352 273.874 68.5627 273.874 67.672C273.874 66.7653 274.045 65.9707 274.386 65.288C274.728 64.6053 275.21 64.0747 275.834 63.696C276.458 63.312 277.192 63.12 278.034 63.12C278.898 63.12 279.642 63.3147 280.266 63.704C280.89 64.088 281.368 64.624 281.698 65.312C282.034 65.9947 282.202 66.7813 282.202 67.672C282.202 68.5733 282.034 69.368 281.698 70.056C281.362 70.7387 280.882 71.2747 280.258 71.664C279.634 72.048 278.893 72.24 278.034 72.24ZM278.034 70.888C278.93 70.888 279.597 70.5893 280.034 69.992C280.472 69.3947 280.69 68.6213 280.69 67.672C280.69 66.696 280.469 65.92 280.026 65.344C279.584 64.7627 278.92 64.472 278.034 64.472C277.432 64.472 276.936 64.608 276.546 64.88C276.157 65.152 275.866 65.528 275.674 66.008C275.482 66.488 275.386 67.0427 275.386 67.672C275.386 68.6427 275.61 69.4213 276.058 70.008C276.506 70.5947 277.165 70.888 278.034 70.888ZM287.644 72.24C286.785 72.24 286.044 72.0453 285.42 71.656C284.801 71.2667 284.324 70.728 283.988 70.04C283.652 69.352 283.484 68.5627 283.484 67.672C283.484 66.7653 283.654 65.9707 283.996 65.288C284.337 64.6053 284.82 64.0747 285.444 63.696C286.068 63.312 286.801 63.12 287.644 63.12C288.508 63.12 289.252 63.3147 289.876 63.704C290.5 64.088 290.977 64.624 291.308 65.312C291.644 65.9947 291.812 66.7813 291.812 67.672C291.812 68.5733 291.644 69.368 291.308 70.056C290.972 70.7387 290.492 71.2747 289.868 71.664C289.244 72.048 288.502 72.24 287.644 72.24ZM287.644 70.888C288.54 70.888 289.206 70.5893 289.644 69.992C290.081 69.3947 290.3 68.6213 290.3 67.672C290.3 66.696 290.078 65.92 289.636 65.344C289.193 64.7627 288.529 64.472 287.644 64.472C287.041 64.472 286.545 64.608 286.156 64.88C285.766 65.152 285.476 65.528 285.284 66.008C285.092 66.488 284.996 67.0427 284.996 67.672C284.996 68.6427 285.22 69.4213 285.668 70.008C286.116 70.5947 286.774 70.888 287.644 70.888ZM296.712 72.232C295.683 72.232 294.837 72.008 294.176 71.56C293.52 71.1067 293.117 70.4747 292.968 69.664L294.424 69.432C294.541 69.9013 294.811 70.2747 295.232 70.552C295.653 70.824 296.176 70.96 296.8 70.96C297.392 70.96 297.856 70.8373 298.192 70.592C298.528 70.3467 298.696 70.0133 298.696 69.592C298.696 69.3467 298.64 69.1493 298.528 69C298.416 68.8453 298.184 68.7013 297.832 68.568C297.485 68.4347 296.96 68.2747 296.256 68.088C295.493 67.8853 294.893 67.6747 294.456 67.456C294.019 67.2373 293.707 66.984 293.52 66.696C293.333 66.408 293.24 66.0587 293.24 65.648C293.24 65.1413 293.379 64.6987 293.656 64.32C293.933 63.936 294.32 63.64 294.816 63.432C295.317 63.224 295.899 63.12 296.56 63.12C297.216 63.12 297.803 63.224 298.32 63.432C298.837 63.64 299.253 63.936 299.568 64.32C299.888 64.6987 300.077 65.1413 300.136 65.648L298.68 65.912C298.611 65.448 298.387 65.0827 298.008 64.816C297.635 64.5493 297.152 64.408 296.56 64.392C296 64.3707 295.544 64.4693 295.192 64.688C294.845 64.9067 294.672 65.2027 294.672 65.576C294.672 65.784 294.736 65.9627 294.864 66.112C294.997 66.2613 295.24 66.4027 295.592 66.536C295.949 66.6693 296.467 66.8213 297.144 66.992C297.907 67.184 298.507 67.3947 298.944 67.624C299.387 67.848 299.701 68.1147 299.888 68.424C300.075 68.728 300.168 69.104 300.168 69.552C300.168 70.384 299.861 71.04 299.248 71.52C298.635 71.9947 297.789 72.232 296.712 72.232ZM305.677 72.24C304.829 72.24 304.087 72.0533 303.453 71.68C302.823 71.3013 302.333 70.776 301.981 70.104C301.629 69.4267 301.453 68.6373 301.453 67.736C301.453 66.792 301.626 65.976 301.973 65.288C302.319 64.5947 302.802 64.0613 303.421 63.688C304.045 63.3093 304.775 63.12 305.613 63.12C306.482 63.12 307.221 63.32 307.829 63.72C308.442 64.12 308.901 64.6907 309.205 65.432C309.514 66.1733 309.647 67.056 309.605 68.08H308.165V67.568C308.149 66.5067 307.933 65.7147 307.517 65.192C307.101 64.664 306.482 64.4 305.661 64.4C304.781 64.4 304.111 64.6827 303.653 65.248C303.194 65.8133 302.965 66.624 302.965 67.68C302.965 68.6987 303.194 69.488 303.653 70.048C304.111 70.608 304.765 70.888 305.613 70.888C306.183 70.888 306.679 70.7573 307.101 70.496C307.522 70.2347 307.853 69.8587 308.093 69.368L309.461 69.84C309.125 70.6027 308.618 71.1947 307.941 71.616C307.269 72.032 306.514 72.24 305.677 72.24ZM302.485 68.08V66.936H308.869V68.08H302.485ZM317.045 72.24C316.399 72.24 315.858 72.1227 315.421 71.888C314.989 71.648 314.661 71.3333 314.437 70.944C314.218 70.5547 314.109 70.128 314.109 69.664C314.109 69.2107 314.194 68.8187 314.365 68.488C314.541 68.152 314.786 67.8747 315.101 67.656C315.415 67.432 315.791 67.256 316.229 67.128C316.639 67.016 317.098 66.92 317.605 66.84C318.117 66.7547 318.634 66.6773 319.157 66.608C319.679 66.5387 320.167 66.472 320.621 66.408L320.109 66.704C320.125 65.936 319.97 65.368 319.645 65C319.325 64.632 318.77 64.448 317.981 64.448C317.458 64.448 316.999 64.568 316.605 64.808C316.215 65.0427 315.941 65.4267 315.781 65.96L314.429 65.552C314.637 64.7947 315.039 64.2 315.637 63.768C316.234 63.336 317.021 63.12 317.997 63.12C318.781 63.12 319.453 63.2613 320.013 63.544C320.578 63.8213 320.983 64.2427 321.229 64.808C321.351 65.0747 321.429 65.3653 321.461 65.68C321.493 65.9893 321.509 66.3147 321.509 66.656V72H320.245V69.928L320.541 70.12C320.215 70.8187 319.759 71.3467 319.173 71.704C318.591 72.0613 317.882 72.24 317.045 72.24ZM317.261 71.048C317.773 71.048 318.215 70.9573 318.589 70.776C318.967 70.5893 319.271 70.3467 319.501 70.048C319.73 69.744 319.879 69.4133 319.949 69.056C320.029 68.7893 320.071 68.4933 320.077 68.168C320.087 67.8373 320.093 67.584 320.093 67.408L320.589 67.624C320.125 67.688 319.669 67.7493 319.221 67.808C318.773 67.8667 318.349 67.9307 317.949 68C317.549 68.064 317.189 68.1413 316.869 68.232C316.634 68.3067 316.413 68.4027 316.205 68.52C316.002 68.6373 315.837 68.7893 315.709 68.976C315.586 69.1573 315.525 69.384 315.525 69.656C315.525 69.8907 315.583 70.1147 315.701 70.328C315.823 70.5413 316.01 70.7147 316.261 70.848C316.517 70.9813 316.85 71.048 317.261 71.048ZM330.76 72.24C329.949 72.24 329.267 72.04 328.712 71.64C328.157 71.2347 327.736 70.688 327.448 70C327.165 69.3067 327.024 68.5307 327.024 67.672C327.024 66.8027 327.165 66.024 327.448 65.336C327.736 64.648 328.157 64.1067 328.712 63.712C329.272 63.3173 329.957 63.12 330.768 63.12C331.568 63.12 332.256 63.32 332.832 63.72C333.413 64.1147 333.859 64.656 334.168 65.344C334.477 66.032 334.632 66.808 334.632 67.672C334.632 68.536 334.477 69.312 334.168 70C333.859 70.688 333.413 71.2347 332.832 71.64C332.256 72.04 331.565 72.24 330.76 72.24ZM326.784 75.84V63.36H328.056V69.72H328.216V75.84H326.784ZM330.584 70.936C331.155 70.936 331.627 70.792 332 70.504C332.373 70.216 332.653 69.8267 332.84 69.336C333.027 68.84 333.12 68.2853 333.12 67.672C333.12 67.064 333.027 66.5147 332.84 66.024C332.659 65.5333 332.376 65.144 331.992 64.856C331.613 64.568 331.131 64.424 330.544 64.424C329.984 64.424 329.52 64.5627 329.152 64.84C328.784 65.112 328.509 65.4933 328.328 65.984C328.147 66.4693 328.056 67.032 328.056 67.672C328.056 68.3013 328.144 68.864 328.32 69.36C328.501 69.8507 328.779 70.2373 329.152 70.52C329.525 70.7973 330.003 70.936 330.584 70.936ZM336.386 72V63.36H337.658V65.448L337.45 65.176C337.551 64.9093 337.682 64.664 337.842 64.44C338.007 64.216 338.191 64.032 338.394 63.888C338.618 63.7067 338.871 63.568 339.154 63.472C339.436 63.376 339.724 63.32 340.018 63.304C340.311 63.2827 340.586 63.3013 340.842 63.36V64.696C340.543 64.616 340.215 64.5947 339.858 64.632C339.5 64.6693 339.17 64.8 338.866 65.024C338.588 65.2213 338.372 65.4613 338.218 65.744C338.068 66.0267 337.964 66.3333 337.906 66.664C337.847 66.9893 337.818 67.3227 337.818 67.664V72H336.386ZM342.514 61.832V60.36H343.938V61.832H342.514ZM342.514 72V63.36H343.938V72H342.514ZM349.979 72.24C349.104 72.24 348.36 72.0453 347.747 71.656C347.139 71.2613 346.675 70.72 346.355 70.032C346.035 69.344 345.869 68.56 345.859 67.68C345.869 66.7787 346.037 65.9867 346.363 65.304C346.693 64.616 347.165 64.08 347.779 63.696C348.392 63.312 349.131 63.12 349.995 63.12C350.907 63.12 351.691 63.344 352.347 63.792C353.008 64.24 353.451 64.8533 353.675 65.632L352.267 66.056C352.085 65.5547 351.789 65.1653 351.379 64.888C350.973 64.6107 350.507 64.472 349.979 64.472C349.387 64.472 348.899 64.6107 348.515 64.888C348.131 65.16 347.845 65.5387 347.659 66.024C347.472 66.504 347.376 67.056 347.371 67.68C347.381 68.64 347.603 69.416 348.035 70.008C348.472 70.5947 349.12 70.888 349.979 70.888C350.544 70.888 351.013 70.76 351.387 70.504C351.76 70.2427 352.043 69.8667 352.235 69.376L353.675 69.752C353.376 70.5573 352.909 71.1733 352.275 71.6C351.64 72.0267 350.875 72.24 349.979 72.24ZM358.817 72.24C357.969 72.24 357.228 72.0533 356.593 71.68C355.964 71.3013 355.473 70.776 355.121 70.104C354.769 69.4267 354.593 68.6373 354.593 67.736C354.593 66.792 354.766 65.976 355.113 65.288C355.46 64.5947 355.942 64.0613 356.561 63.688C357.185 63.3093 357.916 63.12 358.753 63.12C359.622 63.12 360.361 63.32 360.969 63.72C361.582 64.12 362.041 64.6907 362.345 65.432C362.654 66.1733 362.788 67.056 362.745 68.08H361.305V67.568C361.289 66.5067 361.073 65.7147 360.657 65.192C360.241 64.664 359.622 64.4 358.801 64.4C357.921 64.4 357.252 64.6827 356.793 65.248C356.334 65.8133 356.105 66.624 356.105 67.68C356.105 68.6987 356.334 69.488 356.793 70.048C357.252 70.608 357.905 70.888 358.753 70.888C359.324 70.888 359.82 70.7573 360.241 70.496C360.662 70.2347 360.993 69.8587 361.233 69.368L362.601 69.84C362.265 70.6027 361.758 71.1947 361.081 71.616C360.409 72.032 359.654 72.24 358.817 72.24ZM355.625 68.08V66.936H362.009V68.08H355.625Z" fill="#101828"/>
<path fill-rule="evenodd" clip-rule="evenodd" d="M407.147 62.1469C407.193 62.1003 407.248 62.0634 407.309 62.0382C407.37 62.013 407.435 62 407.501 62C407.566 62 407.632 62.013 407.692 62.0382C407.753 62.0634 407.808 62.1003 407.855 62.1469L413.855 68.1469C413.949 68.2408 414.001 68.3681 414.001 68.5009C414.001 68.6337 413.949 68.761 413.855 68.8549C413.761 68.9488 413.633 69.0015 413.501 69.0015C413.368 69.0015 413.241 68.9488 413.147 68.8549L407.501 63.2079L401.855 68.8549C401.761 68.9488 401.633 69.0015 401.501 69.0015C401.368 69.0015 401.241 68.9488 401.147 68.8549C401.053 68.761 401 68.6337 401 68.5009C401 68.3681 401.053 68.2408 401.147 68.1469L407.147 62.1469Z" fill="#101828"/>
<g filter="url(#filter0_d_1_877)">
<rect x="236" y="92" width="196" height="188" rx="12" fill="white"/>
<rect x="236.5" y="92.5" width="195" height="187" rx="11.5" stroke="#F7F7F7"/>
<path d="M258.28 122.224C257.709 122.224 257.179 122.12 256.688 121.912C256.197 121.699 255.773 121.4 255.416 121.016C255.064 120.627 254.805 120.165 254.64 119.632L256.008 119.24C256.184 119.773 256.477 120.179 256.888 120.456C257.299 120.733 257.76 120.869 258.272 120.864C258.741 120.853 259.147 120.747 259.488 120.544C259.835 120.336 260.101 120.053 260.288 119.696C260.48 119.339 260.576 118.925 260.576 118.456C260.576 117.741 260.363 117.163 259.936 116.72C259.509 116.272 258.949 116.048 258.256 116.048C258.064 116.048 257.861 116.075 257.648 116.128C257.44 116.181 257.245 116.256 257.064 116.352L256.376 115.224L260.648 111.36L260.832 111.84H255.096V110.48H261.888V111.848L258.248 115.336L258.232 114.832C258.995 114.779 259.661 114.904 260.232 115.208C260.803 115.512 261.245 115.947 261.56 116.512C261.88 117.077 262.04 117.725 262.04 118.456C262.04 119.192 261.875 119.843 261.544 120.408C261.213 120.973 260.765 121.419 260.2 121.744C259.635 122.064 258.995 122.224 258.28 122.224ZM268.008 122.24C267.261 122.24 266.595 122.072 266.008 121.736C265.427 121.395 264.965 120.933 264.624 120.352C264.288 119.765 264.12 119.099 264.12 118.352V114.128C264.12 113.381 264.288 112.715 264.624 112.128C264.965 111.541 265.427 111.08 266.008 110.744C266.595 110.408 267.261 110.24 268.008 110.24C268.755 110.24 269.421 110.408 270.008 110.744C270.595 111.08 271.056 111.541 271.392 112.128C271.728 112.715 271.896 113.381 271.896 114.128V118.352C271.896 119.099 271.728 119.765 271.392 120.352C271.056 120.933 270.595 121.395 270.008 121.736C269.421 122.072 268.755 122.24 268.008 122.24ZM268.008 120.872C268.461 120.872 268.872 120.763 269.24 120.544C269.608 120.325 269.901 120.032 270.12 119.664C270.339 119.291 270.448 118.88 270.448 118.432V114.04C270.448 113.587 270.339 113.176 270.12 112.808C269.901 112.44 269.608 112.147 269.24 111.928C268.872 111.709 268.461 111.6 268.008 111.6C267.56 111.6 267.149 111.709 266.776 111.928C266.408 112.147 266.115 112.44 265.896 112.808C265.677 113.176 265.568 113.587 265.568 114.04V118.432C265.568 118.88 265.677 119.291 265.896 119.664C266.115 120.032 266.408 120.325 266.776 120.544C267.149 120.763 267.56 120.872 268.008 120.872Z" fill="#8D929A"/>
<path d="M260.096 150V147.88H254.8V146.528L258.6 138.48H260.216L256.416 146.528H260.096V143.288H261.536V146.528H262.736V147.88H261.536V150H260.096ZM268.539 150.24C267.793 150.24 267.126 150.072 266.539 149.736C265.958 149.395 265.497 148.933 265.155 148.352C264.819 147.765 264.651 147.099 264.651 146.352V142.128C264.651 141.381 264.819 140.715 265.155 140.128C265.497 139.541 265.958 139.08 266.539 138.744C267.126 138.408 267.793 138.24 268.539 138.24C269.286 138.24 269.953 138.408 270.539 138.744C271.126 139.08 271.587 139.541 271.923 140.128C272.259 140.715 272.427 141.381 272.427 142.128V146.352C272.427 147.099 272.259 147.765 271.923 148.352C271.587 148.933 271.126 149.395 270.539 149.736C269.953 150.072 269.286 150.24 268.539 150.24ZM268.539 148.872C268.993 148.872 269.403 148.763 269.771 148.544C270.139 148.325 270.433 148.032 270.651 147.664C270.87 147.291 270.979 146.88 270.979 146.432V142.04C270.979 141.587 270.87 141.176 270.651 140.808C270.433 140.44 270.139 140.147 269.771 139.928C269.403 139.709 268.993 139.6 268.539 139.6C268.091 139.6 267.681 139.709 267.307 139.928C266.939 140.147 266.646 140.44 266.427 140.808C266.209 141.176 266.099 141.587 266.099 142.04V146.432C266.099 146.88 266.209 147.291 266.427 147.664C266.646 148.032 266.939 148.325 267.307 148.544C267.681 148.763 268.091 148.872 268.539 148.872Z" fill="#8D929A"/>
<path d="M258.528 178.24C257.936 178.24 257.384 178.117 256.872 177.872C256.365 177.627 255.931 177.291 255.568 176.864C255.211 176.432 254.955 175.936 254.8 175.376L256.168 175.008C256.264 175.387 256.435 175.715 256.68 175.992C256.925 176.264 257.211 176.477 257.536 176.632C257.867 176.781 258.211 176.856 258.568 176.856C259.037 176.856 259.459 176.744 259.832 176.52C260.211 176.291 260.509 175.989 260.728 175.616C260.947 175.237 261.056 174.824 261.056 174.376C261.056 173.912 260.941 173.493 260.712 173.12C260.488 172.741 260.187 172.443 259.808 172.224C259.429 172.005 259.016 171.896 258.568 171.896C258.061 171.896 257.627 172.003 257.264 172.216C256.907 172.424 256.624 172.68 256.416 172.984L255.152 172.504L255.504 166.48H261.688V167.832H256.192L256.824 167.24L256.528 172.064L256.216 171.656C256.536 171.315 256.917 171.051 257.36 170.864C257.808 170.677 258.264 170.584 258.728 170.584C259.443 170.584 260.083 170.752 260.648 171.088C261.213 171.419 261.661 171.872 261.992 172.448C262.323 173.019 262.488 173.661 262.488 174.376C262.488 175.085 262.307 175.733 261.944 176.32C261.581 176.901 261.099 177.368 260.496 177.72C259.899 178.067 259.243 178.24 258.528 178.24ZM268.289 178.24C267.543 178.24 266.876 178.072 266.289 177.736C265.708 177.395 265.247 176.933 264.905 176.352C264.569 175.765 264.401 175.099 264.401 174.352V170.128C264.401 169.381 264.569 168.715 264.905 168.128C265.247 167.541 265.708 167.08 266.289 166.744C266.876 166.408 267.543 166.24 268.289 166.24C269.036 166.24 269.703 166.408 270.289 166.744C270.876 167.08 271.337 167.541 271.673 168.128C272.009 168.715 272.177 169.381 272.177 170.128V174.352C272.177 175.099 272.009 175.765 271.673 176.352C271.337 176.933 270.876 177.395 270.289 177.736C269.703 178.072 269.036 178.24 268.289 178.24ZM268.289 176.872C268.743 176.872 269.153 176.763 269.521 176.544C269.889 176.325 270.183 176.032 270.401 175.664C270.62 175.291 270.729 174.88 270.729 174.432V170.04C270.729 169.587 270.62 169.176 270.401 168.808C270.183 168.44 269.889 168.147 269.521 167.928C269.153 167.709 268.743 167.6 268.289 167.6C267.841 167.6 267.431 167.709 267.057 167.928C266.689 168.147 266.396 168.44 266.177 168.808C265.959 169.176 265.849 169.587 265.849 170.04V174.432C265.849 174.88 265.959 175.291 266.177 175.664C266.396 176.032 266.689 176.325 267.057 176.544C267.431 176.763 267.841 176.872 268.289 176.872Z" fill="#8D929A"/>
<path d="M259.048 206.24C258.317 206.24 257.653 206.064 257.056 205.712C256.464 205.36 255.992 204.88 255.64 204.272C255.293 203.659 255.12 202.968 255.12 202.2V198.368C255.12 197.563 255.293 196.851 255.64 196.232C255.992 195.608 256.472 195.123 257.08 194.776C257.693 194.424 258.392 194.248 259.176 194.248C259.811 194.248 260.4 194.379 260.944 194.64C261.493 194.896 261.955 195.267 262.328 195.752L261.264 196.696C261.035 196.36 260.736 196.093 260.368 195.896C260 195.699 259.603 195.6 259.176 195.6C258.669 195.6 258.219 195.723 257.824 195.968C257.435 196.208 257.128 196.528 256.904 196.928C256.68 197.323 256.568 197.749 256.568 198.208V200.52L256.256 200.168C256.592 199.688 257.019 199.304 257.536 199.016C258.053 198.728 258.613 198.584 259.216 198.584C259.931 198.584 260.571 198.752 261.136 199.088C261.707 199.424 262.155 199.88 262.48 200.456C262.811 201.027 262.976 201.669 262.976 202.384C262.976 203.099 262.797 203.747 262.44 204.328C262.083 204.909 261.605 205.373 261.008 205.72C260.416 206.067 259.763 206.24 259.048 206.24ZM259.048 204.864C259.507 204.864 259.925 204.755 260.304 204.536C260.683 204.312 260.981 204.013 261.2 203.64C261.424 203.261 261.536 202.843 261.536 202.384C261.536 201.925 261.424 201.507 261.2 201.128C260.981 200.749 260.683 200.451 260.304 200.232C259.931 200.008 259.515 199.896 259.056 199.896C258.597 199.896 258.179 200.008 257.8 200.232C257.427 200.451 257.128 200.749 256.904 201.128C256.68 201.507 256.568 201.925 256.568 202.384C256.568 202.837 256.677 203.253 256.896 203.632C257.12 204.005 257.419 204.304 257.792 204.528C258.171 204.752 258.589 204.864 259.048 204.864ZM268.946 206.24C268.199 206.24 267.532 206.072 266.946 205.736C266.364 205.395 265.903 204.933 265.562 204.352C265.226 203.765 265.058 203.099 265.058 202.352V198.128C265.058 197.381 265.226 196.715 265.562 196.128C265.903 195.541 266.364 195.08 266.946 194.744C267.532 194.408 268.199 194.24 268.946 194.24C269.692 194.24 270.359 194.408 270.946 194.744C271.532 195.08 271.994 195.541 272.33 196.128C272.666 196.715 272.834 197.381 272.834 198.128V202.352C272.834 203.099 272.666 203.765 272.33 204.352C271.994 204.933 271.532 205.395 270.946 205.736C270.359 206.072 269.692 206.24 268.946 206.24ZM268.946 204.872C269.399 204.872 269.81 204.763 270.178 204.544C270.546 204.325 270.839 204.032 271.058 203.664C271.276 203.291 271.386 202.88 271.386 202.432V198.04C271.386 197.587 271.276 197.176 271.058 196.808C270.839 196.44 270.546 196.147 270.178 195.928C269.81 195.709 269.399 195.6 268.946 195.6C268.498 195.6 268.087 195.709 267.714 195.928C267.346 196.147 267.052 196.44 266.834 196.808C266.615 197.176 266.506 197.587 266.506 198.04V202.432C266.506 202.88 266.615 203.291 266.834 203.664C267.052 204.032 267.346 204.325 267.714 204.544C268.087 204.763 268.498 204.872 268.946 204.872Z" fill="#8D929A"/>
<path d="M255.728 234L259.872 223.848H254.64V222.48H261.4V223.848L257.264 234H255.728ZM267.211 234.24C266.464 234.24 265.798 234.072 265.211 233.736C264.63 233.395 264.168 232.933 263.827 232.352C263.491 231.765 263.323 231.099 263.323 230.352V226.128C263.323 225.381 263.491 224.715 263.827 224.128C264.168 223.541 264.63 223.08 265.211 222.744C265.798 222.408 266.464 222.24 267.211 222.24C267.958 222.24 268.624 222.408 269.211 222.744C269.798 223.08 270.259 223.541 270.595 224.128C270.931 224.715 271.099 225.381 271.099 226.128V230.352C271.099 231.099 270.931 231.765 270.595 232.352C270.259 232.933 269.798 233.395 269.211 233.736C268.624 234.072 267.958 234.24 267.211 234.24ZM267.211 232.872C267.664 232.872 268.075 232.763 268.443 232.544C268.811 232.325 269.104 232.032 269.323 231.664C269.542 231.291 269.651 230.88 269.651 230.432V226.04C269.651 225.587 269.542 225.176 269.323 224.808C269.104 224.44 268.811 224.147 268.443 223.928C268.075 223.709 267.664 223.6 267.211 223.6C266.763 223.6 266.352 223.709 265.979 223.928C265.611 224.147 265.318 224.44 265.099 224.808C264.88 225.176 264.771 225.587 264.771 226.04V230.432C264.771 230.88 264.88 231.291 265.099 231.664C265.318 232.032 265.611 232.325 265.979 232.544C266.352 232.763 266.763 232.872 267.211 232.872Z" fill="#8D929A"/>
<path d="M258.72 262.24C257.984 262.24 257.333 262.093 256.768 261.8C256.203 261.501 255.76 261.088 255.44 260.56C255.12 260.032 254.96 259.416 254.96 258.712C254.96 258.024 255.123 257.403 255.448 256.848C255.779 256.293 256.275 255.867 256.936 255.568L256.912 256.088C256.373 255.827 255.96 255.459 255.672 254.984C255.384 254.504 255.24 253.973 255.24 253.392C255.24 252.741 255.389 252.181 255.688 251.712C255.987 251.243 256.397 250.88 256.92 250.624C257.443 250.368 258.043 250.24 258.72 250.24C259.397 250.24 259.997 250.368 260.52 250.624C261.043 250.88 261.453 251.243 261.752 251.712C262.051 252.181 262.2 252.741 262.2 253.392C262.2 253.973 262.064 254.501 261.792 254.976C261.52 255.445 261.101 255.816 260.536 256.088L260.504 255.576C261.165 255.864 261.661 256.288 261.992 256.848C262.328 257.403 262.496 258.024 262.496 258.712C262.496 259.416 262.333 260.032 262.008 260.56C261.688 261.088 261.243 261.501 260.672 261.8C260.107 262.093 259.456 262.24 258.72 262.24ZM258.72 260.88C259.392 260.88 259.936 260.696 260.352 260.328C260.773 259.955 260.984 259.416 260.984 258.712C260.984 258.003 260.776 257.464 260.36 257.096C259.949 256.723 259.403 256.536 258.72 256.536C258.043 256.536 257.496 256.723 257.08 257.096C256.669 257.464 256.464 258.003 256.464 258.712C256.464 259.416 256.672 259.955 257.088 260.328C257.504 260.696 258.048 260.88 258.72 260.88ZM258.72 255.168C259.307 255.168 259.781 255.021 260.144 254.728C260.507 254.429 260.688 253.984 260.688 253.392C260.688 252.8 260.507 252.357 260.144 252.064C259.781 251.765 259.307 251.616 258.72 251.616C258.139 251.616 257.664 251.765 257.296 252.064C256.933 252.357 256.752 252.8 256.752 253.392C256.752 253.984 256.933 254.429 257.296 254.728C257.664 255.021 258.139 255.168 258.72 255.168ZM268.461 262.24C267.714 262.24 267.048 262.072 266.461 261.736C265.88 261.395 265.418 260.933 265.077 260.352C264.741 259.765 264.573 259.099 264.573 258.352V254.128C264.573 253.381 264.741 252.715 265.077 252.128C265.418 251.541 265.88 251.08 266.461 250.744C267.048 250.408 267.714 250.24 268.461 250.24C269.208 250.24 269.874 250.408 270.461 250.744C271.048 251.08 271.509 251.541 271.845 252.128C272.181 252.715 272.349 253.381 272.349 254.128V258.352C272.349 259.099 272.181 259.765 271.845 260.352C271.509 260.933 271.048 261.395 270.461 261.736C269.874 262.072 269.208 262.24 268.461 262.24ZM268.461 260.872C268.914 260.872 269.325 260.763 269.693 260.544C270.061 260.325 270.354 260.032 270.573 259.664C270.792 259.291 270.901 258.88 270.901 258.432V254.04C270.901 253.587 270.792 253.176 270.573 252.808C270.354 252.44 270.061 252.147 269.693 251.928C269.325 251.709 268.914 251.6 268.461 251.6C268.013 251.6 267.602 251.709 267.229 251.928C266.861 252.147 266.568 252.44 266.349 252.808C266.13 253.176 266.021 253.587 266.021 254.04V258.432C266.021 258.88 266.13 259.291 266.349 259.664C266.568 260.032 266.861 260.325 267.229 260.544C267.602 260.763 268.013 260.872 268.461 260.872Z" fill="#8D929A"/>
<rect x="416" y="104" width="8" height="64" rx="4" fill="#DADDE1"/>
</g>
<path d="M452.84 33V24.36H456.176C456.26 24.36 456.354 24.364 456.458 24.372C456.566 24.376 456.674 24.388 456.782 24.408C457.234 24.476 457.616 24.634 457.928 24.882C458.244 25.126 458.482 25.434 458.642 25.806C458.806 26.178 458.888 26.59 458.888 27.042C458.888 27.49 458.806 27.9 458.642 28.272C458.478 28.644 458.238 28.954 457.922 29.202C457.61 29.446 457.23 29.602 456.782 29.67C456.674 29.686 456.566 29.698 456.458 29.706C456.354 29.714 456.26 29.718 456.176 29.718H453.722V33H452.84ZM453.722 28.878H456.152C456.224 28.878 456.308 28.874 456.404 28.866C456.5 28.858 456.594 28.844 456.686 28.824C456.982 28.76 457.224 28.638 457.412 28.458C457.604 28.278 457.746 28.064 457.838 27.816C457.934 27.568 457.982 27.31 457.982 27.042C457.982 26.774 457.934 26.516 457.838 26.268C457.746 26.016 457.604 25.8 457.412 25.62C457.224 25.44 456.982 25.318 456.686 25.254C456.594 25.234 456.5 25.222 456.404 25.218C456.308 25.21 456.224 25.206 456.152 25.206H453.722V28.878ZM460.082 33V26.52H460.874V28.08L460.718 27.876C460.79 27.684 460.884 27.508 461 27.348C461.116 27.184 461.242 27.05 461.378 26.946C461.546 26.798 461.742 26.686 461.966 26.61C462.19 26.53 462.416 26.484 462.644 26.472C462.872 26.456 463.08 26.472 463.268 26.52V27.348C463.032 27.288 462.774 27.274 462.494 27.306C462.214 27.338 461.956 27.45 461.72 27.642C461.504 27.81 461.342 28.012 461.234 28.248C461.126 28.48 461.054 28.728 461.018 28.992C460.982 29.252 460.964 29.51 460.964 29.766V33H460.082ZM464.526 25.29V24.3H465.408V25.29H464.526ZM464.526 33V26.52H465.408V33H464.526ZM469.895 33.18C469.243 33.18 468.691 33.034 468.239 32.742C467.787 32.45 467.443 32.048 467.207 31.536C466.975 31.02 466.855 30.428 466.847 29.76C466.855 29.08 466.979 28.484 467.219 27.972C467.459 27.456 467.805 27.056 468.257 26.772C468.709 26.484 469.257 26.34 469.901 26.34C470.557 26.34 471.127 26.5 471.611 26.82C472.099 27.14 472.433 27.578 472.613 28.134L471.749 28.41C471.597 28.022 471.355 27.722 471.023 27.51C470.695 27.294 470.319 27.186 469.895 27.186C469.419 27.186 469.025 27.296 468.713 27.516C468.401 27.732 468.169 28.034 468.017 28.422C467.865 28.81 467.787 29.256 467.783 29.76C467.791 30.536 467.971 31.16 468.323 31.632C468.675 32.1 469.199 32.334 469.895 32.334C470.335 32.334 470.709 32.234 471.017 32.034C471.329 31.83 471.565 31.534 471.725 31.146L472.613 31.41C472.373 31.986 472.021 32.426 471.557 32.73C471.093 33.03 470.539 33.18 469.895 33.18ZM476.418 33.18C475.786 33.18 475.238 33.04 474.774 32.76C474.314 32.48 473.956 32.086 473.7 31.578C473.444 31.07 473.316 30.474 473.316 29.79C473.316 29.082 473.442 28.47 473.694 27.954C473.946 27.438 474.3 27.04 474.756 26.76C475.216 26.48 475.758 26.34 476.382 26.34C477.022 26.34 477.568 26.488 478.02 26.784C478.472 27.076 478.814 27.496 479.046 28.044C479.278 28.592 479.384 29.246 479.364 30.006H478.464V29.694C478.448 28.854 478.266 28.22 477.918 27.792C477.574 27.364 477.07 27.15 476.406 27.15C475.71 27.15 475.176 27.376 474.804 27.828C474.436 28.28 474.252 28.924 474.252 29.76C474.252 30.576 474.436 31.21 474.804 31.662C475.176 32.11 475.702 32.334 476.382 32.334C476.846 32.334 477.25 32.228 477.594 32.016C477.942 31.8 478.216 31.49 478.416 31.086L479.238 31.404C478.982 31.968 478.604 32.406 478.104 32.718C477.608 33.026 477.046 33.18 476.418 33.18ZM473.94 30.006V29.268H478.89V30.006H473.94ZM482.879 24.36H483.785L481.481 33H480.575L482.879 24.36ZM489.256 33V25.344L487.63 26.322V25.332L489.256 24.36H490.15V33H489.256ZM499.508 33V29.694C499.508 29.334 499.474 29.004 499.406 28.704C499.338 28.4 499.228 28.136 499.076 27.912C498.928 27.684 498.734 27.508 498.494 27.384C498.258 27.26 497.97 27.198 497.63 27.198C497.318 27.198 497.042 27.252 496.802 27.36C496.566 27.468 496.366 27.624 496.202 27.828C496.042 28.028 495.92 28.272 495.836 28.56C495.752 28.848 495.71 29.176 495.71 29.544L495.086 29.406C495.086 28.742 495.202 28.184 495.434 27.732C495.666 27.28 495.986 26.938 496.394 26.706C496.802 26.474 497.27 26.358 497.798 26.358C498.186 26.358 498.524 26.418 498.812 26.538C499.104 26.658 499.35 26.82 499.55 27.024C499.754 27.228 499.918 27.462 500.042 27.726C500.166 27.986 500.256 28.264 500.312 28.56C500.368 28.852 500.396 29.144 500.396 29.436V33H499.508ZM494.822 33V24.36H495.62V29.238H495.71V33H494.822ZM504.659 33.18C504.015 33.18 503.465 33.034 503.009 32.742C502.553 32.45 502.203 32.046 501.959 31.53C501.715 31.014 501.593 30.422 501.593 29.754C501.593 29.074 501.717 28.478 501.965 27.966C502.213 27.454 502.565 27.056 503.021 26.772C503.481 26.484 504.027 26.34 504.659 26.34C505.307 26.34 505.859 26.486 506.315 26.778C506.775 27.066 507.125 27.468 507.365 27.984C507.609 28.496 507.731 29.086 507.731 29.754C507.731 30.434 507.609 31.032 507.365 31.548C507.121 32.06 506.769 32.46 506.309 32.748C505.849 33.036 505.299 33.18 504.659 33.18ZM504.659 32.334C505.379 32.334 505.915 32.096 506.267 31.62C506.619 31.14 506.795 30.518 506.795 29.754C506.795 28.97 506.617 28.346 506.261 27.882C505.909 27.418 505.375 27.186 504.659 27.186C504.175 27.186 503.775 27.296 503.459 27.516C503.147 27.732 502.913 28.034 502.757 28.422C502.605 28.806 502.529 29.25 502.529 29.754C502.529 30.534 502.709 31.16 503.069 31.632C503.429 32.1 503.959 32.334 504.659 32.334ZM511.533 33.162C511.145 33.162 510.805 33.102 510.513 32.982C510.225 32.862 509.979 32.7 509.775 32.496C509.575 32.292 509.413 32.06 509.289 31.8C509.165 31.536 509.075 31.258 509.019 30.966C508.963 30.67 508.935 30.376 508.935 30.084V26.52H509.823V29.826C509.823 30.182 509.857 30.512 509.925 30.816C509.993 31.12 510.101 31.386 510.249 31.614C510.401 31.838 510.595 32.012 510.831 32.136C511.071 32.26 511.361 32.322 511.701 32.322C512.013 32.322 512.287 32.268 512.523 32.16C512.763 32.052 512.963 31.898 513.123 31.698C513.287 31.494 513.411 31.248 513.495 30.96C513.579 30.668 513.621 30.34 513.621 29.976L514.245 30.114C514.245 30.778 514.129 31.336 513.897 31.788C513.665 32.24 513.345 32.582 512.937 32.814C512.529 33.046 512.061 33.162 511.533 33.162ZM513.711 33V31.404H513.621V26.52H514.503V33H513.711ZM516.18 33V26.52H516.972V28.08L516.816 27.876C516.888 27.684 516.982 27.508 517.098 27.348C517.214 27.184 517.34 27.05 517.476 26.946C517.644 26.798 517.84 26.686 518.064 26.61C518.288 26.53 518.514 26.484 518.742 26.472C518.97 26.456 519.178 26.472 519.366 26.52V27.348C519.13 27.288 518.872 27.274 518.592 27.306C518.312 27.338 518.054 27.45 517.818 27.642C517.602 27.81 517.44 28.012 517.332 28.248C517.224 28.48 517.152 28.728 517.116 28.992C517.08 29.252 517.062 29.51 517.062 29.766V33H516.18Z" fill="#8D929A"/>
<rect x="452" y="44" width="196" height="44" rx="12" fill="#F7F7F7"/>
<path d="M472.088 72V61.832H468.16V60.48H477.44V61.832H473.512V72H472.088ZM481.113 72.24C480.254 72.24 479.513 72.0453 478.889 71.656C478.27 71.2667 477.793 70.728 477.457 70.04C477.121 69.352 476.953 68.5627 476.953 67.672C476.953 66.7653 477.123 65.9707 477.465 65.288C477.806 64.6053 478.289 64.0747 478.913 63.696C479.537 63.312 480.27 63.12 481.113 63.12C481.977 63.12 482.721 63.3147 483.345 63.704C483.969 64.088 484.446 64.624 484.777 65.312C485.113 65.9947 485.281 66.7813 485.281 67.672C485.281 68.5733 485.113 69.368 484.777 70.056C484.441 70.7387 483.961 71.2747 483.337 71.664C482.713 72.048 481.971 72.24 481.113 72.24ZM481.113 70.888C482.009 70.888 482.675 70.5893 483.113 69.992C483.55 69.3947 483.769 68.6213 483.769 67.672C483.769 66.696 483.547 65.92 483.105 65.344C482.662 64.7627 481.998 64.472 481.113 64.472C480.51 64.472 480.014 64.608 479.625 64.88C479.235 65.152 478.945 65.528 478.753 66.008C478.561 66.488 478.465 67.0427 478.465 67.672C478.465 68.6427 478.689 69.4213 479.137 70.008C479.585 70.5947 480.243 70.888 481.113 70.888ZM493.277 73.584V71.736H494.701V73.584H493.277ZM493.277 60.744V58.888H494.701V60.744H493.277ZM494.101 72.24C493.322 72.24 492.621 72.1013 491.997 71.824C491.378 71.5413 490.869 71.144 490.469 70.632C490.069 70.1147 489.808 69.5067 489.685 68.808L491.085 68.576C491.256 69.2853 491.616 69.848 492.165 70.264C492.72 70.68 493.386 70.888 494.165 70.888C494.949 70.888 495.584 70.6987 496.069 70.32C496.554 69.9413 496.797 69.4533 496.797 68.856C496.797 68.4187 496.666 68.0667 496.405 67.8C496.149 67.5333 495.717 67.3067 495.109 67.12L492.477 66.304C490.904 65.8133 490.117 64.8747 490.117 63.488C490.117 62.8373 490.274 62.2693 490.589 61.784C490.909 61.2933 491.354 60.9147 491.925 60.648C492.501 60.376 493.17 60.2427 493.933 60.248C494.674 60.2533 495.336 60.392 495.917 60.664C496.498 60.9307 496.978 61.3147 497.357 61.816C497.741 62.3173 498 62.9173 498.133 63.616L496.693 63.88C496.618 63.4267 496.453 63.0293 496.197 62.688C495.946 62.3467 495.626 62.0827 495.237 61.896C494.848 61.704 494.41 61.6053 493.925 61.6C493.472 61.5947 493.064 61.6693 492.701 61.824C492.344 61.9787 492.061 62.1947 491.853 62.472C491.645 62.7493 491.541 63.0667 491.541 63.424C491.541 63.8133 491.685 64.144 491.973 64.416C492.266 64.6827 492.725 64.912 493.349 65.104L495.509 65.744C496.458 66.0267 497.144 66.408 497.565 66.888C497.986 67.3627 498.197 67.9973 498.197 68.792C498.197 69.48 498.026 70.0827 497.685 70.6C497.349 71.1173 496.872 71.52 496.253 71.808C495.64 72.096 494.922 72.24 494.101 72.24ZM504.846 72V69.88H499.55V68.528L503.35 60.48H504.966L501.166 68.528H504.846V65.288H506.286V68.528H507.486V69.88H506.286V72H504.846ZM513.289 72.24C512.543 72.24 511.876 72.072 511.289 71.736C510.708 71.3947 510.247 70.9333 509.905 70.352C509.569 69.7653 509.401 69.0987 509.401 68.352V64.128C509.401 63.3813 509.569 62.7147 509.905 62.128C510.247 61.5413 510.708 61.08 511.289 60.744C511.876 60.408 512.543 60.24 513.289 60.24C514.036 60.24 514.703 60.408 515.289 60.744C515.876 61.08 516.337 61.5413 516.673 62.128C517.009 62.7147 517.177 63.3813 517.177 64.128V68.352C517.177 69.0987 517.009 69.7653 516.673 70.352C516.337 70.9333 515.876 71.3947 515.289 71.736C514.703 72.072 514.036 72.24 513.289 72.24ZM513.289 70.872C513.743 70.872 514.153 70.7627 514.521 70.544C514.889 70.3253 515.183 70.032 515.401 69.664C515.62 69.2907 515.729 68.88 515.729 68.432V64.04C515.729 63.5867 515.62 63.176 515.401 62.808C515.183 62.44 514.889 62.1467 514.521 61.928C514.153 61.7093 513.743 61.6 513.289 61.6C512.841 61.6 512.431 61.7093 512.057 61.928C511.689 62.1467 511.396 62.44 511.177 62.808C510.959 63.176 510.849 63.5867 510.849 64.04V68.432C510.849 68.88 510.959 69.2907 511.177 69.664C511.396 70.032 511.689 70.3253 512.057 70.544C512.431 70.7627 512.841 70.872 513.289 70.872Z" fill="#101828"/>
<path fill-rule="evenodd" clip-rule="evenodd" d="M623.147 62.1469C623.193 62.1003 623.248 62.0634 623.309 62.0382C623.37 62.013 623.435 62 623.501 62C623.566 62 623.632 62.013 623.692 62.0382C623.753 62.0634 623.808 62.1003 623.855 62.1469L629.855 68.1469C629.949 68.2408 630.001 68.3681 630.001 68.5009C630.001 68.6337 629.949 68.761 629.855 68.8549C629.761 68.9488 629.633 69.0015 629.501 69.0015C629.368 69.0015 629.241 68.9488 629.147 68.8549L623.501 63.2079L617.855 68.8549C617.761 68.9488 617.633 69.0015 617.501 69.0015C617.368 69.0015 617.241 68.9488 617.147 68.8549C617.053 68.761 617 68.6337 617 68.5009C617 68.3681 617.053 68.2408 617.147 68.1469L623.147 62.1469Z" fill="#101828"/>
<g filter="url(#filter1_d_1_877)">
<rect x="452" y="92" width="196" height="188" rx="12" fill="white"/>
<rect x="452.5" y="92.5" width="195" height="187" rx="11.5" stroke="#F7F7F7"/>
<path d="M474.28 122.224C473.709 122.224 473.179 122.12 472.688 121.912C472.197 121.699 471.773 121.4 471.416 121.016C471.064 120.627 470.805 120.165 470.64 119.632L472.008 119.24C472.184 119.773 472.477 120.179 472.888 120.456C473.299 120.733 473.76 120.869 474.272 120.864C474.741 120.853 475.147 120.747 475.488 120.544C475.835 120.336 476.101 120.053 476.288 119.696C476.48 119.339 476.576 118.925 476.576 118.456C476.576 117.741 476.363 117.163 475.936 116.72C475.509 116.272 474.949 116.048 474.256 116.048C474.064 116.048 473.861 116.075 473.648 116.128C473.44 116.181 473.245 116.256 473.064 116.352L472.376 115.224L476.648 111.36L476.832 111.84H471.096V110.48H477.888V111.848L474.248 115.336L474.232 114.832C474.995 114.779 475.661 114.904 476.232 115.208C476.803 115.512 477.245 115.947 477.56 116.512C477.88 117.077 478.04 117.725 478.04 118.456C478.04 119.192 477.875 119.843 477.544 120.408C477.213 120.973 476.765 121.419 476.2 121.744C475.635 122.064 474.995 122.224 474.28 122.224ZM484.008 122.24C483.261 122.24 482.595 122.072 482.008 121.736C481.427 121.395 480.965 120.933 480.624 120.352C480.288 119.765 480.12 119.099 480.12 118.352V114.128C480.12 113.381 480.288 112.715 480.624 112.128C480.965 111.541 481.427 111.08 482.008 110.744C482.595 110.408 483.261 110.24 484.008 110.24C484.755 110.24 485.421 110.408 486.008 110.744C486.595 111.08 487.056 111.541 487.392 112.128C487.728 112.715 487.896 113.381 487.896 114.128V118.352C487.896 119.099 487.728 119.765 487.392 120.352C487.056 120.933 486.595 121.395 486.008 121.736C485.421 122.072 484.755 122.24 484.008 122.24ZM484.008 120.872C484.461 120.872 484.872 120.763 485.24 120.544C485.608 120.325 485.901 120.032 486.12 119.664C486.339 119.291 486.448 118.88 486.448 118.432V114.04C486.448 113.587 486.339 113.176 486.12 112.808C485.901 112.44 485.608 112.147 485.24 111.928C484.872 111.709 484.461 111.6 484.008 111.6C483.56 111.6 483.149 111.709 482.776 111.928C482.408 112.147 482.115 112.44 481.896 112.808C481.677 113.176 481.568 113.587 481.568 114.04V118.432C481.568 118.88 481.677 119.291 481.896 119.664C482.115 120.032 482.408 120.325 482.776 120.544C483.149 120.763 483.56 120.872 484.008 120.872Z" fill="#8D929A"/>
<path d="M476.096 150V147.88H470.8V146.528L474.6 138.48H476.216L472.416 146.528H476.096V143.288H477.536V146.528H478.736V147.88H477.536V150H476.096ZM484.539 150.24C483.793 150.24 483.126 150.072 482.539 149.736C481.958 149.395 481.497 148.933 481.155 148.352C480.819 147.765 480.651 147.099 480.651 146.352V142.128C480.651 141.381 480.819 140.715 481.155 140.128C481.497 139.541 481.958 139.08 482.539 138.744C483.126 138.408 483.793 138.24 484.539 138.24C485.286 138.24 485.953 138.408 486.539 138.744C487.126 139.08 487.587 139.541 487.923 140.128C488.259 140.715 488.427 141.381 488.427 142.128V146.352C488.427 147.099 488.259 147.765 487.923 148.352C487.587 148.933 487.126 149.395 486.539 149.736C485.953 150.072 485.286 150.24 484.539 150.24ZM484.539 148.872C484.993 148.872 485.403 148.763 485.771 148.544C486.139 148.325 486.433 148.032 486.651 147.664C486.87 147.291 486.979 146.88 486.979 146.432V142.04C486.979 141.587 486.87 141.176 486.651 140.808C486.433 140.44 486.139 140.147 485.771 139.928C485.403 139.709 484.993 139.6 484.539 139.6C484.091 139.6 483.681 139.709 483.307 139.928C482.939 140.147 482.646 140.44 482.427 140.808C482.209 141.176 482.099 141.587 482.099 142.04V146.432C482.099 146.88 482.209 147.291 482.427 147.664C482.646 148.032 482.939 148.325 483.307 148.544C483.681 148.763 484.091 148.872 484.539 148.872Z" fill="#101828"/>
<path d="M474.528 178.24C473.936 178.24 473.384 178.117 472.872 177.872C472.365 177.627 471.931 177.291 471.568 176.864C471.211 176.432 470.955 175.936 470.8 175.376L472.168 175.008C472.264 175.387 472.435 175.715 472.68 175.992C472.925 176.264 473.211 176.477 473.536 176.632C473.867 176.781 474.211 176.856 474.568 176.856C475.037 176.856 475.459 176.744 475.832 176.52C476.211 176.291 476.509 175.989 476.728 175.616C476.947 175.237 477.056 174.824 477.056 174.376C477.056 173.912 476.941 173.493 476.712 173.12C476.488 172.741 476.187 172.443 475.808 172.224C475.429 172.005 475.016 171.896 474.568 171.896C474.061 171.896 473.627 172.003 473.264 172.216C472.907 172.424 472.624 172.68 472.416 172.984L471.152 172.504L471.504 166.48H477.688V167.832H472.192L472.824 167.24L472.528 172.064L472.216 171.656C472.536 171.315 472.917 171.051 473.36 170.864C473.808 170.677 474.264 170.584 474.728 170.584C475.443 170.584 476.083 170.752 476.648 171.088C477.213 171.419 477.661 171.872 477.992 172.448C478.323 173.019 478.488 173.661 478.488 174.376C478.488 175.085 478.307 175.733 477.944 176.32C477.581 176.901 477.099 177.368 476.496 177.72C475.899 178.067 475.243 178.24 474.528 178.24ZM484.289 178.24C483.543 178.24 482.876 178.072 482.289 177.736C481.708 177.395 481.247 176.933 480.905 176.352C480.569 175.765 480.401 175.099 480.401 174.352V170.128C480.401 169.381 480.569 168.715 480.905 168.128C481.247 167.541 481.708 167.08 482.289 166.744C482.876 166.408 483.543 166.24 484.289 166.24C485.036 166.24 485.703 166.408 486.289 166.744C486.876 167.08 487.337 167.541 487.673 168.128C488.009 168.715 488.177 169.381 488.177 170.128V174.352C488.177 175.099 488.009 175.765 487.673 176.352C487.337 176.933 486.876 177.395 486.289 177.736C485.703 178.072 485.036 178.24 484.289 178.24ZM484.289 176.872C484.743 176.872 485.153 176.763 485.521 176.544C485.889 176.325 486.183 176.032 486.401 175.664C486.62 175.291 486.729 174.88 486.729 174.432V170.04C486.729 169.587 486.62 169.176 486.401 168.808C486.183 168.44 485.889 168.147 485.521 167.928C485.153 167.709 484.743 167.6 484.289 167.6C483.841 167.6 483.431 167.709 483.057 167.928C482.689 168.147 482.396 168.44 482.177 168.808C481.959 169.176 481.849 169.587 481.849 170.04V174.432C481.849 174.88 481.959 175.291 482.177 175.664C482.396 176.032 482.689 176.325 483.057 176.544C483.431 176.763 483.841 176.872 484.289 176.872Z" fill="#8D929A"/>
<path d="M475.048 206.24C474.317 206.24 473.653 206.064 473.056 205.712C472.464 205.36 471.992 204.88 471.64 204.272C471.293 203.659 471.12 202.968 471.12 202.2V198.368C471.12 197.563 471.293 196.851 471.64 196.232C471.992 195.608 472.472 195.123 473.08 194.776C473.693 194.424 474.392 194.248 475.176 194.248C475.811 194.248 476.4 194.379 476.944 194.64C477.493 194.896 477.955 195.267 478.328 195.752L477.264 196.696C477.035 196.36 476.736 196.093 476.368 195.896C476 195.699 475.603 195.6 475.176 195.6C474.669 195.6 474.219 195.723 473.824 195.968C473.435 196.208 473.128 196.528 472.904 196.928C472.68 197.323 472.568 197.749 472.568 198.208V200.52L472.256 200.168C472.592 199.688 473.019 199.304 473.536 199.016C474.053 198.728 474.613 198.584 475.216 198.584C475.931 198.584 476.571 198.752 477.136 199.088C477.707 199.424 478.155 199.88 478.48 200.456C478.811 201.027 478.976 201.669 478.976 202.384C478.976 203.099 478.797 203.747 478.44 204.328C478.083 204.909 477.605 205.373 477.008 205.72C476.416 206.067 475.763 206.24 475.048 206.24ZM475.048 204.864C475.507 204.864 475.925 204.755 476.304 204.536C476.683 204.312 476.981 204.013 477.2 203.64C477.424 203.261 477.536 202.843 477.536 202.384C477.536 201.925 477.424 201.507 477.2 201.128C476.981 200.749 476.683 200.451 476.304 200.232C475.931 200.008 475.515 199.896 475.056 199.896C474.597 199.896 474.179 200.008 473.8 200.232C473.427 200.451 473.128 200.749 472.904 201.128C472.68 201.507 472.568 201.925 472.568 202.384C472.568 202.837 472.677 203.253 472.896 203.632C473.12 204.005 473.419 204.304 473.792 204.528C474.171 204.752 474.589 204.864 475.048 204.864ZM484.946 206.24C484.199 206.24 483.532 206.072 482.946 205.736C482.364 205.395 481.903 204.933 481.562 204.352C481.226 203.765 481.058 203.099 481.058 202.352V198.128C481.058 197.381 481.226 196.715 481.562 196.128C481.903 195.541 482.364 195.08 482.946 194.744C483.532 194.408 484.199 194.24 484.946 194.24C485.692 194.24 486.359 194.408 486.946 194.744C487.532 195.08 487.994 195.541 488.33 196.128C488.666 196.715 488.834 197.381 488.834 198.128V202.352C488.834 203.099 488.666 203.765 488.33 204.352C487.994 204.933 487.532 205.395 486.946 205.736C486.359 206.072 485.692 206.24 484.946 206.24ZM484.946 204.872C485.399 204.872 485.81 204.763 486.178 204.544C486.546 204.325 486.839 204.032 487.058 203.664C487.276 203.291 487.386 202.88 487.386 202.432V198.04C487.386 197.587 487.276 197.176 487.058 196.808C486.839 196.44 486.546 196.147 486.178 195.928C485.81 195.709 485.399 195.6 484.946 195.6C484.498 195.6 484.087 195.709 483.714 195.928C483.346 196.147 483.052 196.44 482.834 196.808C482.615 197.176 482.506 197.587 482.506 198.04V202.432C482.506 202.88 482.615 203.291 482.834 203.664C483.052 204.032 483.346 204.325 483.714 204.544C484.087 204.763 484.498 204.872 484.946 204.872Z" fill="#8D929A"/>
<path d="M471.728 234L475.872 223.848H470.64V222.48H477.4V223.848L473.264 234H471.728ZM483.211 234.24C482.464 234.24 481.798 234.072 481.211 233.736C480.63 233.395 480.168 232.933 479.827 232.352C479.491 231.765 479.323 231.099 479.323 230.352V226.128C479.323 225.381 479.491 224.715 479.827 224.128C480.168 223.541 480.63 223.08 481.211 222.744C481.798 222.408 482.464 222.24 483.211 222.24C483.958 222.24 484.624 222.408 485.211 222.744C485.798 223.08 486.259 223.541 486.595 224.128C486.931 224.715 487.099 225.381 487.099 226.128V230.352C487.099 231.099 486.931 231.765 486.595 232.352C486.259 232.933 485.798 233.395 485.211 233.736C484.624 234.072 483.958 234.24 483.211 234.24ZM483.211 232.872C483.664 232.872 484.075 232.763 484.443 232.544C484.811 232.325 485.104 232.032 485.323 231.664C485.542 231.291 485.651 230.88 485.651 230.432V226.04C485.651 225.587 485.542 225.176 485.323 224.808C485.104 224.44 484.811 224.147 484.443 223.928C484.075 223.709 483.664 223.6 483.211 223.6C482.763 223.6 482.352 223.709 481.979 223.928C481.611 224.147 481.318 224.44 481.099 224.808C480.88 225.176 480.771 225.587 480.771 226.04V230.432C480.771 230.88 480.88 231.291 481.099 231.664C481.318 232.032 481.611 232.325 481.979 232.544C482.352 232.763 482.763 232.872 483.211 232.872Z" fill="#8D929A"/>
<path d="M474.72 262.24C473.984 262.24 473.333 262.093 472.768 261.8C472.203 261.501 471.76 261.088 471.44 260.56C471.12 260.032 470.96 259.416 470.96 258.712C470.96 258.024 471.123 257.403 471.448 256.848C471.779 256.293 472.275 255.867 472.936 255.568L472.912 256.088C472.373 255.827 471.96 255.459 471.672 254.984C471.384 254.504 471.24 253.973 471.24 253.392C471.24 252.741 471.389 252.181 471.688 251.712C471.987 251.243 472.397 250.88 472.92 250.624C473.443 250.368 474.043 250.24 474.72 250.24C475.397 250.24 475.997 250.368 476.52 250.624C477.043 250.88 477.453 251.243 477.752 251.712C478.051 252.181 478.2 252.741 478.2 253.392C478.2 253.973 478.064 254.501 477.792 254.976C477.52 255.445 477.101 255.816 476.536 256.088L476.504 255.576C477.165 255.864 477.661 256.288 477.992 256.848C478.328 257.403 478.496 258.024 478.496 258.712C478.496 259.416 478.333 260.032 478.008 260.56C477.688 261.088 477.243 261.501 476.672 261.8C476.107 262.093 475.456 262.24 474.72 262.24ZM474.72 260.88C475.392 260.88 475.936 260.696 476.352 260.328C476.773 259.955 476.984 259.416 476.984 258.712C476.984 258.003 476.776 257.464 476.36 257.096C475.949 256.723 475.403 256.536 474.72 256.536C474.043 256.536 473.496 256.723 473.08 257.096C472.669 257.464 472.464 258.003 472.464 258.712C472.464 259.416 472.672 259.955 473.088 260.328C473.504 260.696 474.048 260.88 474.72 260.88ZM474.72 255.168C475.307 255.168 475.781 255.021 476.144 254.728C476.507 254.429 476.688 253.984 476.688 253.392C476.688 252.8 476.507 252.357 476.144 252.064C475.781 251.765 475.307 251.616 474.72 251.616C474.139 251.616 473.664 251.765 473.296 252.064C472.933 252.357 472.752 252.8 472.752 253.392C472.752 253.984 472.933 254.429 473.296 254.728C473.664 255.021 474.139 255.168 474.72 255.168ZM484.461 262.24C483.714 262.24 483.048 262.072 482.461 261.736C481.88 261.395 481.418 260.933 481.077 260.352C480.741 259.765 480.573 259.099 480.573 258.352V254.128C480.573 253.381 480.741 252.715 481.077 252.128C481.418 251.541 481.88 251.08 482.461 250.744C483.048 250.408 483.714 250.24 484.461 250.24C485.208 250.24 485.874 250.408 486.461 250.744C487.048 251.08 487.509 251.541 487.845 252.128C488.181 252.715 488.349 253.381 488.349 254.128V258.352C488.349 259.099 488.181 259.765 487.845 260.352C487.509 260.933 487.048 261.395 486.461 261.736C485.874 262.072 485.208 262.24 484.461 262.24ZM484.461 260.872C484.914 260.872 485.325 260.763 485.693 260.544C486.061 260.325 486.354 260.032 486.573 259.664C486.792 259.291 486.901 258.88 486.901 258.432V254.04C486.901 253.587 486.792 253.176 486.573 252.808C486.354 252.44 486.061 252.147 485.693 251.928C485.325 251.709 484.914 251.6 484.461 251.6C484.013 251.6 483.602 251.709 483.229 251.928C482.861 252.147 482.568 252.44 482.349 252.808C482.13 253.176 482.021 253.587 482.021 254.04V258.432C482.021 258.88 482.13 259.291 482.349 259.664C482.568 260.032 482.861 260.325 483.229 260.544C483.602 260.763 484.013 260.872 484.461 260.872Z" fill="#8D929A"/>
<rect x="632" y="104" width="8" height="64" rx="4" fill="#DADDE1"/>
</g>
</g>
<rect x="0.5" y="0.5" width="667" height="343" rx="4.5" stroke="#9747FF" stroke-dasharray="10 5"/>
<defs>
<filter id="filter0_d_1_877" x="200" y="60" width="268" height="260" filterUnits="userSpaceOnUse" color-interpolation-filters="sRGB">
<feFlood flood-opacity="0" result="BackgroundImageFix"/>
<feColorMatrix in="SourceAlpha" type="matrix" values="0 0 0 0 0 0 0 0 0 0 0 0 0 0 0 0 0 0 127 0" result="hardAlpha"/>
<feOffset dy="4"/>
<feGaussianBlur stdDeviation="18"/>
<feComposite in2="hardAlpha" operator="out"/>
<feColorMatrix type="matrix" values="0 0 0 0 0 0 0 0 0 0 0 0 0 0 0 0 0 0 0.02 0"/>
<feBlend mode="normal" in2="BackgroundImageFix" result="effect1_dropShadow_1_877"/>
<feBlend mode="normal" in="SourceGraphic" in2="effect1_dropShadow_1_877" result="shape"/>
</filter>
<filter id="filter1_d_1_877" x="416" y="60" width="268" height="260" filterUnits="userSpaceOnUse" color-interpolation-filters="sRGB">
<feFlood flood-opacity="0" result="BackgroundImageFix"/>
<feColorMatrix in="SourceAlpha" type="matrix" values="0 0 0 0 0 0 0 0 0 0 0 0 0 0 0 0 0 0 127 0" result="hardAlpha"/>
<feOffset dy="4"/>
<feGaussianBlur stdDeviation="18"/>
<feComposite in2="hardAlpha" operator="out"/>
<feColorMatrix type="matrix" values="0 0 0 0 0 0 0 0 0 0 0 0 0 0 0 0 0 0 0.02 0"/>
<feBlend mode="normal" in2="BackgroundImageFix" result="effect1_dropShadow_1_877"/>
<feBlend mode="normal" in="SourceGraphic" in2="effect1_dropShadow_1_877" result="shape"/>
</filter>
<clipPath id="clip0_1_877">
<rect width="668" height="344" rx="5" fill="white"/>
</clipPath>
</defs>
</svg>
