<svg width="616" height="155" viewBox="0 0 616 155" fill="none" xmlns="http://www.w3.org/2000/svg">
<rect x="0.5" y="0.5" width="615" height="154" rx="4.5" stroke="#9747FF" stroke-dasharray="10 5"/>
<rect x="20" y="20" width="576" height="48" rx="12" fill="#F7F7F7"/>
<path d="M41.12 50V38.48H42.56L48.568 47.48V38.48H50.008V50H48.568L42.56 40.992V50H41.12ZM54.701 50.24C54.0557 50.24 53.5143 50.1227 53.077 49.888C52.645 49.648 52.317 49.3333 52.093 48.944C51.8743 48.5547 51.765 48.128 51.765 47.664C51.765 47.2107 51.8503 46.8187 52.021 46.488C52.197 46.152 52.4423 45.8747 52.757 45.656C53.0717 45.432 53.4477 45.256 53.885 45.128C54.2957 45.016 54.7543 44.92 55.261 44.84C55.773 44.7547 56.2903 44.6773 56.813 44.608C57.3357 44.5387 57.8237 44.472 58.277 44.408L57.765 44.704C57.781 43.936 57.6263 43.368 57.301 43C56.981 42.632 56.4263 42.448 55.637 42.448C55.1143 42.448 54.6557 42.568 54.261 42.808C53.8717 43.0427 53.597 43.4267 53.437 43.96L52.085 43.552C52.293 42.7947 52.6957 42.2 53.293 41.768C53.8903 41.336 54.677 41.12 55.653 41.12C56.437 41.12 57.109 41.2613 57.669 41.544C58.2343 41.8213 58.6397 42.2427 58.885 42.808C59.0077 43.0747 59.085 43.3653 59.117 43.68C59.149 43.9893 59.165 44.3147 59.165 44.656V50H57.901V47.928L58.197 48.12C57.8717 48.8187 57.4157 49.3467 56.829 49.704C56.2477 50.0613 55.5383 50.24 54.701 50.24ZM54.917 49.048C55.429 49.048 55.8717 48.9573 56.245 48.776C56.6237 48.5893 56.9277 48.3467 57.157 48.048C57.3863 47.744 57.5357 47.4133 57.605 47.056C57.685 46.7893 57.7277 46.4933 57.733 46.168C57.7437 45.8373 57.749 45.584 57.749 45.408L58.245 45.624C57.781 45.688 57.325 45.7493 56.877 45.808C56.429 45.8667 56.005 45.9307 55.605 46C55.205 46.064 54.845 46.1413 54.525 46.232C54.2903 46.3067 54.069 46.4027 53.861 46.52C53.6583 46.6373 53.493 46.7893 53.365 46.976C53.2423 47.1573 53.181 47.384 53.181 47.656C53.181 47.8907 53.2397 48.1147 53.357 48.328C53.4797 48.5413 53.6663 48.7147 53.917 48.848C54.173 48.9813 54.5063 49.048 54.917 49.048ZM71.573 50L71.581 44.472C71.581 43.8267 71.4077 43.3227 71.061 42.96C70.7197 42.592 70.2743 42.408 69.725 42.408C69.405 42.408 69.101 42.4827 68.813 42.632C68.525 42.776 68.2903 43.0053 68.109 43.32C67.9277 43.6293 67.837 44.0267 67.837 44.512L67.085 44.208C67.0743 43.5947 67.1997 43.0587 67.461 42.6C67.7277 42.136 68.0903 41.776 68.549 41.52C69.0077 41.264 69.525 41.136 70.101 41.136C71.0023 41.136 71.7117 41.4107 72.229 41.96C72.7463 42.504 73.005 43.2373 73.005 44.16L72.997 50H71.573ZM61.237 50V41.36H62.509V43.672H62.669V50H61.237ZM66.413 50L66.421 44.528C66.421 43.8667 66.2503 43.3493 65.909 42.976C65.5677 42.5973 65.1143 42.408 64.549 42.408C63.989 42.408 63.5357 42.6 63.189 42.984C62.8423 43.368 62.669 43.8773 62.669 44.512L61.917 44.064C61.917 43.504 62.0503 43.0027 62.317 42.56C62.5837 42.1173 62.9463 41.7707 63.405 41.52C63.8637 41.264 64.3837 41.136 64.965 41.136C65.5463 41.136 66.053 41.2587 66.485 41.504C66.917 41.7493 67.2503 42.1013 67.485 42.56C67.7197 43.0133 67.837 43.5547 67.837 44.184L67.829 50H66.413ZM78.7546 50.24C77.9066 50.24 77.1653 50.0533 76.5306 49.68C75.9013 49.3013 75.4106 48.776 75.0586 48.104C74.7066 47.4267 74.5306 46.6373 74.5306 45.736C74.5306 44.792 74.704 43.976 75.0506 43.288C75.3973 42.5947 75.88 42.0613 76.4986 41.688C77.1226 41.3093 77.8533 41.12 78.6906 41.12C79.56 41.12 80.2986 41.32 80.9066 41.72C81.52 42.12 81.9786 42.6907 82.2826 43.432C82.592 44.1733 82.7253 45.056 82.6826 46.08H81.2426V45.568C81.2266 44.5067 81.0106 43.7147 80.5946 43.192C80.1786 42.664 79.56 42.4 78.7386 42.4C77.8586 42.4 77.1893 42.6827 76.7306 43.248C76.272 43.8133 76.0426 44.624 76.0426 45.68C76.0426 46.6987 76.272 47.488 76.7306 48.048C77.1893 48.608 77.8426 48.888 78.6906 48.888C79.2613 48.888 79.7573 48.7573 80.1786 48.496C80.6 48.2347 80.9306 47.8587 81.1706 47.368L82.5386 47.84C82.2026 48.6027 81.696 49.1947 81.0186 49.616C80.3466 50.032 79.592 50.24 78.7546 50.24ZM75.5626 46.08V44.936H81.9466V46.08H75.5626ZM85.5518 43.904L84.5038 43.144L85.7438 41.584L83.8238 41.024L84.2238 39.792L86.0958 40.488L86.0238 38.48H87.3198L87.2478 40.488L89.1198 39.792L89.5198 41.024L87.5998 41.584L88.8318 43.144L87.7838 43.904L86.6718 42.256L85.5518 43.904Z" fill="#8D929A"/>
<rect x="20" y="91" width="576" height="48" rx="12" fill="#F7F7F7"/>
<path d="M41.12 121V109.48H42.56L48.568 118.48V109.48H50.008V121H48.568L42.56 111.992V121H41.12ZM54.701 121.24C54.0557 121.24 53.5143 121.123 53.077 120.888C52.645 120.648 52.317 120.333 52.093 119.944C51.8743 119.555 51.765 119.128 51.765 118.664C51.765 118.211 51.8503 117.819 52.021 117.488C52.197 117.152 52.4423 116.875 52.757 116.656C53.0717 116.432 53.4477 116.256 53.885 116.128C54.2957 116.016 54.7543 115.92 55.261 115.84C55.773 115.755 56.2903 115.677 56.813 115.608C57.3357 115.539 57.8237 115.472 58.277 115.408L57.765 115.704C57.781 114.936 57.6263 114.368 57.301 114C56.981 113.632 56.4263 113.448 55.637 113.448C55.1143 113.448 54.6557 113.568 54.261 113.808C53.8717 114.043 53.597 114.427 53.437 114.96L52.085 114.552C52.293 113.795 52.6957 113.2 53.293 112.768C53.8903 112.336 54.677 112.12 55.653 112.12C56.437 112.12 57.109 112.261 57.669 112.544C58.2343 112.821 58.6397 113.243 58.885 113.808C59.0077 114.075 59.085 114.365 59.117 114.68C59.149 114.989 59.165 115.315 59.165 115.656V121H57.901V118.928L58.197 119.12C57.8717 119.819 57.4157 120.347 56.829 120.704C56.2477 121.061 55.5383 121.24 54.701 121.24ZM54.917 120.048C55.429 120.048 55.8717 119.957 56.245 119.776C56.6237 119.589 56.9277 119.347 57.157 119.048C57.3863 118.744 57.5357 118.413 57.605 118.056C57.685 117.789 57.7277 117.493 57.733 117.168C57.7437 116.837 57.749 116.584 57.749 116.408L58.245 116.624C57.781 116.688 57.325 116.749 56.877 116.808C56.429 116.867 56.005 116.931 55.605 117C55.205 117.064 54.845 117.141 54.525 117.232C54.2903 117.307 54.069 117.403 53.861 117.52C53.6583 117.637 53.493 117.789 53.365 117.976C53.2423 118.157 53.181 118.384 53.181 118.656C53.181 118.891 53.2397 119.115 53.357 119.328C53.4797 119.541 53.6663 119.715 53.917 119.848C54.173 119.981 54.5063 120.048 54.917 120.048ZM71.573 121L71.581 115.472C71.581 114.827 71.4077 114.323 71.061 113.96C70.7197 113.592 70.2743 113.408 69.725 113.408C69.405 113.408 69.101 113.483 68.813 113.632C68.525 113.776 68.2903 114.005 68.109 114.32C67.9277 114.629 67.837 115.027 67.837 115.512L67.085 115.208C67.0743 114.595 67.1997 114.059 67.461 113.6C67.7277 113.136 68.0903 112.776 68.549 112.52C69.0077 112.264 69.525 112.136 70.101 112.136C71.0023 112.136 71.7117 112.411 72.229 112.96C72.7463 113.504 73.005 114.237 73.005 115.16L72.997 121H71.573ZM61.237 121V112.36H62.509V114.672H62.669V121H61.237ZM66.413 121L66.421 115.528C66.421 114.867 66.2503 114.349 65.909 113.976C65.5677 113.597 65.1143 113.408 64.549 113.408C63.989 113.408 63.5357 113.6 63.189 113.984C62.8423 114.368 62.669 114.877 62.669 115.512L61.917 115.064C61.917 114.504 62.0503 114.003 62.317 113.56C62.5837 113.117 62.9463 112.771 63.405 112.52C63.8637 112.264 64.3837 112.136 64.965 112.136C65.5463 112.136 66.053 112.259 66.485 112.504C66.917 112.749 67.2503 113.101 67.485 113.56C67.7197 114.013 67.837 114.555 67.837 115.184L67.829 121H66.413ZM78.7546 121.24C77.9066 121.24 77.1653 121.053 76.5306 120.68C75.9013 120.301 75.4106 119.776 75.0586 119.104C74.7066 118.427 74.5306 117.637 74.5306 116.736C74.5306 115.792 74.704 114.976 75.0506 114.288C75.3973 113.595 75.88 113.061 76.4986 112.688C77.1226 112.309 77.8533 112.12 78.6906 112.12C79.56 112.12 80.2986 112.32 80.9066 112.72C81.52 113.12 81.9786 113.691 82.2826 114.432C82.592 115.173 82.7253 116.056 82.6826 117.08H81.2426V116.568C81.2266 115.507 81.0106 114.715 80.5946 114.192C80.1786 113.664 79.56 113.4 78.7386 113.4C77.8586 113.4 77.1893 113.683 76.7306 114.248C76.272 114.813 76.0426 115.624 76.0426 116.68C76.0426 117.699 76.272 118.488 76.7306 119.048C77.1893 119.608 77.8426 119.888 78.6906 119.888C79.2613 119.888 79.7573 119.757 80.1786 119.496C80.6 119.235 80.9306 118.859 81.1706 118.368L82.5386 118.84C82.2026 119.603 81.696 120.195 81.0186 120.616C80.3466 121.032 79.592 121.24 78.7546 121.24ZM75.5626 117.08V115.936H81.9466V117.08H75.5626Z" fill="#8D929A"/>
</svg>
